<?xml version="1.0" encoding="UTF-8" standalone="no"?>
<svg width="512px" height="512px" viewBox="0 0 512 512" version="1.1" xmlns="http://www.w3.org/2000/svg" xmlns:xlink="http://www.w3.org/1999/xlink" xmlns:sketch="http://www.bohemiancoding.com/sketch/ns">
    <title>_write</title>
    <description>Created with Sketch (http://www.bohemiancoding.com/sketch)</description>
    <defs></defs>
    <g id="Page-1" stroke="none" stroke-width="1" fill="none" fill-rule="evenodd" sketch:type="MSPage">
        <path d="M256,512 C397.384903,512 512,397.384903 512,256 C512,114.615097 397.384903,0 256,0 C114.615097,0 0,114.615097 0,256 C0,397.384903 114.615097,512 256,512 Z M393.492171,124.663857 L324.98604,193.175121 C317.762541,200.405095 311.906915,206.416006 307.278629,211.348517 C311.738273,220.92284 310.061222,232.644587 302.172524,240.502846 C292.035265,250.61168 275.639515,250.61168 265.520994,240.502846 C255.383736,230.375257 255.383736,213.974189 265.520994,203.8466 C273.52212,195.838302 285.411382,194.272277 295.033345,198.960976 C299.314979,194.713015 304.983224,189.00218 312.79697,181.087656 L381.303102,112.642033 C391.25298,102.683237 388.81704,99.0541844 375.897188,104.596226 L241.808054,164.180209 C229.084951,169.891044 216.483646,185.935771 213.944647,199.851828 L212.642355,206.828612 C210.103356,220.679028 204.060351,235.973563 199.122888,241.018603 C194.176056,245.979246 198.148512,258.197995 208.19208,268.175545 L237.854336,297.864385 C247.804214,307.823181 259.965177,311.817953 264.986961,306.894819 C269.886948,301.934176 285.364537,295.754471 299.146337,293.34448 L306.079397,292.078531 C319.936149,289.546634 335.94777,277.037186 341.756551,264.227661 L401.324656,130.130879 C406.946056,117.152561 403.413943,114.723815 393.492171,124.663857 L393.492171,124.663857 Z M182.002428,257 L106.462995,332.38008 C90.4905632,348.354106 156.791225,416.11899 173.526491,399.354265 L249,323.955358 C249,323.955358 230.437698,311.01235 212.704155,293.193358 C194.951776,275.496735 182.002428,257 182.002428,257 L182.002428,257 Z" id="write_m" fill="#000000" sketch:type="MSShapeGroup"></path>
    </g>
</svg>