<?xml version="1.0" encoding="UTF-8" standalone="no"?>
<svg width="512px" height="512px" viewBox="0 0 512 512" version="1.1" xmlns="http://www.w3.org/2000/svg" xmlns:xlink="http://www.w3.org/1999/xlink" xmlns:sketch="http://www.bohemiancoding.com/sketch/ns">
    <title>_home</title>
    <description>Created with Sketch (http://www.bohemiancoding.com/sketch)</description>
    <defs></defs>
    <g id="Page-1" stroke="none" stroke-width="1" fill="none" fill-rule="evenodd" sketch:type="MSPage">
        <path d="M256,512 C397.384903,512 512,397.384903 512,256 C512,114.615097 397.384903,0 256,0 C114.615097,0 0,114.615097 0,256 C0,397.384903 114.615097,512 256,512 Z M407.745693,245.371299 L275.774574,123.535903 C264.860641,113.488032 247.197564,113.488032 236.263751,123.535903 L104.292633,245.371299 C93.3786999,255.379455 94.949193,263.560725 107.433619,263.560725 L139.310653,263.560725 L139.310653,290.348427 L139.310653,369.232155 C139.310653,383.936598 151.387546,396 166.138253,396 L345.810614,396 C360.511622,396 372.588515,383.936598 372.588515,369.232155 L372.588515,290.348427 L372.588515,263.560725 L404.36615,263.560725 C417.148771,263.560725 418.570167,255.359597 407.745693,245.371299 L407.745693,245.371299 Z" id="home_m" fill="#000000" sketch:type="MSShapeGroup"></path>
    </g>
</svg>