<?xml version="1.0" encoding="UTF-8" standalone="no"?>
<svg width="512px" height="512px" viewBox="0 0 512 512" version="1.1" xmlns="http://www.w3.org/2000/svg" xmlns:xlink="http://www.w3.org/1999/xlink" xmlns:sketch="http://www.bohemiancoding.com/sketch/ns">
    <title>_profile</title>
    <description>Created with Sketch (http://www.bohemiancoding.com/sketch)</description>
    <defs></defs>
    <g id="Page-1" stroke="none" stroke-width="1" fill="none" fill-rule="evenodd" sketch:type="MSPage">
        <path d="M256,512 C397.384903,512 512,397.384903 512,256 C512,114.615097 397.384903,0 256,0 C114.615097,0 0,114.615097 0,256 C0,397.384903 114.615097,512 256,512 Z M387.013257,355.380226 C376.026514,344.184676 332.412229,333.105056 310.560457,321.868102 C296.052114,314.448566 288.749257,298.582682 288.749257,284.588244 C288.749257,277.483376 293.382514,271.521249 297.618171,266.668739 C308.961943,253.386445 317.871429,229.223267 317.871429,195.694582 C317.871429,146.27517 288.757371,124 256,124 C223.234514,124 194.120457,146.27517 194.120457,195.694582 C194.120457,229.223267 202.989371,253.436129 214.349371,266.668739 C218.536343,271.521249 223.242629,277.483376 223.242629,284.588244 C223.242629,298.566121 215.915429,314.432004 201.431429,321.868102 C179.620229,333.080214 135.949143,344.184676 124.921829,355.380226 C114,366.592338 114,389 114,389 L256,389 L398,389 C397.975657,388.925473 397.975657,366.550934 387.013257,355.380226 L387.013257,355.380226 Z" id="profile_m" fill="#000000" sketch:type="MSShapeGroup"></path>
    </g>
</svg>