<?xml version="1.0" encoding="UTF-8" standalone="no"?>
<svg width="512px" height="512px" viewBox="0 0 512 512" version="1.1" xmlns="http://www.w3.org/2000/svg" xmlns:xlink="http://www.w3.org/1999/xlink" xmlns:sketch="http://www.bohemiancoding.com/sketch/ns">
    <title>coderwall</title>
    <description>Created with Sketch (http://www.bohemiancoding.com/sketch)</description>
    <defs></defs>
    <g id="Page-1" stroke="none" stroke-width="1" fill="none" fill-rule="evenodd" sketch:type="MSPage">
        <path d="M256,512 C397.384903,512 512,397.384903 512,256 C512,114.615097 397.384903,0 256,0 C114.615097,0 0,114.615097 0,256 C0,397.384903 114.615097,512 256,512 Z M145.483313,186.966626 C161.766498,186.966626 174.966626,173.766498 174.966626,157.483313 C174.966626,141.200128 161.766498,128 145.483313,128 C129.200128,128 116,141.200128 116,157.483313 C116,173.766498 129.200128,186.966626 145.483313,186.966626 Z M285.437506,157.845598 C285.437506,174.263651 272.129534,187.571624 255.713283,187.571624 C239.293427,187.571624 225.985455,174.264252 225.985455,157.845598 C225.985455,141.427545 239.293427,128.120173 255.713283,128.120173 C272.129534,128.120173 285.437506,141.428146 285.437506,157.845598 Z M394.661664,157.845598 C394.661664,174.263651 381.353691,187.571624 364.937441,187.571624 C348.518186,187.571624 335.209612,174.264252 335.209612,157.845598 C335.209612,141.427545 348.517585,128.120173 364.937441,128.120173 C381.353091,128.120173 394.661664,141.428146 394.661664,157.845598 Z M285.437506,256.37615 C285.437506,272.794203 272.129534,286.102176 255.713283,286.102176 C239.293427,286.102176 225.985455,272.794804 225.985455,256.37615 C225.985455,239.958096 239.293427,226.650124 255.713283,226.650124 C272.129534,226.650124 285.437506,239.958697 285.437506,256.37615 Z M394.661664,255.709189 C394.661664,272.128444 381.353691,285.437017 364.937441,285.437017 C348.518186,285.437017 335.209612,272.129045 335.209612,255.709189 C335.209612,239.291136 348.517585,225.983163 364.937441,225.983163 C381.353091,225.983163 394.661664,239.291136 394.661664,255.709189 Z M394.661664,356.244228 C394.661664,372.662882 381.353691,385.971456 364.937441,385.971456 C348.518186,385.971456 335.209612,372.663483 335.209612,356.244228 C335.209612,339.827978 348.517585,326.519404 364.937441,326.519404 C381.353091,326.520005 394.661664,339.827978 394.661664,356.244228 Z" id="coderwall" fill="#000000" sketch:type="MSShapeGroup"></path>
    </g>
</svg>