<?xml version="1.0" encoding="UTF-8" standalone="no"?>
<svg width="512px" height="512px" viewBox="0 0 512 512" version="1.1" xmlns="http://www.w3.org/2000/svg" xmlns:xlink="http://www.w3.org/1999/xlink" xmlns:sketch="http://www.bohemiancoding.com/sketch/ns">
    <title>deviantart</title>
    <description>Created with Sketch (http://www.bohemiancoding.com/sketch)</description>
    <defs></defs>
    <g id="Page-1" stroke="none" stroke-width="1" fill="none" fill-rule="evenodd" sketch:type="MSPage">
        <path d="M210.100194,216.704 L210.100194,273.538485 L154.09833,273.538485 C160.137942,244.363184 178.765049,225.015301 210.100194,216.704 L210.100194,216.704 Z M512,256 C512,397.38532 397.38532,512 256,512 C114.61468,512 0,397.38532 0,256 C0,114.61468 114.61468,0 256,0 C397.38532,0 512,114.61468 512,256 L512,256 Z M444.048155,307.364039 C435.446058,238.337243 356.215301,184.266563 259.728155,184.266563 C258.059184,184.266563 256.396427,184.286447 254.736155,184.318757 L254.736155,152.660505 C239.578718,151.66633 224.683495,154.044893 210.100194,160.423767 L210.100194,189.203883 C137.250796,204.01833 82.4754951,250.63767 75.4056699,307.365282 L254.736155,307.365282 L254.736155,210.328854 C321.386874,209.118447 357.310136,231.041243 365.912233,273.540971 L311.433942,273.540971 L311.433942,227.796505 C297.01965,222.787107 281.841087,220.747806 266.103301,220.864621 L266.103301,307.365282 L444.048155,307.365282 L444.048155,307.364039 Z" id="deviantart" fill="#000000" sketch:type="MSShapeGroup"></path>
    </g>
</svg>