<?xml version="1.0" encoding="UTF-8" standalone="no"?>
<svg width="512px" height="512px" viewBox="0 0 512 512" version="1.1" xmlns="http://www.w3.org/2000/svg" xmlns:xlink="http://www.w3.org/1999/xlink" xmlns:sketch="http://www.bohemiancoding.com/sketch/ns">
    <title>dribble</title>
    <description>Created with Sketch (http://www.bohemiancoding.com/sketch)</description>
    <defs></defs>
    <g id="Page-1" stroke="none" stroke-width="1" fill="none" fill-rule="evenodd" sketch:type="MSPage">
        <path d="M256.464,-0.08 C115.088,-0.08 0.464,114.544 0.464,255.92 C0.464,397.328 115.088,511.92 256.464,511.92 C397.84,511.92 512.464,397.328 512.464,255.92 C512.464,114.544 397.84,-0.08 256.464,-0.08 L256.464,-0.08 Z M255.984,412.432 C169.344,412.432 100.096,342.096 100.096,255.44 C100.096,169.776 169.36,99.504 255.984,99.504 C342.624,99.504 412.976,169.84 412.976,255.44 C412.88,342.128 342.624,412.432 255.984,412.432 L255.984,412.432 Z M269.472,260.336 C266.464,254.56 263.696,247.808 261.792,242 C223.264,255.504 183.792,263.104 144.336,263.104 C138.576,263.104 132.672,262.112 126,262.112 C126.992,293.104 139.664,321.776 160.672,343.92 C186.704,304.576 225.184,275.744 269.472,260.336 Z M179.936,362.368 C203.056,377.776 229.04,386.432 255.984,386.432 C270.416,386.432 283.904,384.528 297.424,379.68 C294.496,346.816 287.76,315.216 278.368,285.344 C237.696,298.8 204.032,325.744 179.936,362.368 Z M346.464,162.128 C322.4,139.12 290.656,125.568 255.984,125.568 C244.432,125.568 233.84,127.472 222.32,130.56 C242.528,155.552 259.856,181.568 274.288,208.496 C300.272,196.784 324.32,181.376 346.464,162.128 Z M250.208,217.92 C235.776,190.944 217.488,164.944 196.304,139.92 C159.728,159.2 133.744,194.88 126.992,236.256 L144.32,236.256 C179.936,236.208 215.552,230.464 250.208,217.92 Z M303.152,278.576 C312.816,307.504 318.56,337.328 322.4,368.16 C354.16,349.824 376.304,318.096 384.064,281.504 C367.728,277.84 352.4,275.84 337.056,275.84 C326.24,275.744 314.736,276.64 303.152,278.576 Z M285.84,232.432 C288.768,239.152 291.584,246.768 294.496,253.44 C308.928,250.48 323.424,248.592 336.832,248.592 C353.168,248.592 369.568,251.6 386.896,255.344 C386.896,229.344 378.24,204.336 363.808,182.352 C339.728,202.512 312.784,219.856 285.84,232.432 Z" id="dribble" fill="#1D1D1B" sketch:type="MSShapeGroup"></path>
    </g>
</svg>