<?xml version="1.0" encoding="UTF-8" standalone="no"?>
<svg width="512px" height="512px" viewBox="0 0 512 512" version="1.1" xmlns="http://www.w3.org/2000/svg" xmlns:xlink="http://www.w3.org/1999/xlink" xmlns:sketch="http://www.bohemiancoding.com/sketch/ns">
    <title>github-alt-1</title>
    <description>Created with Sketch (http://www.bohemiancoding.com/sketch)</description>
    <defs></defs>
    <g id="Page-1" stroke="none" stroke-width="1" fill="none" fill-rule="evenodd" sketch:type="MSPage">
        <path d="M258.635806,328.021748 C281.576388,327.647689 295.35068,334.352155 295.590524,350.778408 C295.827883,366.973515 283.041553,374.296854 261.001942,374.262058 C236.546485,374.228505 222.672777,367.274252 222.225398,350.596971 C221.819029,335.412194 234.080932,328.424388 258.635806,328.021748 L258.635806,328.021748 Z M254.811961,148.703689 C235.572194,148.83666 226.937786,160.884816 226.960155,180.197903 C226.983767,201.411107 235.840621,212.352 255.17732,212.056233 C272.019883,211.797748 282.922252,202.723417 282.666252,181.290252 C282.415223,160.146641 272.029825,148.585631 254.811961,148.703689 L254.811961,148.703689 Z M512,256 C512,397.38532 397.38532,512 256,512 C114.61468,512 0,397.38532 0,256 C0,114.61468 114.61468,0 256,0 C397.38532,0 512,114.61468 512,256 L512,256 Z M342.561553,108.653359 C327.191612,115.493282 310.690796,119.271146 293.042951,119.940971 C281.843573,113.168155 268.915573,108.534058 254.083728,108.653359 C217.67332,108.653359 181.500272,133.894214 179.989126,177.287456 C178.935301,207.550136 193.344621,230.193709 217.67332,244.098485 C206.565903,249.341515 202.200233,261.395883 202.200233,273.227806 C202.200233,285.058485 210.300272,297.555262 217.854757,303.081631 C191.898097,314.232544 176.894757,330.207689 176.894757,354.783689 C176.894757,432.336777 340.192932,434.337553 340.192932,351.505398 C340.192932,321.104777 319.80365,299.075107 269.558058,290.70167 C249.650951,287.827262 239.156194,256.840078 268.465709,251.196893 C310.519301,244.097243 338.736466,203.31868 323.991612,158.534835 C330.264854,157.549359 336.459806,156.020816 342.560311,153.80132 L342.560311,108.653359 L342.561553,108.653359 Z" id="github4" fill="#000000" sketch:type="MSShapeGroup"></path>
    </g>
</svg>