<?xml version="1.0" encoding="UTF-8" standalone="no"?>
<svg width="512px" height="512px" viewBox="0 0 512 512" version="1.1" xmlns="http://www.w3.org/2000/svg" xmlns:xlink="http://www.w3.org/1999/xlink" xmlns:sketch="http://www.bohemiancoding.com/sketch/ns">
    <title>goodreads</title>
    <description>Created with Sketch (http://www.bohemiancoding.com/sketch)</description>
    <defs></defs>
    <g id="Page-1" stroke="none" stroke-width="1" fill="none" fill-rule="evenodd" sketch:type="MSPage">
        <path d="M255.16032,120.38144 C231.56224,121.0624 214.05184,130.5856 202.62912,148.95104 C190.82752,167.31648 184.92928,188.47232 184.92928,212.41344 C184.92928,237.98784 190.9504,259.54816 202.99776,277.09952 C214.91712,295.1936 232.30976,304.44544 255.16032,304.84992 C279.37792,304.44544 297.3184,294.92736 309.00224,276.28544 C320.67072,258.73408 326.51264,237.45024 326.51264,212.41344 C326.51264,187.38176 320.67072,165.95968 309.00224,148.13184 C297.3184,130.31424 279.37792,121.06752 255.16032,120.38144 L255.16032,120.38144 Z M256,0 C114.61632,0 0,114.61632 0,256 C0,397.38368 114.61632,512 256,512 C397.38368,512 512,397.38368 512,256 C512,114.61632 397.38368,0 256,0 L256,0 Z M341.41696,315.25888 L341.41696,315.25888 C341.41184,319.616 341.0432,326.81984 340.29056,336.89088 C339.3024,346.9568 336.26112,357.57056 331.17184,368.72192 C326.07232,379.88352 317.69088,389.20192 306.0224,396.68224 C294.2208,404.43904 277.76,408.30976 256.65024,408.30976 C235.2896,408.30976 217.6512,403.33824 203.74016,393.41568 C189.46048,383.07328 181.5808,365.7984 180.09088,341.58592 L194.62144,341.58592 C196.60288,360.22272 203.43296,373.69344 215.11168,381.99296 C226.53952,390.42048 240.50176,394.64448 257.024,394.64448 C274.16576,394.368 287.5136,390.90688 297.08288,384.23552 C306.7648,378.11712 313.78432,370.69824 318.1312,361.99424 C322.47296,352.7424 325.14048,344.10496 326.13888,336.0768 C326.6304,328.32512 326.88128,322.61632 326.88128,318.93504 L326.88128,269.55264 L326.13888,269.55264 C312.09984,301.93152 288.44032,318.2592 255.16032,318.52544 C226.71872,318.25408 205.4912,307.98336 191.45216,287.70816 C177.54112,267.84768 170.59328,242.74944 170.59328,212.41344 C170.59328,182.89152 177.91488,158.06464 192.57344,137.9328 C206.85312,117.66272 227.712,107.25888 255.16544,106.71104 C270.93504,106.71104 285.34784,110.86336 298.38336,119.16288 C311.30112,127.59552 320.55296,140.04736 326.144,156.50304 L326.8864,156.50304 L326.8864,111.61088 L341.41696,111.61088 L341.41696,315.25888 L341.41696,315.25888 Z" id="goodreads" fill="#000000" sketch:type="MSShapeGroup"></path>
    </g>
</svg>