<?xml version="1.0" encoding="UTF-8" standalone="no"?>
<svg width="512px" height="513px" viewBox="0 0 512 513" version="1.1" xmlns="http://www.w3.org/2000/svg" xmlns:xlink="http://www.w3.org/1999/xlink" xmlns:sketch="http://www.bohemiancoding.com/sketch/ns">
    <title>gplus-alt-0</title>
    <description>Created with Sketch (http://www.bohemiancoding.com/sketch)</description>
    <defs></defs>
    <g id="Page-1" stroke="none" stroke-width="1" fill="none" fill-rule="evenodd" sketch:type="MSPage">
        <path d="M100.128,385.656 C96.032,392.664 94,400.904 94,409.992 C94,430.68 105.664,447.656 123.344,456.616 C140.624,465.928 160.16,470.408 179.504,470.408 C197.472,470.408 213.632,466.744 227.92,458.648 C242.256,450.712 250.928,436.312 250.928,416.984 C250.928,410.648 249.328,404.504 247.92,399.368 C247.056,396.952 245.712,394.376 244.096,391.704 C242.032,388.936 240.432,386.712 239.312,384.696 C236.368,381.032 229.648,375.032 226.976,372.344 C224,369.864 215.184,363.304 212.64,361.336 C209.92,359.672 199.92,352.424 198.112,351.336 C195.616,351.032 191.744,351 186.736,351 C170.368,351 155.072,352.664 138.08,358.28 C121.04,363.592 108.304,371.32 100.128,385.656 Z M223.744,221.016 C223.744,202.824 218.72,181.368 209.408,162.328 C200.064,143.32 183.008,129.336 163.008,129.336 C134.816,129.336 118.672,153.608 118.672,182.552 C118.672,196.888 122.08,212.936 129.36,228.712 C136.64,244.376 145.952,257.368 159.696,265.336 C166.704,269.16 174.032,271.24 181.792,271.24 C211.36,271.288 223.744,251.288 223.744,221.016 Z M255.744,-0.232 C114.368,-0.232 -0.256,114.392 -0.256,255.768 C-0.256,314.424 19.488,368.536 52.736,411.64 C55.52,395.016 65.728,376.424 82.24,364.536 C101.552,350.36 127.904,343.768 150.464,340.2 C161.584,338.536 172.96,337.304 184.768,337.192 C175.024,324.696 170.24,313.32 170.24,303.32 C170.24,299.656 170.928,296.04 171.84,293.656 C172.832,291.176 174.592,286.376 175.248,283.912 C169.12,284.616 163.904,285 159.392,285 C114.272,285 77.056,251.592 77.056,206.664 C77.056,164.312 109.808,127 151.872,117.672 C166.208,114.664 180.304,113.112 194.4,113.112 L293.776,113.112 L263.056,131.08 L232.368,131.08 C253.968,144.744 266.24,171.48 266.24,198.088 C266.24,220.568 258.304,238.424 248.272,249.096 C243.28,254.312 238.272,259.368 233.264,263.624 C223.264,272.616 215.296,281.96 215.296,292.968 C215.296,300.936 220.928,308.44 228.96,315.32 C232.832,318.904 237.296,322.328 242.112,326.328 C251.776,333.832 261.776,343.176 269.936,353.912 C277.888,364.92 283.52,380.248 283.52,397.576 C283.52,445.912 237.184,491.368 156.176,491.368 L155.776,491.368 C186.624,504.376 220.528,511.704 256.112,511.704 C397.568,511.704 512.112,397.08 512.112,255.704 C511.744,114.424 397.072,-0.232 255.744,-0.232 Z M430.304,200.328 L372.08,200.328 L372.08,258.6 L342.992,258.6 L342.992,200.328 L284.768,200.328 L284.768,171.288 L342.992,171.288 L342.992,112.984 L372.08,112.984 L372.08,171.288 L430.304,171.288 L430.304,200.328 L430.304,200.328 Z" id="gplus2" fill="#1D1D1B" sketch:type="MSShapeGroup"></path>
    </g>
</svg>