<?xml version="1.0" encoding="UTF-8" standalone="no"?>
<svg width="512px" height="512px" viewBox="0 0 512 512" version="1.1" xmlns="http://www.w3.org/2000/svg" xmlns:xlink="http://www.w3.org/1999/xlink" xmlns:sketch="http://www.bohemiancoding.com/sketch/ns">
    <title>icloud</title>
    <description>Created with Sketch (http://www.bohemiancoding.com/sketch)</description>
    <defs></defs>
    <g id="Page-1" stroke="none" stroke-width="1" fill="none" fill-rule="evenodd" sketch:type="MSPage">
        <path d="M256,0 C114.61468,0 0,114.61468 0,256 C0,397.38532 114.61468,512 256,512 C397.38532,512 512,397.38532 512,256 C512,114.61468 397.38532,0 256,0 L256,0 Z M363.692738,362.203961 L154.989359,362.203961 C116.025165,362.203961 84.4427184,330.621515 84.4427184,291.656078 C84.4427184,263.509748 100.931107,239.21833 124.770175,227.89965 C124.961553,200.926447 146.868194,179.116738 173.886136,179.116738 C183.39666,179.116738 192.246058,181.864388 199.770718,186.544466 C216.235495,158.608155 246.612505,139.853049 281.386252,139.853049 C332.379961,139.853049 373.940194,180.166835 375.980738,230.662214 C406.749204,236.427184 430.041476,263.412816 430.041476,295.856466 C430.042718,332.500505 400.335534,362.203961 363.692738,362.203961 L363.692738,362.203961 Z" id="icloud" fill="#000000" sketch:type="MSShapeGroup"></path>
    </g>
</svg>