<?xml version="1.0" encoding="UTF-8" standalone="no"?>
<svg width="512px" height="512px" viewBox="0 0 512 512" version="1.1" xmlns="http://www.w3.org/2000/svg" xmlns:xlink="http://www.w3.org/1999/xlink" xmlns:sketch="http://www.bohemiancoding.com/sketch/ns">
    <title>linkedin-alt-0</title>
    <description>Created with Sketch (http://www.bohemiancoding.com/sketch)</description>
    <defs></defs>
    <g id="Page-1" stroke="none" stroke-width="1" fill="none" fill-rule="evenodd" sketch:type="MSPage">
        <path d="M256,0 C114.61468,0 0,114.61468 0,256 C0,397.38532 114.61468,512 256,512 C397.38532,512 512,397.38532 512,256 C512,114.61468 397.38532,0 256,0 L256,0 Z M187.698951,379.764816 L131.492039,379.764816 L131.492039,198.175068 L187.698951,198.175068 L187.698951,379.764816 L187.698951,379.764816 Z M159.327689,174.394408 C140.971495,174.394408 126.089942,159.392311 126.089942,140.88699 C126.089942,122.38167 140.971495,107.379573 159.327689,107.379573 C177.682641,107.379573 192.564194,122.38167 192.564194,140.88699 C192.564194,159.392311 177.682641,174.394408 159.327689,174.394408 L159.327689,174.394408 Z M398.336,379.764816 L342.401243,379.764816 L342.401243,284.444583 C342.401243,258.301515 332.47068,243.707029 311.798058,243.707029 C289.301126,243.707029 277.546252,258.906718 277.546252,284.444583 L277.546252,379.764816 L223.637126,379.764816 L223.637126,198.175068 L277.546252,198.175068 L277.546252,222.630524 C277.546252,222.630524 293.76,192.635029 332.265631,192.635029 C370.772505,192.635029 398.334757,216.144777 398.334757,264.784777 C398.336,313.424777 398.336,379.764816 398.336,379.764816 L398.336,379.764816 Z" id="linkedin2" fill="#000000" sketch:type="MSShapeGroup"></path>
    </g>
</svg>