<?xml version="1.0" encoding="UTF-8" standalone="no"?>
<svg width="512px" height="512px" viewBox="0 0 512 512" version="1.1" xmlns="http://www.w3.org/2000/svg" xmlns:xlink="http://www.w3.org/1999/xlink" xmlns:sketch="http://www.bohemiancoding.com/sketch/ns">
    <title>telegram</title>
    <description>Created with Sketch (http://www.bohemiancoding.com/sketch)</description>
    <defs></defs>
    <g id="Page-1" stroke="none" stroke-width="1" fill="none" fill-rule="evenodd" sketch:type="MSPage">
        <path d="M256.24,0.176 C114.816,0.176 0.24,114.8 0.24,256.176 C0.24,397.568 114.816,512.176 256.24,512.176 C397.616,512.176 512.24,397.568 512.24,256.176 C512.24,114.832 397.616,0.176 256.24,0.176 L256.24,0.176 Z M327.585779,283.113859 L175.182179,192.505288 C162.935779,185.171573 161.458379,186.978431 172.262979,196.561859 L286.859379,298.224145 C297.610579,307.683573 316.158179,311.137859 328.155379,305.983002 C340.241579,300.757288 339.956779,290.483002 327.585779,283.113859 L327.585779,283.113859 Z M412.24,281.52 L360.72,306.112 L324.816,369.52 C318.304,379.696 306.272,381.008 297.472,372.144 L290.464,364.96 C290.128,364.672 289.84,364.544 289.472,364.192 L273.808,348.208 L235.04,366.448 C223.376,371.44 209.696,366.48 204.096,354.928 L110.432,159.264 C104.768,147.6 110.096,141.984 122.096,146.896 L411.072,263.232 C422.72,267.744 423.168,275.952 412.24,281.52 L412.24,281.52 Z" id="telegram" fill="#1D1D1B" sketch:type="MSShapeGroup"></path>
    </g>
</svg>