<?xml version="1.0" encoding="UTF-8" standalone="no"?>
<svg width="512px" height="512px" viewBox="0 0 512 512" version="1.1" xmlns="http://www.w3.org/2000/svg" xmlns:xlink="http://www.w3.org/1999/xlink" xmlns:sketch="http://www.bohemiancoding.com/sketch/ns">
    <title>tumblr</title>
    <description>Created with Sketch (http://www.bohemiancoding.com/sketch)</description>
    <defs></defs>
    <g id="Page-1" stroke="none" stroke-width="1" fill="none" fill-rule="evenodd" sketch:type="MSPage">
        <path d="M256,0 C114.61468,0 0,114.61468 0,256 C0,397.38532 114.61468,512 256,512 C397.38532,512 512,397.38532 512,256 C512,114.61468 397.38532,0 256,0 L256,0 Z M355.163961,395.039068 C342.071922,401.201709 330.217631,405.512699 319.613515,407.993165 C309.004427,410.463689 297.529165,411.701437 285.19767,411.701437 C271.199689,411.701437 258.824699,409.931806 248.068971,406.403728 C237.303301,402.866951 228.12334,397.832699 220.534058,391.288544 C212.936078,384.744388 207.665709,377.786408 204.735379,370.417087 C201.797592,363.051495 200.336155,352.375301 200.336155,338.383534 L200.336155,230.994019 L166.779029,230.994019 L166.779029,187.336078 C178.77499,183.431456 189.043573,177.830524 197.595961,170.541981 C206.152078,163.249709 213.011883,154.500971 218.182835,144.274641 C223.357515,134.054524 226.920388,121.059417 228.873942,105.268194 L272.293282,105.268194 L272.293282,182.888388 L345.059417,182.888388 L345.059417,230.992777 L272.293282,230.992777 L272.293282,309.588505 C272.293282,327.351922 273.229049,338.758835 275.11301,343.801786 C276.996971,348.847223 280.498951,352.877359 285.615223,355.879767 C292.386796,359.952155 300.142602,361.981515 308.872699,361.981515 C324.37934,361.981515 339.811417,356.934835 355.165204,346.847689 L355.165204,395.039068 L355.163961,395.039068 Z" id="tumblr" fill="#000000" sketch:type="MSShapeGroup"></path>
    </g>
</svg>