<?xml version="1.0" encoding="UTF-8" standalone="no"?>
<svg width="512px" height="512px" viewBox="0 0 512 512" version="1.1" xmlns="http://www.w3.org/2000/svg" xmlns:xlink="http://www.w3.org/1999/xlink" xmlns:sketch="http://www.bohemiancoding.com/sketch/ns">
    <title>youtube</title>
    <description>Created with Sketch (http://www.bohemiancoding.com/sketch)</description>
    <defs></defs>
    <g id="Page-1" stroke="none" stroke-width="1" fill="none" fill-rule="evenodd" sketch:type="MSPage">
        <path d="M295.307184,294.448466 C289.499961,294.448466 284.519146,298.150524 280.849398,302.620583 L280.849398,264.455456 L264.433087,264.455456 L264.433087,383.00334 L280.849398,383.00334 L280.849398,376.281476 C285.381592,381.933359 290.341282,384.109359 296.293903,384.109359 C307.111767,384.109359 311.159301,375.704854 311.159301,364.885748 L311.159301,316.371262 C311.159301,304.509515 307.216155,294.448466 295.307184,294.448466 L295.307184,294.448466 Z M294.426097,362.507184 C294.426097,365.293359 293.955107,367.302835 293.016854,368.534369 C291.226097,370.880621 287.345087,370.77499 284.69934,369.43534 C283.456621,368.80901 282.174136,367.782524 280.849398,366.359612 L280.849398,311.863922 C281.954175,310.663456 283.070136,309.77367 284.202252,309.198291 C287.048078,307.759223 290.721553,308.037592 292.687534,310.634874 C293.84699,312.163417 294.424854,314.404039 294.424854,317.35301 L294.424854,362.507184 L294.426097,362.507184 Z M239.661981,190.541049 L239.661981,147.828816 C239.661981,142.803262 241.975922,139.072621 246.772816,139.072621 C252.007146,139.072621 254.24901,142.691417 254.24901,147.828816 L254.24901,190.541049 C254.24901,195.540505 251.700194,199.235107 247.10835,199.235107 C242.39099,199.233864 239.661981,195.377709 239.661981,190.541049 L239.661981,190.541049 Z M232.311301,295.555728 L248.571029,295.555728 L248.571029,383.00334 L232.311301,383.00334 L232.311301,373.34866 C229.315107,376.906563 226.199612,379.618175 222.958602,381.477282 C214.193709,386.497864 202.162951,386.389748 202.162951,368.647456 L202.162951,295.555728 L218.42268,295.555728 L218.42268,362.589204 C218.42268,366.108583 219.276427,368.482175 222.753553,368.482175 C225.922485,368.482175 230.329165,364.417243 232.311301,361.933049 L232.311301,295.555728 L232.311301,295.555728 Z M202.382913,281.662136 L183.440155,281.662136 L183.440155,383.00334 L165.129942,383.00334 L165.129942,281.662136 L146.188427,281.662136 L146.188427,264.455456 L202.384155,264.455456 L202.384155,281.662136 L202.382913,281.662136 Z M348.11899,293.344932 C333.451184,293.344932 323.423689,303.883184 323.423689,319.065476 L323.423689,358.316738 C323.423689,374.060738 331.363417,385.371961 346.887456,385.371961 C364.022058,385.371961 371.253437,375.168 371.253437,358.316738 L371.253437,351.747728 L354.520233,351.747728 L354.520233,357.827107 C354.520233,365.441243 354.120078,370.060427 347.256544,370.060427 C340.709903,370.060427 340.15565,364.387417 340.15565,357.827107 L340.15565,341.331262 L371.252194,341.331262 L371.252194,319.066718 C371.253437,303.25934 363.717592,293.344932 348.11899,293.344932 L348.11899,293.344932 Z M354.520233,327.755806 L340.156893,327.755806 L340.156893,318.90268 C340.156893,312.892893 341.394641,308.653981 347.420583,308.653981 C353.267573,308.653981 354.521476,312.992311 354.521476,318.90268 L354.521476,327.755806 L354.520233,327.755806 Z M256,0 C114.61468,0 0,114.61468 0,256 C0,397.38532 114.61468,512 256,512 C397.384078,512 512,397.38532 512,256 C512,114.61468 397.384078,0 256,0 L256,0 Z M286.143379,122.401553 L303.214602,122.401553 L303.214602,192.790369 C303.214602,196.483728 304.108117,198.976621 307.761709,198.976621 C311.090951,198.976621 315.718835,194.705398 317.799146,192.10066 L317.799146,122.402796 L334.870369,122.402796 L334.870369,214.226019 L317.799146,214.226019 L317.799146,204.089165 C310.402485,212.864 303.232,215.552 298.067262,215.552 C288.915883,215.552 286.142136,208.221204 286.142136,199.150602 L286.142136,122.401553 L286.143379,122.401553 Z M247.107107,121.645981 C260.946019,121.645981 271.650796,131.943146 271.650796,146.315184 L271.650796,191.323961 C271.650796,206.74734 260.83666,215.928544 247.107107,215.928544 C230.549126,215.928544 222.092427,207.505398 222.092427,191.323961 L222.092427,146.315184 C222.092427,131.582757 232.070214,121.645981 247.107107,121.645981 L247.107107,121.645981 Z M177.85165,89.7491262 L191.110214,139.503845 L203.428039,89.7491262 L222.963573,89.7491262 L200.588427,163.738097 L200.588427,214.224777 L181.359845,214.224777 L181.359845,163.738097 L158.486369,89.7491262 L177.85165,89.7491262 L177.85165,89.7491262 Z M397.005049,373.163495 C397.005049,394.783068 379.477748,412.309126 357.859417,412.309126 L156.626019,412.309126 C135.006447,412.309126 117.480388,394.783068 117.480388,373.163495 L117.480388,274.269204 C117.480388,252.648388 135.006447,235.12233 156.626019,235.12233 L357.859417,235.12233 C379.477748,235.12233 397.005049,252.648388 397.005049,274.269204 L397.005049,373.163495 L397.005049,373.163495 Z" id="youtube" fill="#000000" sketch:type="MSShapeGroup"></path>
    </g>
</svg>