<?xml version="1.0" encoding="UTF-8" standalone="no"?>
<svg width="512px" height="512px" viewBox="0 0 512 512" version="1.1" xmlns="http://www.w3.org/2000/svg" xmlns:xlink="http://www.w3.org/1999/xlink" xmlns:sketch="http://www.bohemiancoding.com/sketch/ns">
    <title>foursquare</title>
    <description>Created with Sketch (http://www.bohemiancoding.com/sketch)</description>
    <defs></defs>
    <g id="Page-1" stroke="none" stroke-width="1" fill="none" fill-rule="evenodd" sketch:type="MSPage">
        <path d="M256,512 C397.384903,512 512,397.384903 512,256 C512,114.615097 397.384903,0 256,0 C114.615097,0 0,114.615097 0,256 C0,397.384903 114.615097,512 256,512 Z M73.427376,227.540944 C73.427376,206.11835 81.231321,187.807133 96.839211,172.607292 C112.447101,157.407452 131.26838,149.807531 153.303048,149.807531 C170.645148,149.807531 186.202032,154.704124 199.9737,164.49731 C213.745368,174.290496 223.385535,186.940028 228.894202,202.445906 L249.092648,182.859534 L297.446503,229.377167 L431.184698,92.8846384 L431.184698,216.829647 L349.472803,279.873282 L359.878063,290.890616 L248.786611,398.921698 L152.0789,304.96832 C130.248257,304.560271 111.682008,296.807332 96.3801554,281.709504 C81.0783025,266.611676 73.427376,248.555489 73.427376,227.540944 L73.427376,227.540944 Z M84.7507472,227.540944 C84.7507472,245.903168 91.3815501,261.511058 104.643156,274.364614 C117.904762,287.218171 133.920701,293.644949 152.690974,293.644949 C159.42379,293.644949 166.054593,292.726838 172.583383,290.890616 L239.911536,350.567842 L418.943216,209.790795 L419.249253,117.367603 L242.359833,299.76569 L214.816497,255.08428 C218.896991,246.311217 220.937238,237.130106 220.937238,227.540944 C220.937238,209.382746 214.255429,193.825862 200.891811,180.870293 C187.528193,167.914724 171.461247,161.43694 152.690974,161.43694 C133.920701,161.43694 117.904762,167.914724 104.643156,180.870293 C91.3815501,193.825862 84.7507472,209.382746 84.7507472,227.540944 L84.7507472,227.540944 Z M99.440526,228.153019 C99.440526,213.871289 104.490137,201.680813 114.58936,191.58159 C124.688583,181.482367 136.87906,176.432756 151.160789,176.432756 C165.442518,176.432756 177.632995,181.431361 187.732218,191.428571 C197.831441,201.425782 202.881052,213.667264 202.881052,228.153019 C202.881052,242.434748 197.831441,254.625224 187.732218,264.724447 C177.632995,274.82367 165.442518,279.873282 151.160789,279.873282 C136.87906,279.873282 124.688583,274.82367 114.58936,264.724447 C104.490137,254.625224 99.440526,242.434748 99.440526,228.153019 L99.440526,228.153019 Z" id="foursquare" fill="#000000" sketch:type="MSShapeGroup"></path>
    </g>
</svg>