<?xml version="1.0" encoding="UTF-8" standalone="no"?>
<svg width="512px" height="512px" viewBox="0 0 512 512" version="1.1" xmlns="http://www.w3.org/2000/svg" xmlns:xlink="http://www.w3.org/1999/xlink" xmlns:sketch="http://www.bohemiancoding.com/sketch/ns">
    <title>gplus</title>
    <description>Created with Sketch (http://www.bohemiancoding.com/sketch)</description>
    <defs></defs>
    <g id="Page-1" stroke="none" stroke-width="1" fill="none" fill-rule="evenodd" sketch:type="MSPage">
        <path d="M277.066563,348.780117 C277.066563,373.941437 256.632544,393.598757 214.332893,393.598757 C181.245515,393.598757 157.351767,372.653981 157.351767,347.493903 C157.351767,322.838369 185.389981,301.566757 218.476117,301.930874 C255.186019,301.932117 277.066563,324.794408 277.066563,348.780117 L277.066563,348.780117 Z M512,256 C512,397.38532 397.38532,512 256,512 C114.61468,512 0,397.38532 0,256 C0,114.61468 114.61468,0 256,0 C397.38532,0 512,114.61468 512,256 L512,256 Z M305.567068,345.854757 C305.567068,322.627107 296.894136,307.451029 270.65165,287.788738 C244.03635,268.378718 237.533204,257.412971 262.936854,237.771806 C277.251728,226.704155 287.282951,211.950602 287.282951,193.734835 C287.282951,173.889864 279.168,155.885359 263.90866,147.142835 L285.536932,147.142835 L303.949049,127.81732 L221.553087,127.81732 C170.116971,127.81732 144.896,158.647922 144.896,192.560466 C144.896,227.218641 168.671689,254.514951 215.09965,254.514951 C207.901825,269.046058 210.792388,282.46866 222.569631,292.066175 C143.275495,292.066175 126.307417,326.859806 126.307417,353.662757 C126.307417,388.390524 166.227262,409.037049 214.096777,409.037049 C279.549515,409.035806 305.567068,374.349049 305.567068,345.854757 L305.567068,345.854757 Z M413.02866,169.631068 L375.015146,169.631068 L375.015146,131.618796 L356.010252,131.618796 L356.010252,169.631068 L317.996738,169.631068 L317.996738,188.637204 L356.010252,188.637204 L356.010252,226.649476 L375.015146,226.649476 L375.015146,188.637204 L413.02866,188.637204 L413.02866,169.631068 L413.02866,169.631068 Z M254.175689,194.975068 C250.344388,165.813437 231.345709,141.887379 209.147029,141.220039 C186.940893,140.558913 172.046913,162.876893 175.883184,192.045981 C179.716971,221.208854 200.820816,241.579495 223.03068,242.24932 C245.229359,242.910447 258.005748,224.140427 254.175689,194.975068 L254.175689,194.975068 Z" id="gplus" fill="#000000" sketch:type="MSShapeGroup"></path>
    </g>
</svg>