<?xml version="1.0" encoding="UTF-8" standalone="no"?>
<svg width="512px" height="512px" viewBox="0 0 512 512" version="1.1" xmlns="http://www.w3.org/2000/svg" xmlns:xlink="http://www.w3.org/1999/xlink" xmlns:sketch="http://www.bohemiancoding.com/sketch/ns">
    <title>vimeo</title>
    <description>Created with Sketch (http://www.bohemiancoding.com/sketch)</description>
    <defs></defs>
    <g id="Page-1" stroke="none" stroke-width="1" fill="none" fill-rule="evenodd" sketch:type="MSPage">
        <path d="M256,0 C114.61468,0 0,114.61468 0,256 C0,397.38532 114.61468,512 256,512 C397.38532,512 512,397.38532 512,256 C512,114.61468 397.38532,0 256,0 L256,0 Z M405.338718,200.922718 C403.966757,230.761631 383.136311,271.620971 342.842408,323.480854 C301.177786,377.649709 265.926835,404.736 237.094524,404.736 C219.237903,404.736 204.117748,388.247612 191.77134,355.250951 C183.52466,325.008155 175.281709,294.765359 167.04,264.523806 C157.871223,231.544544 148.03635,215.037515 137.517981,215.037515 C135.22765,215.037515 127.203417,219.864233 113.471379,229.475417 L99.0533592,210.895534 C114.174757,197.603417 129.094835,184.311301 143.772583,171.001786 C163.94066,153.568932 179.083184,144.398913 189.176544,143.471845 C213.023068,141.181515 227.704544,157.488466 233.213515,192.39767 C239.16365,230.059495 243.28699,253.483495 245.599689,262.651029 C252.474408,293.900427 260.035107,309.507728 268.299184,309.507728 C274.712854,309.507728 284.346408,299.372117 297.194874,279.103379 C310.022214,258.832155 316.903146,243.410019 317.826485,232.813359 C319.659495,215.318369 312.778563,206.55099 297.194874,206.55099 C289.856621,206.55099 282.295922,208.241087 274.514019,211.577786 C289.574524,162.233165 318.347184,138.263612 360.817087,139.629359 C392.305087,140.558913 407.146874,160.986718 405.338718,200.922718 L405.338718,200.922718 Z" id="vimeo" fill="#000000" sketch:type="MSShapeGroup"></path>
    </g>
</svg>