<?xml version="1.0" encoding="utf-8"?>
<svg version="1.1" baseProfile="full"  width="441" height="441" viewBox="0 0 441 441"
		 xmlns="http://www.w3.org/2000/svg" xmlns:xlink="http://www.w3.org/1999/xlink" xmlns:ev="http://www.w3.org/2001/xml-events">
<desc></desc>
<rect width="441" height="441" fill="#ffffff" cx="0" cy="0" />
<defs>
<rect id="p" width="9" height="9" />
</defs>
<g fill="#000000">
<use x="36" y="36" xlink:href="#p" />
<use x="36" y="45" xlink:href="#p" />
<use x="36" y="54" xlink:href="#p" />
<use x="36" y="63" xlink:href="#p" />
<use x="36" y="72" xlink:href="#p" />
<use x="36" y="81" xlink:href="#p" />
<use x="36" y="90" xlink:href="#p" />
<use x="36" y="108" xlink:href="#p" />
<use x="36" y="126" xlink:href="#p" />
<use x="36" y="135" xlink:href="#p" />
<use x="36" y="153" xlink:href="#p" />
<use x="36" y="189" xlink:href="#p" />
<use x="36" y="198" xlink:href="#p" />
<use x="36" y="225" xlink:href="#p" />
<use x="36" y="243" xlink:href="#p" />
<use x="36" y="252" xlink:href="#p" />
<use x="36" y="261" xlink:href="#p" />
<use x="36" y="270" xlink:href="#p" />
<use x="36" y="288" xlink:href="#p" />
<use x="36" y="342" xlink:href="#p" />
<use x="36" y="351" xlink:href="#p" />
<use x="36" y="360" xlink:href="#p" />
<use x="36" y="369" xlink:href="#p" />
<use x="36" y="378" xlink:href="#p" />
<use x="36" y="387" xlink:href="#p" />
<use x="36" y="396" xlink:href="#p" />
<use x="45" y="36" xlink:href="#p" />
<use x="45" y="90" xlink:href="#p" />
<use x="45" y="144" xlink:href="#p" />
<use x="45" y="189" xlink:href="#p" />
<use x="45" y="234" xlink:href="#p" />
<use x="45" y="243" xlink:href="#p" />
<use x="45" y="261" xlink:href="#p" />
<use x="45" y="270" xlink:href="#p" />
<use x="45" y="288" xlink:href="#p" />
<use x="45" y="342" xlink:href="#p" />
<use x="45" y="396" xlink:href="#p" />
<use x="54" y="36" xlink:href="#p" />
<use x="54" y="54" xlink:href="#p" />
<use x="54" y="63" xlink:href="#p" />
<use x="54" y="72" xlink:href="#p" />
<use x="54" y="90" xlink:href="#p" />
<use x="54" y="117" xlink:href="#p" />
<use x="54" y="144" xlink:href="#p" />
<use x="54" y="171" xlink:href="#p" />
<use x="54" y="180" xlink:href="#p" />
<use x="54" y="198" xlink:href="#p" />
<use x="54" y="216" xlink:href="#p" />
<use x="54" y="225" xlink:href="#p" />
<use x="54" y="261" xlink:href="#p" />
<use x="54" y="279" xlink:href="#p" />
<use x="54" y="288" xlink:href="#p" />
<use x="54" y="297" xlink:href="#p" />
<use x="54" y="324" xlink:href="#p" />
<use x="54" y="342" xlink:href="#p" />
<use x="54" y="360" xlink:href="#p" />
<use x="54" y="369" xlink:href="#p" />
<use x="54" y="378" xlink:href="#p" />
<use x="54" y="396" xlink:href="#p" />
<use x="63" y="36" xlink:href="#p" />
<use x="63" y="54" xlink:href="#p" />
<use x="63" y="63" xlink:href="#p" />
<use x="63" y="72" xlink:href="#p" />
<use x="63" y="90" xlink:href="#p" />
<use x="63" y="108" xlink:href="#p" />
<use x="63" y="117" xlink:href="#p" />
<use x="63" y="126" xlink:href="#p" />
<use x="63" y="144" xlink:href="#p" />
<use x="63" y="153" xlink:href="#p" />
<use x="63" y="180" xlink:href="#p" />
<use x="63" y="189" xlink:href="#p" />
<use x="63" y="216" xlink:href="#p" />
<use x="63" y="252" xlink:href="#p" />
<use x="63" y="261" xlink:href="#p" />
<use x="63" y="270" xlink:href="#p" />
<use x="63" y="297" xlink:href="#p" />
<use x="63" y="342" xlink:href="#p" />
<use x="63" y="360" xlink:href="#p" />
<use x="63" y="369" xlink:href="#p" />
<use x="63" y="378" xlink:href="#p" />
<use x="63" y="396" xlink:href="#p" />
<use x="72" y="36" xlink:href="#p" />
<use x="72" y="54" xlink:href="#p" />
<use x="72" y="63" xlink:href="#p" />
<use x="72" y="72" xlink:href="#p" />
<use x="72" y="90" xlink:href="#p" />
<use x="72" y="108" xlink:href="#p" />
<use x="72" y="117" xlink:href="#p" />
<use x="72" y="135" xlink:href="#p" />
<use x="72" y="162" xlink:href="#p" />
<use x="72" y="180" xlink:href="#p" />
<use x="72" y="207" xlink:href="#p" />
<use x="72" y="225" xlink:href="#p" />
<use x="72" y="261" xlink:href="#p" />
<use x="72" y="279" xlink:href="#p" />
<use x="72" y="288" xlink:href="#p" />
<use x="72" y="306" xlink:href="#p" />
<use x="72" y="315" xlink:href="#p" />
<use x="72" y="342" xlink:href="#p" />
<use x="72" y="360" xlink:href="#p" />
<use x="72" y="369" xlink:href="#p" />
<use x="72" y="378" xlink:href="#p" />
<use x="72" y="396" xlink:href="#p" />
<use x="81" y="36" xlink:href="#p" />
<use x="81" y="90" xlink:href="#p" />
<use x="81" y="108" xlink:href="#p" />
<use x="81" y="117" xlink:href="#p" />
<use x="81" y="126" xlink:href="#p" />
<use x="81" y="135" xlink:href="#p" />
<use x="81" y="153" xlink:href="#p" />
<use x="81" y="162" xlink:href="#p" />
<use x="81" y="171" xlink:href="#p" />
<use x="81" y="180" xlink:href="#p" />
<use x="81" y="225" xlink:href="#p" />
<use x="81" y="234" xlink:href="#p" />
<use x="81" y="252" xlink:href="#p" />
<use x="81" y="261" xlink:href="#p" />
<use x="81" y="279" xlink:href="#p" />
<use x="81" y="288" xlink:href="#p" />
<use x="81" y="342" xlink:href="#p" />
<use x="81" y="396" xlink:href="#p" />
<use x="90" y="36" xlink:href="#p" />
<use x="90" y="45" xlink:href="#p" />
<use x="90" y="54" xlink:href="#p" />
<use x="90" y="63" xlink:href="#p" />
<use x="90" y="72" xlink:href="#p" />
<use x="90" y="81" xlink:href="#p" />
<use x="90" y="90" xlink:href="#p" />
<use x="90" y="108" xlink:href="#p" />
<use x="90" y="126" xlink:href="#p" />
<use x="90" y="144" xlink:href="#p" />
<use x="90" y="162" xlink:href="#p" />
<use x="90" y="180" xlink:href="#p" />
<use x="90" y="198" xlink:href="#p" />
<use x="90" y="216" xlink:href="#p" />
<use x="90" y="234" xlink:href="#p" />
<use x="90" y="252" xlink:href="#p" />
<use x="90" y="270" xlink:href="#p" />
<use x="90" y="288" xlink:href="#p" />
<use x="90" y="306" xlink:href="#p" />
<use x="90" y="324" xlink:href="#p" />
<use x="90" y="342" xlink:href="#p" />
<use x="90" y="351" xlink:href="#p" />
<use x="90" y="360" xlink:href="#p" />
<use x="90" y="369" xlink:href="#p" />
<use x="90" y="378" xlink:href="#p" />
<use x="90" y="387" xlink:href="#p" />
<use x="90" y="396" xlink:href="#p" />
<use x="99" y="108" xlink:href="#p" />
<use x="99" y="135" xlink:href="#p" />
<use x="99" y="144" xlink:href="#p" />
<use x="99" y="162" xlink:href="#p" />
<use x="99" y="171" xlink:href="#p" />
<use x="99" y="189" xlink:href="#p" />
<use x="99" y="198" xlink:href="#p" />
<use x="99" y="234" xlink:href="#p" />
<use x="99" y="252" xlink:href="#p" />
<use x="99" y="261" xlink:href="#p" />
<use x="99" y="270" xlink:href="#p" />
<use x="99" y="288" xlink:href="#p" />
<use x="99" y="297" xlink:href="#p" />
<use x="99" y="306" xlink:href="#p" />
<use x="99" y="324" xlink:href="#p" />
<use x="108" y="36" xlink:href="#p" />
<use x="108" y="45" xlink:href="#p" />
<use x="108" y="54" xlink:href="#p" />
<use x="108" y="72" xlink:href="#p" />
<use x="108" y="90" xlink:href="#p" />
<use x="108" y="108" xlink:href="#p" />
<use x="108" y="117" xlink:href="#p" />
<use x="108" y="135" xlink:href="#p" />
<use x="108" y="153" xlink:href="#p" />
<use x="108" y="162" xlink:href="#p" />
<use x="108" y="171" xlink:href="#p" />
<use x="108" y="216" xlink:href="#p" />
<use x="108" y="225" xlink:href="#p" />
<use x="108" y="252" xlink:href="#p" />
<use x="108" y="270" xlink:href="#p" />
<use x="108" y="297" xlink:href="#p" />
<use x="108" y="306" xlink:href="#p" />
<use x="108" y="324" xlink:href="#p" />
<use x="108" y="333" xlink:href="#p" />
<use x="108" y="342" xlink:href="#p" />
<use x="108" y="351" xlink:href="#p" />
<use x="108" y="360" xlink:href="#p" />
<use x="108" y="369" xlink:href="#p" />
<use x="108" y="396" xlink:href="#p" />
<use x="117" y="36" xlink:href="#p" />
<use x="117" y="45" xlink:href="#p" />
<use x="117" y="126" xlink:href="#p" />
<use x="117" y="135" xlink:href="#p" />
<use x="117" y="144" xlink:href="#p" />
<use x="117" y="180" xlink:href="#p" />
<use x="117" y="189" xlink:href="#p" />
<use x="117" y="207" xlink:href="#p" />
<use x="117" y="225" xlink:href="#p" />
<use x="117" y="252" xlink:href="#p" />
<use x="117" y="261" xlink:href="#p" />
<use x="117" y="270" xlink:href="#p" />
<use x="117" y="279" xlink:href="#p" />
<use x="117" y="297" xlink:href="#p" />
<use x="117" y="315" xlink:href="#p" />
<use x="117" y="324" xlink:href="#p" />
<use x="117" y="342" xlink:href="#p" />
<use x="117" y="351" xlink:href="#p" />
<use x="117" y="369" xlink:href="#p" />
<use x="117" y="387" xlink:href="#p" />
<use x="126" y="45" xlink:href="#p" />
<use x="126" y="72" xlink:href="#p" />
<use x="126" y="81" xlink:href="#p" />
<use x="126" y="90" xlink:href="#p" />
<use x="126" y="108" xlink:href="#p" />
<use x="126" y="117" xlink:href="#p" />
<use x="126" y="126" xlink:href="#p" />
<use x="126" y="135" xlink:href="#p" />
<use x="126" y="162" xlink:href="#p" />
<use x="126" y="216" xlink:href="#p" />
<use x="126" y="225" xlink:href="#p" />
<use x="126" y="234" xlink:href="#p" />
<use x="126" y="243" xlink:href="#p" />
<use x="126" y="261" xlink:href="#p" />
<use x="126" y="270" xlink:href="#p" />
<use x="126" y="279" xlink:href="#p" />
<use x="126" y="288" xlink:href="#p" />
<use x="126" y="297" xlink:href="#p" />
<use x="126" y="306" xlink:href="#p" />
<use x="126" y="315" xlink:href="#p" />
<use x="126" y="342" xlink:href="#p" />
<use x="126" y="351" xlink:href="#p" />
<use x="126" y="360" xlink:href="#p" />
<use x="126" y="369" xlink:href="#p" />
<use x="126" y="378" xlink:href="#p" />
<use x="126" y="387" xlink:href="#p" />
<use x="135" y="45" xlink:href="#p" />
<use x="135" y="63" xlink:href="#p" />
<use x="135" y="81" xlink:href="#p" />
<use x="135" y="99" xlink:href="#p" />
<use x="135" y="117" xlink:href="#p" />
<use x="135" y="126" xlink:href="#p" />
<use x="135" y="135" xlink:href="#p" />
<use x="135" y="171" xlink:href="#p" />
<use x="135" y="198" xlink:href="#p" />
<use x="135" y="207" xlink:href="#p" />
<use x="135" y="225" xlink:href="#p" />
<use x="135" y="243" xlink:href="#p" />
<use x="135" y="270" xlink:href="#p" />
<use x="135" y="279" xlink:href="#p" />
<use x="135" y="297" xlink:href="#p" />
<use x="135" y="315" xlink:href="#p" />
<use x="135" y="333" xlink:href="#p" />
<use x="135" y="342" xlink:href="#p" />
<use x="135" y="369" xlink:href="#p" />
<use x="135" y="378" xlink:href="#p" />
<use x="135" y="387" xlink:href="#p" />
<use x="135" y="396" xlink:href="#p" />
<use x="144" y="81" xlink:href="#p" />
<use x="144" y="90" xlink:href="#p" />
<use x="144" y="99" xlink:href="#p" />
<use x="144" y="126" xlink:href="#p" />
<use x="144" y="135" xlink:href="#p" />
<use x="144" y="144" xlink:href="#p" />
<use x="144" y="162" xlink:href="#p" />
<use x="144" y="216" xlink:href="#p" />
<use x="144" y="261" xlink:href="#p" />
<use x="144" y="279" xlink:href="#p" />
<use x="144" y="306" xlink:href="#p" />
<use x="144" y="315" xlink:href="#p" />
<use x="144" y="342" xlink:href="#p" />
<use x="144" y="351" xlink:href="#p" />
<use x="144" y="369" xlink:href="#p" />
<use x="144" y="378" xlink:href="#p" />
<use x="144" y="387" xlink:href="#p" />
<use x="153" y="36" xlink:href="#p" />
<use x="153" y="45" xlink:href="#p" />
<use x="153" y="54" xlink:href="#p" />
<use x="153" y="99" xlink:href="#p" />
<use x="153" y="117" xlink:href="#p" />
<use x="153" y="144" xlink:href="#p" />
<use x="153" y="162" xlink:href="#p" />
<use x="153" y="171" xlink:href="#p" />
<use x="153" y="180" xlink:href="#p" />
<use x="153" y="198" xlink:href="#p" />
<use x="153" y="234" xlink:href="#p" />
<use x="153" y="243" xlink:href="#p" />
<use x="153" y="279" xlink:href="#p" />
<use x="153" y="342" xlink:href="#p" />
<use x="153" y="369" xlink:href="#p" />
<use x="153" y="378" xlink:href="#p" />
<use x="153" y="387" xlink:href="#p" />
<use x="162" y="45" xlink:href="#p" />
<use x="162" y="54" xlink:href="#p" />
<use x="162" y="63" xlink:href="#p" />
<use x="162" y="90" xlink:href="#p" />
<use x="162" y="108" xlink:href="#p" />
<use x="162" y="117" xlink:href="#p" />
<use x="162" y="126" xlink:href="#p" />
<use x="162" y="135" xlink:href="#p" />
<use x="162" y="144" xlink:href="#p" />
<use x="162" y="153" xlink:href="#p" />
<use x="162" y="171" xlink:href="#p" />
<use x="162" y="180" xlink:href="#p" />
<use x="162" y="189" xlink:href="#p" />
<use x="162" y="216" xlink:href="#p" />
<use x="162" y="252" xlink:href="#p" />
<use x="162" y="261" xlink:href="#p" />
<use x="162" y="306" xlink:href="#p" />
<use x="162" y="324" xlink:href="#p" />
<use x="162" y="342" xlink:href="#p" />
<use x="162" y="351" xlink:href="#p" />
<use x="162" y="360" xlink:href="#p" />
<use x="162" y="378" xlink:href="#p" />
<use x="162" y="396" xlink:href="#p" />
<use x="171" y="81" xlink:href="#p" />
<use x="171" y="126" xlink:href="#p" />
<use x="171" y="135" xlink:href="#p" />
<use x="171" y="144" xlink:href="#p" />
<use x="171" y="162" xlink:href="#p" />
<use x="171" y="198" xlink:href="#p" />
<use x="171" y="207" xlink:href="#p" />
<use x="171" y="225" xlink:href="#p" />
<use x="171" y="252" xlink:href="#p" />
<use x="171" y="270" xlink:href="#p" />
<use x="171" y="279" xlink:href="#p" />
<use x="171" y="297" xlink:href="#p" />
<use x="171" y="306" xlink:href="#p" />
<use x="171" y="324" xlink:href="#p" />
<use x="171" y="333" xlink:href="#p" />
<use x="171" y="342" xlink:href="#p" />
<use x="171" y="360" xlink:href="#p" />
<use x="171" y="378" xlink:href="#p" />
<use x="180" y="36" xlink:href="#p" />
<use x="180" y="45" xlink:href="#p" />
<use x="180" y="90" xlink:href="#p" />
<use x="180" y="99" xlink:href="#p" />
<use x="180" y="117" xlink:href="#p" />
<use x="180" y="144" xlink:href="#p" />
<use x="180" y="180" xlink:href="#p" />
<use x="180" y="198" xlink:href="#p" />
<use x="180" y="207" xlink:href="#p" />
<use x="180" y="216" xlink:href="#p" />
<use x="180" y="234" xlink:href="#p" />
<use x="180" y="261" xlink:href="#p" />
<use x="180" y="270" xlink:href="#p" />
<use x="180" y="279" xlink:href="#p" />
<use x="180" y="288" xlink:href="#p" />
<use x="180" y="315" xlink:href="#p" />
<use x="180" y="324" xlink:href="#p" />
<use x="180" y="333" xlink:href="#p" />
<use x="180" y="360" xlink:href="#p" />
<use x="180" y="387" xlink:href="#p" />
<use x="189" y="45" xlink:href="#p" />
<use x="189" y="54" xlink:href="#p" />
<use x="189" y="72" xlink:href="#p" />
<use x="189" y="81" xlink:href="#p" />
<use x="189" y="117" xlink:href="#p" />
<use x="189" y="126" xlink:href="#p" />
<use x="189" y="135" xlink:href="#p" />
<use x="189" y="162" xlink:href="#p" />
<use x="189" y="189" xlink:href="#p" />
<use x="189" y="198" xlink:href="#p" />
<use x="189" y="234" xlink:href="#p" />
<use x="189" y="243" xlink:href="#p" />
<use x="189" y="252" xlink:href="#p" />
<use x="189" y="261" xlink:href="#p" />
<use x="189" y="270" xlink:href="#p" />
<use x="189" y="288" xlink:href="#p" />
<use x="189" y="306" xlink:href="#p" />
<use x="189" y="324" xlink:href="#p" />
<use x="189" y="333" xlink:href="#p" />
<use x="189" y="360" xlink:href="#p" />
<use x="189" y="369" xlink:href="#p" />
<use x="189" y="387" xlink:href="#p" />
<use x="189" y="396" xlink:href="#p" />
<use x="198" y="54" xlink:href="#p" />
<use x="198" y="72" xlink:href="#p" />
<use x="198" y="81" xlink:href="#p" />
<use x="198" y="90" xlink:href="#p" />
<use x="198" y="117" xlink:href="#p" />
<use x="198" y="126" xlink:href="#p" />
<use x="198" y="144" xlink:href="#p" />
<use x="198" y="162" xlink:href="#p" />
<use x="198" y="189" xlink:href="#p" />
<use x="198" y="198" xlink:href="#p" />
<use x="198" y="216" xlink:href="#p" />
<use x="198" y="243" xlink:href="#p" />
<use x="198" y="270" xlink:href="#p" />
<use x="198" y="306" xlink:href="#p" />
<use x="198" y="315" xlink:href="#p" />
<use x="198" y="333" xlink:href="#p" />
<use x="198" y="351" xlink:href="#p" />
<use x="198" y="369" xlink:href="#p" />
<use x="198" y="378" xlink:href="#p" />
<use x="198" y="387" xlink:href="#p" />
<use x="198" y="396" xlink:href="#p" />
<use x="207" y="45" xlink:href="#p" />
<use x="207" y="63" xlink:href="#p" />
<use x="207" y="72" xlink:href="#p" />
<use x="207" y="135" xlink:href="#p" />
<use x="207" y="153" xlink:href="#p" />
<use x="207" y="162" xlink:href="#p" />
<use x="207" y="189" xlink:href="#p" />
<use x="207" y="198" xlink:href="#p" />
<use x="207" y="207" xlink:href="#p" />
<use x="207" y="225" xlink:href="#p" />
<use x="207" y="252" xlink:href="#p" />
<use x="207" y="270" xlink:href="#p" />
<use x="207" y="279" xlink:href="#p" />
<use x="207" y="288" xlink:href="#p" />
<use x="207" y="378" xlink:href="#p" />
<use x="207" y="396" xlink:href="#p" />
<use x="216" y="45" xlink:href="#p" />
<use x="216" y="90" xlink:href="#p" />
<use x="216" y="153" xlink:href="#p" />
<use x="216" y="162" xlink:href="#p" />
<use x="216" y="171" xlink:href="#p" />
<use x="216" y="198" xlink:href="#p" />
<use x="216" y="261" xlink:href="#p" />
<use x="216" y="288" xlink:href="#p" />
<use x="216" y="297" xlink:href="#p" />
<use x="216" y="306" xlink:href="#p" />
<use x="216" y="360" xlink:href="#p" />
<use x="216" y="378" xlink:href="#p" />
<use x="216" y="396" xlink:href="#p" />
<use x="225" y="45" xlink:href="#p" />
<use x="225" y="54" xlink:href="#p" />
<use x="225" y="81" xlink:href="#p" />
<use x="225" y="126" xlink:href="#p" />
<use x="225" y="153" xlink:href="#p" />
<use x="225" y="162" xlink:href="#p" />
<use x="225" y="180" xlink:href="#p" />
<use x="225" y="189" xlink:href="#p" />
<use x="225" y="207" xlink:href="#p" />
<use x="225" y="216" xlink:href="#p" />
<use x="225" y="234" xlink:href="#p" />
<use x="225" y="306" xlink:href="#p" />
<use x="225" y="324" xlink:href="#p" />
<use x="225" y="342" xlink:href="#p" />
<use x="225" y="360" xlink:href="#p" />
<use x="225" y="369" xlink:href="#p" />
<use x="234" y="36" xlink:href="#p" />
<use x="234" y="63" xlink:href="#p" />
<use x="234" y="90" xlink:href="#p" />
<use x="234" y="126" xlink:href="#p" />
<use x="234" y="153" xlink:href="#p" />
<use x="234" y="180" xlink:href="#p" />
<use x="234" y="189" xlink:href="#p" />
<use x="234" y="225" xlink:href="#p" />
<use x="234" y="234" xlink:href="#p" />
<use x="234" y="243" xlink:href="#p" />
<use x="234" y="270" xlink:href="#p" />
<use x="234" y="279" xlink:href="#p" />
<use x="234" y="288" xlink:href="#p" />
<use x="234" y="297" xlink:href="#p" />
<use x="234" y="306" xlink:href="#p" />
<use x="234" y="315" xlink:href="#p" />
<use x="234" y="333" xlink:href="#p" />
<use x="234" y="360" xlink:href="#p" />
<use x="234" y="369" xlink:href="#p" />
<use x="234" y="396" xlink:href="#p" />
<use x="243" y="36" xlink:href="#p" />
<use x="243" y="81" xlink:href="#p" />
<use x="243" y="99" xlink:href="#p" />
<use x="243" y="117" xlink:href="#p" />
<use x="243" y="126" xlink:href="#p" />
<use x="243" y="135" xlink:href="#p" />
<use x="243" y="144" xlink:href="#p" />
<use x="243" y="153" xlink:href="#p" />
<use x="243" y="171" xlink:href="#p" />
<use x="243" y="189" xlink:href="#p" />
<use x="243" y="198" xlink:href="#p" />
<use x="243" y="207" xlink:href="#p" />
<use x="243" y="216" xlink:href="#p" />
<use x="243" y="234" xlink:href="#p" />
<use x="243" y="243" xlink:href="#p" />
<use x="243" y="306" xlink:href="#p" />
<use x="243" y="324" xlink:href="#p" />
<use x="243" y="333" xlink:href="#p" />
<use x="243" y="342" xlink:href="#p" />
<use x="243" y="351" xlink:href="#p" />
<use x="243" y="369" xlink:href="#p" />
<use x="243" y="387" xlink:href="#p" />
<use x="243" y="396" xlink:href="#p" />
<use x="252" y="63" xlink:href="#p" />
<use x="252" y="90" xlink:href="#p" />
<use x="252" y="108" xlink:href="#p" />
<use x="252" y="135" xlink:href="#p" />
<use x="252" y="153" xlink:href="#p" />
<use x="252" y="171" xlink:href="#p" />
<use x="252" y="180" xlink:href="#p" />
<use x="252" y="207" xlink:href="#p" />
<use x="252" y="216" xlink:href="#p" />
<use x="252" y="234" xlink:href="#p" />
<use x="252" y="252" xlink:href="#p" />
<use x="252" y="270" xlink:href="#p" />
<use x="252" y="297" xlink:href="#p" />
<use x="252" y="333" xlink:href="#p" />
<use x="252" y="342" xlink:href="#p" />
<use x="252" y="351" xlink:href="#p" />
<use x="252" y="360" xlink:href="#p" />
<use x="252" y="369" xlink:href="#p" />
<use x="252" y="396" xlink:href="#p" />
<use x="261" y="54" xlink:href="#p" />
<use x="261" y="63" xlink:href="#p" />
<use x="261" y="72" xlink:href="#p" />
<use x="261" y="81" xlink:href="#p" />
<use x="261" y="99" xlink:href="#p" />
<use x="261" y="126" xlink:href="#p" />
<use x="261" y="153" xlink:href="#p" />
<use x="261" y="162" xlink:href="#p" />
<use x="261" y="180" xlink:href="#p" />
<use x="261" y="207" xlink:href="#p" />
<use x="261" y="225" xlink:href="#p" />
<use x="261" y="234" xlink:href="#p" />
<use x="261" y="261" xlink:href="#p" />
<use x="261" y="288" xlink:href="#p" />
<use x="261" y="297" xlink:href="#p" />
<use x="261" y="306" xlink:href="#p" />
<use x="261" y="315" xlink:href="#p" />
<use x="261" y="333" xlink:href="#p" />
<use x="261" y="342" xlink:href="#p" />
<use x="261" y="396" xlink:href="#p" />
<use x="270" y="72" xlink:href="#p" />
<use x="270" y="81" xlink:href="#p" />
<use x="270" y="90" xlink:href="#p" />
<use x="270" y="99" xlink:href="#p" />
<use x="270" y="108" xlink:href="#p" />
<use x="270" y="117" xlink:href="#p" />
<use x="270" y="144" xlink:href="#p" />
<use x="270" y="180" xlink:href="#p" />
<use x="270" y="189" xlink:href="#p" />
<use x="270" y="198" xlink:href="#p" />
<use x="270" y="216" xlink:href="#p" />
<use x="270" y="225" xlink:href="#p" />
<use x="270" y="234" xlink:href="#p" />
<use x="270" y="243" xlink:href="#p" />
<use x="270" y="261" xlink:href="#p" />
<use x="270" y="288" xlink:href="#p" />
<use x="270" y="297" xlink:href="#p" />
<use x="270" y="306" xlink:href="#p" />
<use x="270" y="315" xlink:href="#p" />
<use x="270" y="351" xlink:href="#p" />
<use x="270" y="369" xlink:href="#p" />
<use x="270" y="378" xlink:href="#p" />
<use x="270" y="396" xlink:href="#p" />
<use x="279" y="54" xlink:href="#p" />
<use x="279" y="108" xlink:href="#p" />
<use x="279" y="117" xlink:href="#p" />
<use x="279" y="126" xlink:href="#p" />
<use x="279" y="144" xlink:href="#p" />
<use x="279" y="153" xlink:href="#p" />
<use x="279" y="162" xlink:href="#p" />
<use x="279" y="189" xlink:href="#p" />
<use x="279" y="198" xlink:href="#p" />
<use x="279" y="225" xlink:href="#p" />
<use x="279" y="234" xlink:href="#p" />
<use x="279" y="261" xlink:href="#p" />
<use x="279" y="270" xlink:href="#p" />
<use x="279" y="288" xlink:href="#p" />
<use x="279" y="297" xlink:href="#p" />
<use x="279" y="306" xlink:href="#p" />
<use x="279" y="333" xlink:href="#p" />
<use x="279" y="342" xlink:href="#p" />
<use x="279" y="360" xlink:href="#p" />
<use x="279" y="369" xlink:href="#p" />
<use x="279" y="378" xlink:href="#p" />
<use x="288" y="36" xlink:href="#p" />
<use x="288" y="45" xlink:href="#p" />
<use x="288" y="54" xlink:href="#p" />
<use x="288" y="81" xlink:href="#p" />
<use x="288" y="90" xlink:href="#p" />
<use x="288" y="108" xlink:href="#p" />
<use x="288" y="126" xlink:href="#p" />
<use x="288" y="144" xlink:href="#p" />
<use x="288" y="162" xlink:href="#p" />
<use x="288" y="180" xlink:href="#p" />
<use x="288" y="189" xlink:href="#p" />
<use x="288" y="198" xlink:href="#p" />
<use x="288" y="225" xlink:href="#p" />
<use x="288" y="243" xlink:href="#p" />
<use x="288" y="252" xlink:href="#p" />
<use x="288" y="261" xlink:href="#p" />
<use x="288" y="270" xlink:href="#p" />
<use x="288" y="333" xlink:href="#p" />
<use x="288" y="342" xlink:href="#p" />
<use x="288" y="351" xlink:href="#p" />
<use x="288" y="378" xlink:href="#p" />
<use x="288" y="396" xlink:href="#p" />
<use x="297" y="36" xlink:href="#p" />
<use x="297" y="45" xlink:href="#p" />
<use x="297" y="63" xlink:href="#p" />
<use x="297" y="117" xlink:href="#p" />
<use x="297" y="126" xlink:href="#p" />
<use x="297" y="135" xlink:href="#p" />
<use x="297" y="153" xlink:href="#p" />
<use x="297" y="198" xlink:href="#p" />
<use x="297" y="216" xlink:href="#p" />
<use x="297" y="225" xlink:href="#p" />
<use x="297" y="243" xlink:href="#p" />
<use x="297" y="261" xlink:href="#p" />
<use x="297" y="297" xlink:href="#p" />
<use x="297" y="306" xlink:href="#p" />
<use x="297" y="324" xlink:href="#p" />
<use x="297" y="342" xlink:href="#p" />
<use x="297" y="351" xlink:href="#p" />
<use x="297" y="369" xlink:href="#p" />
<use x="297" y="378" xlink:href="#p" />
<use x="306" y="72" xlink:href="#p" />
<use x="306" y="81" xlink:href="#p" />
<use x="306" y="90" xlink:href="#p" />
<use x="306" y="99" xlink:href="#p" />
<use x="306" y="117" xlink:href="#p" />
<use x="306" y="126" xlink:href="#p" />
<use x="306" y="135" xlink:href="#p" />
<use x="306" y="144" xlink:href="#p" />
<use x="306" y="153" xlink:href="#p" />
<use x="306" y="162" xlink:href="#p" />
<use x="306" y="171" xlink:href="#p" />
<use x="306" y="180" xlink:href="#p" />
<use x="306" y="225" xlink:href="#p" />
<use x="306" y="234" xlink:href="#p" />
<use x="306" y="261" xlink:href="#p" />
<use x="306" y="279" xlink:href="#p" />
<use x="306" y="288" xlink:href="#p" />
<use x="306" y="297" xlink:href="#p" />
<use x="306" y="315" xlink:href="#p" />
<use x="306" y="324" xlink:href="#p" />
<use x="306" y="342" xlink:href="#p" />
<use x="306" y="369" xlink:href="#p" />
<use x="315" y="45" xlink:href="#p" />
<use x="315" y="72" xlink:href="#p" />
<use x="315" y="108" xlink:href="#p" />
<use x="315" y="117" xlink:href="#p" />
<use x="315" y="135" xlink:href="#p" />
<use x="315" y="162" xlink:href="#p" />
<use x="315" y="189" xlink:href="#p" />
<use x="315" y="198" xlink:href="#p" />
<use x="315" y="216" xlink:href="#p" />
<use x="315" y="225" xlink:href="#p" />
<use x="315" y="261" xlink:href="#p" />
<use x="315" y="270" xlink:href="#p" />
<use x="315" y="279" xlink:href="#p" />
<use x="315" y="288" xlink:href="#p" />
<use x="315" y="306" xlink:href="#p" />
<use x="315" y="324" xlink:href="#p" />
<use x="315" y="333" xlink:href="#p" />
<use x="315" y="342" xlink:href="#p" />
<use x="315" y="360" xlink:href="#p" />
<use x="315" y="378" xlink:href="#p" />
<use x="315" y="396" xlink:href="#p" />
<use x="324" y="36" xlink:href="#p" />
<use x="324" y="45" xlink:href="#p" />
<use x="324" y="54" xlink:href="#p" />
<use x="324" y="63" xlink:href="#p" />
<use x="324" y="81" xlink:href="#p" />
<use x="324" y="90" xlink:href="#p" />
<use x="324" y="99" xlink:href="#p" />
<use x="324" y="108" xlink:href="#p" />
<use x="324" y="117" xlink:href="#p" />
<use x="324" y="126" xlink:href="#p" />
<use x="324" y="135" xlink:href="#p" />
<use x="324" y="144" xlink:href="#p" />
<use x="324" y="171" xlink:href="#p" />
<use x="324" y="252" xlink:href="#p" />
<use x="324" y="279" xlink:href="#p" />
<use x="324" y="288" xlink:href="#p" />
<use x="324" y="297" xlink:href="#p" />
<use x="324" y="306" xlink:href="#p" />
<use x="324" y="315" xlink:href="#p" />
<use x="324" y="324" xlink:href="#p" />
<use x="324" y="333" xlink:href="#p" />
<use x="324" y="342" xlink:href="#p" />
<use x="324" y="351" xlink:href="#p" />
<use x="324" y="360" xlink:href="#p" />
<use x="324" y="369" xlink:href="#p" />
<use x="324" y="396" xlink:href="#p" />
<use x="333" y="108" xlink:href="#p" />
<use x="333" y="117" xlink:href="#p" />
<use x="333" y="126" xlink:href="#p" />
<use x="333" y="135" xlink:href="#p" />
<use x="333" y="162" xlink:href="#p" />
<use x="333" y="207" xlink:href="#p" />
<use x="333" y="234" xlink:href="#p" />
<use x="333" y="243" xlink:href="#p" />
<use x="333" y="252" xlink:href="#p" />
<use x="333" y="261" xlink:href="#p" />
<use x="333" y="270" xlink:href="#p" />
<use x="333" y="279" xlink:href="#p" />
<use x="333" y="297" xlink:href="#p" />
<use x="333" y="324" xlink:href="#p" />
<use x="333" y="360" xlink:href="#p" />
<use x="333" y="387" xlink:href="#p" />
<use x="333" y="396" xlink:href="#p" />
<use x="342" y="36" xlink:href="#p" />
<use x="342" y="45" xlink:href="#p" />
<use x="342" y="54" xlink:href="#p" />
<use x="342" y="63" xlink:href="#p" />
<use x="342" y="72" xlink:href="#p" />
<use x="342" y="81" xlink:href="#p" />
<use x="342" y="90" xlink:href="#p" />
<use x="342" y="144" xlink:href="#p" />
<use x="342" y="153" xlink:href="#p" />
<use x="342" y="162" xlink:href="#p" />
<use x="342" y="189" xlink:href="#p" />
<use x="342" y="198" xlink:href="#p" />
<use x="342" y="216" xlink:href="#p" />
<use x="342" y="234" xlink:href="#p" />
<use x="342" y="243" xlink:href="#p" />
<use x="342" y="252" xlink:href="#p" />
<use x="342" y="261" xlink:href="#p" />
<use x="342" y="279" xlink:href="#p" />
<use x="342" y="306" xlink:href="#p" />
<use x="342" y="324" xlink:href="#p" />
<use x="342" y="342" xlink:href="#p" />
<use x="342" y="360" xlink:href="#p" />
<use x="342" y="396" xlink:href="#p" />
<use x="351" y="36" xlink:href="#p" />
<use x="351" y="90" xlink:href="#p" />
<use x="351" y="126" xlink:href="#p" />
<use x="351" y="153" xlink:href="#p" />
<use x="351" y="162" xlink:href="#p" />
<use x="351" y="171" xlink:href="#p" />
<use x="351" y="216" xlink:href="#p" />
<use x="351" y="225" xlink:href="#p" />
<use x="351" y="234" xlink:href="#p" />
<use x="351" y="270" xlink:href="#p" />
<use x="351" y="288" xlink:href="#p" />
<use x="351" y="306" xlink:href="#p" />
<use x="351" y="315" xlink:href="#p" />
<use x="351" y="324" xlink:href="#p" />
<use x="351" y="360" xlink:href="#p" />
<use x="351" y="378" xlink:href="#p" />
<use x="351" y="387" xlink:href="#p" />
<use x="351" y="396" xlink:href="#p" />
<use x="360" y="36" xlink:href="#p" />
<use x="360" y="54" xlink:href="#p" />
<use x="360" y="63" xlink:href="#p" />
<use x="360" y="72" xlink:href="#p" />
<use x="360" y="90" xlink:href="#p" />
<use x="360" y="108" xlink:href="#p" />
<use x="360" y="117" xlink:href="#p" />
<use x="360" y="126" xlink:href="#p" />
<use x="360" y="135" xlink:href="#p" />
<use x="360" y="153" xlink:href="#p" />
<use x="360" y="162" xlink:href="#p" />
<use x="360" y="180" xlink:href="#p" />
<use x="360" y="189" xlink:href="#p" />
<use x="360" y="198" xlink:href="#p" />
<use x="360" y="207" xlink:href="#p" />
<use x="360" y="225" xlink:href="#p" />
<use x="360" y="261" xlink:href="#p" />
<use x="360" y="288" xlink:href="#p" />
<use x="360" y="297" xlink:href="#p" />
<use x="360" y="306" xlink:href="#p" />
<use x="360" y="324" xlink:href="#p" />
<use x="360" y="333" xlink:href="#p" />
<use x="360" y="342" xlink:href="#p" />
<use x="360" y="351" xlink:href="#p" />
<use x="360" y="360" xlink:href="#p" />
<use x="360" y="369" xlink:href="#p" />
<use x="360" y="378" xlink:href="#p" />
<use x="360" y="396" xlink:href="#p" />
<use x="369" y="36" xlink:href="#p" />
<use x="369" y="54" xlink:href="#p" />
<use x="369" y="63" xlink:href="#p" />
<use x="369" y="72" xlink:href="#p" />
<use x="369" y="90" xlink:href="#p" />
<use x="369" y="117" xlink:href="#p" />
<use x="369" y="126" xlink:href="#p" />
<use x="369" y="135" xlink:href="#p" />
<use x="369" y="144" xlink:href="#p" />
<use x="369" y="162" xlink:href="#p" />
<use x="369" y="189" xlink:href="#p" />
<use x="369" y="198" xlink:href="#p" />
<use x="369" y="207" xlink:href="#p" />
<use x="369" y="234" xlink:href="#p" />
<use x="369" y="243" xlink:href="#p" />
<use x="369" y="252" xlink:href="#p" />
<use x="369" y="279" xlink:href="#p" />
<use x="369" y="297" xlink:href="#p" />
<use x="369" y="306" xlink:href="#p" />
<use x="369" y="315" xlink:href="#p" />
<use x="369" y="324" xlink:href="#p" />
<use x="369" y="360" xlink:href="#p" />
<use x="369" y="378" xlink:href="#p" />
<use x="378" y="36" xlink:href="#p" />
<use x="378" y="54" xlink:href="#p" />
<use x="378" y="63" xlink:href="#p" />
<use x="378" y="72" xlink:href="#p" />
<use x="378" y="90" xlink:href="#p" />
<use x="378" y="108" xlink:href="#p" />
<use x="378" y="126" xlink:href="#p" />
<use x="378" y="144" xlink:href="#p" />
<use x="378" y="171" xlink:href="#p" />
<use x="378" y="189" xlink:href="#p" />
<use x="378" y="198" xlink:href="#p" />
<use x="378" y="207" xlink:href="#p" />
<use x="378" y="216" xlink:href="#p" />
<use x="378" y="225" xlink:href="#p" />
<use x="378" y="234" xlink:href="#p" />
<use x="378" y="261" xlink:href="#p" />
<use x="378" y="279" xlink:href="#p" />
<use x="378" y="288" xlink:href="#p" />
<use x="378" y="297" xlink:href="#p" />
<use x="378" y="306" xlink:href="#p" />
<use x="378" y="315" xlink:href="#p" />
<use x="378" y="324" xlink:href="#p" />
<use x="378" y="378" xlink:href="#p" />
<use x="378" y="387" xlink:href="#p" />
<use x="387" y="36" xlink:href="#p" />
<use x="387" y="90" xlink:href="#p" />
<use x="387" y="108" xlink:href="#p" />
<use x="387" y="135" xlink:href="#p" />
<use x="387" y="171" xlink:href="#p" />
<use x="387" y="198" xlink:href="#p" />
<use x="387" y="216" xlink:href="#p" />
<use x="387" y="243" xlink:href="#p" />
<use x="387" y="252" xlink:href="#p" />
<use x="387" y="279" xlink:href="#p" />
<use x="387" y="288" xlink:href="#p" />
<use x="387" y="333" xlink:href="#p" />
<use x="387" y="342" xlink:href="#p" />
<use x="387" y="360" xlink:href="#p" />
<use x="396" y="36" xlink:href="#p" />
<use x="396" y="45" xlink:href="#p" />
<use x="396" y="54" xlink:href="#p" />
<use x="396" y="63" xlink:href="#p" />
<use x="396" y="72" xlink:href="#p" />
<use x="396" y="81" xlink:href="#p" />
<use x="396" y="90" xlink:href="#p" />
<use x="396" y="108" xlink:href="#p" />
<use x="396" y="135" xlink:href="#p" />
<use x="396" y="162" xlink:href="#p" />
<use x="396" y="171" xlink:href="#p" />
<use x="396" y="198" xlink:href="#p" />
<use x="396" y="207" xlink:href="#p" />
<use x="396" y="225" xlink:href="#p" />
<use x="396" y="252" xlink:href="#p" />
<use x="396" y="261" xlink:href="#p" />
<use x="396" y="270" xlink:href="#p" />
<use x="396" y="279" xlink:href="#p" />
<use x="396" y="297" xlink:href="#p" />
<use x="396" y="306" xlink:href="#p" />
<use x="396" y="324" xlink:href="#p" />
<use x="396" y="360" xlink:href="#p" />
<use x="396" y="369" xlink:href="#p" />
<use x="396" y="378" xlink:href="#p" />
<use x="396" y="387" xlink:href="#p" />
</g>
</svg>