<?xml version="1.0" encoding="UTF-8" standalone="no"?>
<svg width="3072px" height="3072px" viewBox="0 0 3072 3072" version="1.1" xmlns="http://www.w3.org/2000/svg" xmlns:xlink="http://www.w3.org/1999/xlink" xmlns:sketch="http://www.bohemiancoding.com/sketch/ns">
    <title>icons_social</title>
    <description>Created with Sketch (http://www.bohemiancoding.com/sketch)</description>
    <defs></defs>
    <g id="Page-1" stroke="none" stroke-width="1" fill="none" fill-rule="evenodd" sketch:type="MSPage">
        <path d="M256.464,-0.08 C115.088,-0.08 0.464,114.544 0.464,255.92 C0.464,397.328 115.088,511.92 256.464,511.92 C397.84,511.92 512.464,397.328 512.464,255.92 C512.464,114.544 397.84,-0.08 256.464,-0.08 L256.464,-0.08 Z M255.984,412.432 C169.344,412.432 100.096,342.096 100.096,255.44 C100.096,169.776 169.36,99.504 255.984,99.504 C342.624,99.504 412.976,169.84 412.976,255.44 C412.88,342.128 342.624,412.432 255.984,412.432 L255.984,412.432 Z M269.472,260.336 C266.464,254.56 263.696,247.808 261.792,242 C223.264,255.504 183.792,263.104 144.336,263.104 C138.576,263.104 132.672,262.112 126,262.112 C126.992,293.104 139.664,321.776 160.672,343.92 C186.704,304.576 225.184,275.744 269.472,260.336 Z M179.936,362.368 C203.056,377.776 229.04,386.432 255.984,386.432 C270.416,386.432 283.904,384.528 297.424,379.68 C294.496,346.816 287.76,315.216 278.368,285.344 C237.696,298.8 204.032,325.744 179.936,362.368 Z M346.464,162.128 C322.4,139.12 290.656,125.568 255.984,125.568 C244.432,125.568 233.84,127.472 222.32,130.56 C242.528,155.552 259.856,181.568 274.288,208.496 C300.272,196.784 324.32,181.376 346.464,162.128 Z M250.208,217.92 C235.776,190.944 217.488,164.944 196.304,139.92 C159.728,159.2 133.744,194.88 126.992,236.256 L144.32,236.256 C179.936,236.208 215.552,230.464 250.208,217.92 Z M303.152,278.576 C312.816,307.504 318.56,337.328 322.4,368.16 C354.16,349.824 376.304,318.096 384.064,281.504 C367.728,277.84 352.4,275.84 337.056,275.84 C326.24,275.744 314.736,276.64 303.152,278.576 Z M285.84,232.432 C288.768,239.152 291.584,246.768 294.496,253.44 C308.928,250.48 323.424,248.592 336.832,248.592 C353.168,248.592 369.568,251.6 386.896,255.344 C386.896,229.344 378.24,204.336 363.808,182.352 C339.728,202.512 312.784,219.856 285.84,232.432 Z" id="dribble" fill="#1D1D1B" sketch:type="MSShapeGroup"></path>
        <path d="M768,0 C626.608,0 512,114.544 512,256 C512,397.408 626.608,512 768,512 C909.392,512 1024,397.408 1024,256 C1024,114.544 909.376,0 768,0 L768,0 Z M827.472,255.952 L789.264,255.952 L789.264,394.32 L732.032,394.32 L732.032,255.952 L703.408,255.952 L703.408,208.288 L732.032,208.288 L732.032,179.632 C732.032,140.624 748.176,117.488 794.048,117.488 L832.368,117.488 L832.368,165.152 L808.656,165.152 C790.768,165.152 789.6,171.808 789.6,184.176 L789.52,208.064 L832.816,208.064 L827.472,255.952 L827.472,255.952 Z" id="facebook" fill="#1D1D1B" sketch:type="MSShapeGroup"></path>
        <path d="M1280.24,0.176 C1138.816,0.176 1024.24,114.8 1024.24,256.176 C1024.24,397.568 1138.816,512.176 1280.24,512.176 C1421.616,512.176 1536.24,397.568 1536.24,256.176 C1536.24,114.832 1421.616,0.176 1280.24,0.176 L1280.24,0.176 Z M1351.58578,283.113859 L1199.18218,192.505288 C1186.93578,185.171573 1185.45838,186.978431 1196.26298,196.561859 L1310.85938,298.224145 C1321.61058,307.683573 1340.15818,311.137859 1352.15538,305.983002 C1364.24158,300.757288 1363.95678,290.483002 1351.58578,283.113859 L1351.58578,283.113859 Z M1436.24,281.52 L1384.72,306.112 L1348.816,369.52 C1342.304,379.696 1330.272,381.008 1321.472,372.144 L1314.464,364.96 C1314.128,364.672 1313.84,364.544 1313.472,364.192 L1297.808,348.208 L1259.04,366.448 C1247.376,371.44 1233.696,366.48 1228.096,354.928 L1134.432,159.264 C1128.768,147.6 1134.096,141.984 1146.096,146.896 L1435.072,263.232 C1446.72,267.744 1447.168,275.952 1436.24,281.52 L1436.24,281.52 Z" id="telegram" fill="#1D1D1B" sketch:type="MSShapeGroup"></path>
        <path d="M1791.66408,-0.232 C1650.25608,-0.232 1535.66408,114.392 1535.66408,255.768 C1535.66408,397.224 1650.25608,511.768 1791.66408,511.768 C1933.04008,511.768 2047.66408,397.224 2047.66408,255.768 C2047.66408,114.424 1933.04008,-0.232 1791.66408,-0.232 L1791.66408,-0.232 Z M1744.46408,230.104 L1711.47208,230.104 C1708.52808,230.104 1705.96808,232.552 1705.96808,235.608 L1705.96808,345.672 C1705.96808,348.664 1708.52808,351.224 1711.47208,351.224 L1744.46408,351.224 C1747.40808,351.224 1750.00008,348.664 1750.00008,345.672 L1750.00008,235.608 C1749.98408,232.632 1747.39208,230.104 1744.46408,230.104 L1744.46408,230.104 Z M1834.54408,226.488 C1824.20808,226.488 1815.10408,229 1807.39208,234.152 C1805.98408,235.032 1805.13608,235.72 1805.05608,236.216 C1805.05608,232.072 1802.78408,229.944 1799.00808,229.944 L1768.67208,229.944 C1765.42408,229.944 1761.00808,231.752 1761.00808,234.84 L1761.00808,345.56 C1761.00808,348.568 1765.34408,351.064 1768.67208,351.064 L1799.98408,351.064 C1802.73608,351.064 1804.97608,348.584 1804.97608,345.56 L1804.97608,285.56 C1804.97608,269.56 1811.45608,261.496 1824.64008,261.496 C1835.82408,261.496 1838.08008,266.312 1838.08008,277.912 L1838.08008,345.56 C1838.08008,348.568 1841.32808,351.064 1844.57608,351.064 L1876.57608,351.064 C1879.48808,351.064 1882.08008,348.584 1882.08008,345.56 L1882.08008,270.712 C1882.01608,241.72 1864.08008,226.488 1834.54408,226.488 L1834.54408,226.488 Z M1727.08808,217.688 C1733.12008,217.688 1738.09608,215.624 1742.09608,211.352 C1746.43208,207.128 1748.43208,202.344 1748.43208,196.344 C1748.43208,184.68 1738.80008,175 1727.12008,175 C1715.45608,175 1706.00008,184.664 1706.00008,196.344 C1705.96808,208.104 1715.39208,217.688 1727.08808,217.688 L1727.08808,217.688 Z M1923.69608,338.36 C1923.69608,365.672 1901.53608,387.912 1874.19208,387.912 L1709.13608,387.912 C1681.79208,387.912 1659.60008,365.672 1659.60008,338.36 L1659.60008,173.32 C1659.60008,146.008 1681.79208,123.736 1709.13608,123.736 L1874.19208,123.736 C1901.53608,123.736 1923.69608,146.008 1923.69608,173.32 L1923.69608,338.36 L1923.69608,338.36 Z" id="linkedin" fill="#1D1D1B" sketch:type="MSShapeGroup"></path>
        <path d="M2148.128,385.656 C2144.032,392.664 2142,400.904 2142,409.992 C2142,430.68 2153.664,447.656 2171.344,456.616 C2188.624,465.928 2208.16,470.408 2227.504,470.408 C2245.472,470.408 2261.632,466.744 2275.92,458.648 C2290.256,450.712 2298.928,436.312 2298.928,416.984 C2298.928,410.648 2297.328,404.504 2295.92,399.368 C2295.056,396.952 2293.712,394.376 2292.096,391.704 C2290.032,388.936 2288.432,386.712 2287.312,384.696 C2284.368,381.032 2277.648,375.032 2274.976,372.344 C2272,369.864 2263.184,363.304 2260.64,361.336 C2257.92,359.672 2247.92,352.424 2246.112,351.336 C2243.616,351.032 2239.744,351 2234.736,351 C2218.368,351 2203.072,352.664 2186.08,358.28 C2169.04,363.592 2156.304,371.32 2148.128,385.656 Z M2271.744,221.016 C2271.744,202.824 2266.72,181.368 2257.408,162.328 C2248.064,143.32 2231.008,129.336 2211.008,129.336 C2182.816,129.336 2166.672,153.608 2166.672,182.552 C2166.672,196.888 2170.08,212.936 2177.36,228.712 C2184.64,244.376 2193.952,257.368 2207.696,265.336 C2214.704,269.16 2222.032,271.24 2229.792,271.24 C2259.36,271.288 2271.744,251.288 2271.744,221.016 Z M2303.744,-0.232 C2162.368,-0.232 2047.744,114.392 2047.744,255.768 C2047.744,314.424 2067.488,368.536 2100.736,411.64 C2103.52,395.016 2113.728,376.424 2130.24,364.536 C2149.552,350.36 2175.904,343.768 2198.464,340.2 C2209.584,338.536 2220.96,337.304 2232.768,337.192 C2223.024,324.696 2218.24,313.32 2218.24,303.32 C2218.24,299.656 2218.928,296.04 2219.84,293.656 C2220.832,291.176 2222.592,286.376 2223.248,283.912 C2217.12,284.616 2211.904,285 2207.392,285 C2162.272,285 2125.056,251.592 2125.056,206.664 C2125.056,164.312 2157.808,127 2199.872,117.672 C2214.208,114.664 2228.304,113.112 2242.4,113.112 L2341.776,113.112 L2311.056,131.08 L2280.368,131.08 C2301.968,144.744 2314.24,171.48 2314.24,198.088 C2314.24,220.568 2306.304,238.424 2296.272,249.096 C2291.28,254.312 2286.272,259.368 2281.264,263.624 C2271.264,272.616 2263.296,281.96 2263.296,292.968 C2263.296,300.936 2268.928,308.44 2276.96,315.32 C2280.832,318.904 2285.296,322.328 2290.112,326.328 C2299.776,333.832 2309.776,343.176 2317.936,353.912 C2325.888,364.92 2331.52,380.248 2331.52,397.576 C2331.52,445.912 2285.184,491.368 2204.176,491.368 L2203.776,491.368 C2234.624,504.376 2268.528,511.704 2304.112,511.704 C2445.568,511.704 2560.112,397.08 2560.112,255.704 C2559.744,114.424 2445.072,-0.232 2303.744,-0.232 Z M2478.304,200.328 L2420.08,200.328 L2420.08,258.6 L2390.992,258.6 L2390.992,200.328 L2332.768,200.328 L2332.768,171.288 L2390.992,171.288 L2390.992,112.984 L2420.08,112.984 L2420.08,171.288 L2478.304,171.288 L2478.304,200.328 L2478.304,200.328 Z" id="gplus2" fill="#1D1D1B" sketch:type="MSShapeGroup"></path>
        <path d="M2816,0 C2674.608,0 2560,114.608 2560,256 C2560,397.44 2674.608,512 2816,512 C2957.392,512 3072,397.44 3072,256 C3072,114.656 2957.392,0 2816,0 L2816,0 Z M2672.848,302.896 C2672.848,310.736 2670.336,313.232 2664.144,314.32 C2657.952,315.456 2650.048,311.888 2650.048,302.896 L2650.048,258.048 C2650.048,251.712 2655.152,246.64 2661.456,246.64 C2667.792,246.64 2672.848,251.68 2672.848,258.048 L2672.848,302.896 L2672.848,302.896 L2672.848,302.896 Z M2708.32,322 C2708.32,328.32 2703.216,331.04 2696.8,331.04 C2690.496,331.04 2685.408,328.176 2685.408,322 L2685.408,217.728 C2685.408,211.392 2690.496,206.24 2696.8,206.24 C2703.136,206.24 2708.32,211.328 2708.32,217.728 L2708.32,322 L2708.32,322 Z M2743.824,326.96 C2743.824,333.296 2738.736,335.952 2732.432,335.952 C2726.096,335.952 2721.04,333.328 2721.04,326.96 L2721.04,231.552 C2721.04,225.216 2726.032,220.144 2732.432,220.144 C2738.736,220.144 2743.824,225.184 2743.824,231.552 L2743.824,326.96 L2743.824,326.96 Z M2779.344,327.488 C2779.344,333.824 2774.24,335.824 2767.952,335.824 C2761.616,335.824 2756.528,333.728 2756.528,327.488 L2756.528,172.928 C2756.528,162.208 2765.488,156.864 2771.536,158.32 C2777.744,159.792 2779.264,166.656 2779.264,172.928 L2779.344,327.488 L2779.344,327.488 Z M2929.792,335.856 C2929.008,335.856 2828.128,335.792 2795.44,335.76 C2792.112,334.656 2792.624,331.072 2792.624,331.072 L2792.624,163.856 C2792.624,156.784 2796.128,154.752 2797.472,154.192 C2804.064,152.72 2810.976,151.856 2818,151.856 C2866.08,151.856 2905.488,188.784 2909.648,235.712 C2915.968,233.056 2922.656,231.584 2929.936,231.584 C2958.736,231.584 2982.08,254.928 2982.08,283.792 C2981.936,312.512 2958.592,335.856 2929.792,335.856 L2929.792,335.856 Z" id="soundcloud" fill="#1D1D1B" sketch:type="MSShapeGroup"></path>
        <path d="M255.984,512 C114.608,512 0,626.624 0,768 C0,909.456 114.608,1024 255.984,1024 C397.44,1024 511.984,909.456 511.984,768 C511.984,626.656 397.328,512 255.984,512 L255.984,512 Z M416.656,690.224 C409.456,701.888 399.664,712.56 386.688,722.048 L386.688,727.6 C387.68,778.496 362.352,844.592 303.456,881.936 C273.968,900.736 241.12,910.144 204.448,910.144 C174.784,910.144 147.008,903.184 120.736,889.808 C113.696,886.144 108.672,883.36 106.288,881.472 C104.624,880.128 103.888,878.624 103.888,877.024 C103.888,874.096 106.288,871.68 109.248,871.68 C110.768,871.68 113.264,871.92 116.624,872.016 C119.968,872.352 122.48,872.384 124.16,872.384 C147.024,872.384 167.856,866.672 187.024,854.72 C164.016,849.376 145.424,832.336 138.048,809.728 C137.888,808.832 137.712,808.192 137.712,808.016 C137.712,805.328 140.048,802.88 142.752,802.88 C143.248,802.88 144.096,803.12 145.088,803.216 C146.08,803.472 146.752,803.552 147.088,803.552 C127.152,791.232 114.432,769.36 114.432,746.112 C114.432,742.736 117.44,740.048 120.768,740.048 C121.888,740.048 123.776,740.736 126.592,741.76 C129.6,743.104 131.088,744.096 131.6,744.096 C121.264,731.76 116.176,717.472 116.176,701.136 C116.176,689.664 119.52,675.552 125.2,667.136 C126.336,665.376 127.664,664.384 129.536,664.384 C131.2,664.384 132.88,665.136 133.872,666.48 C142.352,675.904 148.416,682.144 152.224,685.632 C179.696,710.56 214.88,725.664 251.52,728.8 C251.04,726.464 250.864,723.808 250.864,720.544 C250.864,683.2 281.2,652.88 318.528,652.88 C336.864,652.88 352.528,659.216 365.728,671.888 C376.256,669.584 388.064,664.88 400.736,658.224 C401.648,657.888 402.448,657.328 403.44,657.328 C406.336,657.328 408.864,659.824 408.864,662.672 C408.864,668.048 400.736,681.68 395.616,687.664 C397.2,687.248 403.28,684.672 407.92,683.216 C410.256,682.256 411.584,682.064 411.92,682.064 C414.928,682.064 417.296,684.56 417.296,687.44 C417.552,688.48 417.2,689.456 416.656,690.224 L416.656,690.224 Z" id="twitter" fill="#1D1D1B" sketch:type="MSShapeGroup"></path>
        <path d="M670,641.259622 C652.747728,645.698246 640,661.354067 640,680 L640,856 C640,878.09139 657.899674,896 680,896 L856,896 C878.09139,896 896,878.100326 896,856 L896,680 C896,657.90861 878.100326,640 856,640 L691,640 L691,670.999968 C691,673.754469 688.759927,676 685.996657,676 L675.003343,676 C672.247368,676 670,673.761409 670,670.999968 L670,641.259622 Z M677.744449,738.374194 L640,738.374194 L640,705.341935 L696.634232,705.341935 C714.039047,685.534061 739.559546,673.032258 768,673.032258 C796.440454,673.032258 821.960953,685.534061 839.365768,705.341935 L896,705.341935 L896,738.374194 L858.255551,738.374194 C861.313663,747.696433 862.967742,757.655051 862.967742,768 C862.967742,820.449238 820.449238,862.967742 768,862.967742 C715.550762,862.967742 673.032258,820.449238 673.032258,768 C673.032258,757.655051 674.686337,747.696433 677.744449,738.374194 L677.744449,738.374194 Z M857.963017,660.032258 C853.547349,660.032258 849.967742,663.620149 849.967742,668.027533 L849.967742,678.036983 C849.967742,682.452651 853.555633,686.032258 857.963017,686.032258 L867.972467,686.032258 C872.388135,686.032258 875.967742,682.444367 875.967742,678.036983 L875.967742,668.027533 C875.967742,663.611865 872.379851,660.032258 867.972467,660.032258 L857.963017,660.032258 Z M768,829.212903 C802.206025,829.212903 829.935484,801.483444 829.935484,767.277419 C829.935484,733.071394 802.206025,705.341935 768,705.341935 C733.793975,705.341935 706.064516,733.071394 706.064516,767.277419 C706.064516,801.483444 733.793975,829.212903 768,829.212903 Z M784.516129,754.890323 C793.637736,754.890323 801.032258,747.4958 801.032258,738.374194 C801.032258,729.252587 793.637736,721.858065 784.516129,721.858065 C775.394522,721.858065 768,729.252587 768,738.374194 C768,747.4958 775.394522,754.890323 784.516129,754.890323 Z M512,768 C512,909.456 626.611582,1024 767.992,1024 C909.45242,1024 1024,909.456 1024,768 C1024,626.656 909.340417,512 767.992,512 C626.611582,512 512,626.624 512,768 Z" id="instagram2" fill="#000000" sketch:type="MSShapeGroup"></path>
        <path d="M1178,642.517395 C1162.81333,648.190279 1152,662.82695 1152,680 L1152,856 C1152,878.09139 1169.89967,896 1192,896 L1368,896 C1390.09139,896 1408,878.100326 1408,856 L1408,680 C1408,657.90861 1390.10033,640 1368,640 L1202,640 L1202,677.003468 C1202,678.662621 1200.66084,680 1199.00891,680 L1180.99109,680 C1179.34177,680 1178,678.658407 1178,677.003468 L1178,642.517395 Z M1189.82334,738.032258 L1152,738.032258 L1152,705 L1208.89302,705 C1226.29677,685.371224 1251.70366,673 1280,673 C1308.29634,673 1333.70323,685.371224 1351.10698,705 L1408,705 L1408,738.032258 L1370.17666,738.032258 C1373.30584,747.453047 1375,757.528677 1375,768 C1375,820.467054 1332.46705,863 1280,863 C1227.53295,863 1185,820.467054 1185,768 C1185,757.528677 1186.69416,747.453047 1189.82334,738.032258 L1189.82334,738.032258 Z M1362.32362,656.516129 C1359.00934,656.516129 1356.32258,659.205292 1356.32258,662.517173 L1356.32258,683.547344 C1356.32258,686.861628 1359.01174,689.548387 1362.32362,689.548387 L1383.3538,689.548387 C1386.66808,689.548387 1389.35484,686.859224 1389.35484,683.547344 L1389.35484,662.517173 C1389.35484,659.202888 1386.66568,656.516129 1383.3538,656.516129 L1362.32362,656.516129 Z M1280,834 C1316.4508,834 1346,804.450795 1346,768 C1346,731.549205 1316.4508,702 1280,702 C1243.5492,702 1214,731.549205 1214,768 C1214,804.450795 1243.5492,834 1280,834 Z M1279.992,512 C1138.61158,512 1024,626.624 1024,768 C1024,909.456 1138.61158,1024 1279.992,1024 C1421.45242,1024 1536,909.456 1536,768 C1536,626.656 1421.34042,512 1279.992,512 L1279.992,512 Z" id="instagram" fill="#000000" sketch:type="MSShapeGroup"></path>
        <path d="M1792,512 C1650.608,512 1536,626.624 1536,768 C1536,909.456 1650.608,1024 1792,1024 C1933.392,1024 2048,909.456 2048,768 C2048,626.656 1933.392,512 1792,512 L1792,512 Z M1773.072,710.768 C1769.184,711.904 1764.384,713.12 1758.384,714.624 C1760.496,720.288 1761.392,725.488 1761.392,730.272 C1761.392,761.92 1742.384,785.344 1711.36,791.312 C1701.584,792.896 1696.672,798.32 1696.672,806.976 C1696.672,816.752 1708.352,822.16 1723.04,825.936 C1730.528,827.6 1737.728,829.808 1745.216,832.272 C1759.888,837.312 1771.552,849.312 1771.552,868.608 C1771.552,906.08 1749.168,924.64 1704.512,924.64 C1692.848,924.64 1682.048,923.456 1672.464,920.768 C1653.296,915.776 1636.512,900.08 1636.512,876.112 C1636.512,855.776 1647.888,841.952 1670.336,834.448 L1670.336,833.456 C1662.144,828.464 1658,820.912 1658,810.448 C1658,796.816 1661.904,788.128 1669.392,784.816 L1669.392,783.824 C1651.728,777.856 1638.528,753.296 1638.528,733.2 C1638.528,698.816 1665.184,673.296 1699.552,673.296 C1711.552,673.296 1722.56,676.304 1732.544,681.984 C1743.92,681.984 1757.408,678.976 1772.976,673.296 L1773.072,710.768 L1773.072,710.768 Z M1831.808,836.288 L1790.816,836.288 C1791.296,830.88 1791.808,822.784 1791.808,811.84 L1791.808,698.848 C1791.808,688.464 1791.472,680.288 1790.816,675.184 L1831.808,675.184 C1831.472,678.32 1831.2,686.192 1831.2,697.968 L1831.2,809.44 C1831.2,823.424 1831.424,832.448 1831.808,836.288 L1831.808,836.288 Z M1811.408,646.624 C1797.328,646.624 1785.936,634.288 1785.936,619.968 C1785.936,605.28 1797.008,592.688 1811.408,592.688 C1825.808,592.688 1836.576,605.648 1836.576,619.968 C1836.608,634 1825.424,646.624 1811.408,646.624 L1811.408,646.624 Z M1943.264,831.52 C1934.576,836.512 1923.792,838.656 1910.928,838.656 C1903.264,838.656 1896.752,837.52 1891.152,834.992 C1880.064,830.144 1874.368,823.04 1870.816,811.04 C1867.152,799.376 1866.512,789.824 1866.512,775.168 L1866.512,710.176 L1867.104,710.176 L1867.104,709.584 C1866.112,709.584 1865.296,709.584 1863.808,709.248 L1860.144,709.248 C1859.808,709.248 1856.352,709.584 1849.136,710.24 L1849.136,675.232 L1867.12,675.232 L1867.12,661.008 C1867.12,654.672 1866.784,649.344 1865.92,644.672 L1907.872,644.672 C1907.28,648.576 1906.96,658.8 1906.96,675.232 L1938.432,675.232 L1938.432,710.24 C1936.64,710.24 1933.936,710.24 1930.64,709.904 C1927.04,709.568 1924.336,709.568 1922.56,709.568 L1906.96,709.568 L1906.96,777.008 C1906.96,793.424 1912.368,801.568 1922.752,801.568 C1930.336,801.568 1937.088,799.424 1943.088,795.232 L1943.264,831.52 Z M1701.168,706.56 C1685.888,706.56 1678.16,715.552 1678.16,733.568 C1678.16,750.416 1685.84,758.672 1701.168,758.672 C1715.856,758.672 1723.344,750.336 1723.344,733.168 C1723.312,718.544 1715.456,706.56 1701.168,706.56 Z M1674.112,873.792 C1674.112,886.368 1684.976,892.72 1706.176,892.72 C1724.752,892.72 1733.872,886.16 1733.872,872.976 C1733.872,860.64 1723.68,854.64 1703.472,854.64 C1684.048,854.592 1674.112,860.88 1674.112,873.792 Z" id="github3" fill="#1D1D1B" sketch:type="MSShapeGroup"></path>
        <path d="M2193.34835,836.66268 C2193.34835,837.508971 2192.38027,838.192466 2191.18726,838.192466 C2189.99301,838.192466 2189.02617,837.507728 2189.02617,836.66268 C2189.02617,835.813903 2189.99301,835.129165 2191.18726,835.129165 C2192.38027,835.129165 2193.34835,835.813903 2193.34835,836.66268 L2193.34835,836.66268 Z M2196.33212,840.160932 C2194.93654,840.160932 2193.80443,840.964971 2193.80443,841.952932 C2193.80443,842.943379 2194.93654,843.746175 2196.33212,843.746175 C2197.72645,843.746175 2198.85732,842.943379 2198.85732,841.952932 C2198.85856,840.966214 2197.72645,840.160932 2196.33212,840.160932 L2196.33212,840.160932 Z M2208.56047,851.968 C2206.83682,851.968 2205.43876,852.960932 2205.43876,854.182524 C2205.43876,855.405359 2206.83682,856.394563 2208.56047,856.394563 C2210.28287,856.394563 2211.68093,855.405359 2211.68093,854.182524 C2211.68093,852.960932 2210.28287,851.968 2208.56047,851.968 L2208.56047,851.968 Z M2180.67386,827.655456 C2179.75798,827.655456 2179.01483,828.182369 2179.01483,828.832311 C2179.01483,829.479767 2179.75798,830.00668 2180.67386,830.00668 C2181.58975,830.00668 2182.33289,829.479767 2182.33289,828.832311 C2182.33289,828.182369 2181.58975,827.655456 2180.67386,827.655456 L2180.67386,827.655456 Z M2185.89328,830.953631 C2184.8755,830.953631 2184.04909,831.540194 2184.04909,832.262214 C2184.04909,832.98299 2184.8755,833.568311 2185.89328,833.568311 C2186.90858,833.568311 2187.73499,832.98299 2187.73499,832.262214 C2187.73499,831.540194 2186.90858,830.953631 2185.89328,830.953631 L2185.89328,830.953631 Z M2201.99891,846.03899 C2200.448,846.03899 2199.19037,846.932505 2199.19037,848.032311 C2199.19037,849.134602 2200.448,850.025631 2201.99891,850.025631 C2203.54983,850.025631 2204.8087,849.134602 2204.8087,848.032311 C2204.8087,846.932505 2203.54983,846.03899 2201.99891,846.03899 L2201.99891,846.03899 Z M2560,768 C2560,909.38532 2445.38532,1024 2304,1024 C2162.61468,1024 2048,909.38532 2048,768 C2048,626.61468 2162.61468,512 2304,512 C2445.38532,512 2560,626.61468 2560,768 L2560,768 Z M2428.15006,781.488466 C2428.90066,779.797126 2429.64381,778.097087 2430.28629,776.311301 C2450.32016,774.704466 2470.95922,774.862291 2491.72008,776.879223 L2492.0494,773.461748 C2471.56443,771.473398 2451.18757,771.296932 2431.3948,772.808078 C2434.57616,762.655068 2436.25258,751.187262 2436.13204,738.144932 C2435.87107,710.439767 2426.6327,688.861204 2412.11526,670.953631 C2414.90268,654.086214 2412.80249,637.218796 2407.54082,620.345165 C2386.79487,622.043961 2368.12303,628.837903 2351.49794,640.642485 C2320.4275,634.339417 2289.36078,633.938019 2258.28909,640.642485 C2238.89771,627.554175 2219.85429,621.135534 2201.1054,620.345165 C2195.54796,638.925049 2194.69173,657.23899 2199.39045,675.244738 C2183.03379,692.600544 2176.78291,713.669592 2177.08986,736.999146 C2177.26509,750.354641 2179.32179,762.238757 2183.11953,772.745942 C2163.61631,771.315573 2143.57002,771.506951 2123.40816,773.460505 L2123.73872,776.877981 C2144.26967,774.88466 2164.68256,774.720621 2184.51014,776.271534 C2185.23837,778.036194 2185.97033,779.795883 2186.80668,781.476039 C2165.32381,780.909359 2145.98959,782.775922 2127.88318,787.228583 L2128.69965,790.559068 C2147.07697,786.043029 2166.76412,784.223689 2188.74408,784.96435 C2203.28016,810.789282 2231.26369,825.964117 2272.01367,830.77965 C2262.54664,838.469592 2257.45647,847.538951 2256.1454,857.802563 L2234.56311,857.802563 C2205.57794,857.802563 2197.6755,820.845359 2167.6539,824.490252 C2196.7795,838.934369 2190.96233,885.101359 2237.568,885.101359 L2257.14827,885.101359 L2257.14827,927.420893 C2257.35581,934.259573 2254.37825,938.832777 2249.57017,942.001709 C2266.26113,943.685592 2278.80388,935.353165 2278.80388,925.133049 L2278.80388,869.19332 C2278.80388,864.210019 2284.02206,863.824777 2284.02206,863.824777 L2284.02206,929.135845 C2284.24326,935.635262 2281.08427,939.329864 2277.73142,942.860427 C2292.4365,943.44699 2306.26796,940.509204 2306.89429,927.995029 L2306.89429,865.487534 C2306.89429,862.345942 2312.04536,862.26765 2312.04536,865.487534 L2312.04536,925.060971 C2312.19697,935.619107 2321.31604,944.178951 2340.63534,942.859184 C2335.46687,938.698563 2333.87992,934.494447 2333.87992,928.408854 L2333.87992,863.823534 C2333.87992,863.823534 2339.20497,863.551379 2339.20497,869.192078 L2339.20497,923.665398 C2339.20497,935.789359 2353.75845,940.791301 2370.36862,940.320311 C2364.92676,936.244194 2361.24334,931.38268 2361.22097,924.880777 L2361.22097,859.370874 C2360.65926,849.742291 2356.74346,840.664233 2349.06843,832.207534 C2386.31891,826.487301 2413.1666,811.619417 2426.53577,784.968078 C2448.58781,784.211262 2468.3346,786.025631 2486.75915,790.55534 L2487.57685,787.224854 C2469.32878,782.742369 2449.8355,780.878291 2428.15006,781.488466 L2428.15006,781.488466 Z M2251.47029,861.376621 C2249.5565,861.376621 2248.00311,862.481398 2248.00311,863.838447 C2248.00311,865.195495 2249.5565,866.297786 2251.47029,866.297786 C2253.38532,866.297786 2254.93748,865.195495 2254.93748,863.838447 C2254.93748,862.481398 2253.38532,861.376621 2251.47029,861.376621 L2251.47029,861.376621 Z M2240.0261,861.154175 C2238.11107,861.154175 2236.56016,862.257709 2236.56016,863.616 C2236.56016,864.973049 2238.11107,866.07534 2240.0261,866.07534 C2241.93988,866.07534 2243.49328,864.973049 2243.49328,863.616 C2243.49328,862.257709 2241.93988,861.154175 2240.0261,861.154175 L2240.0261,861.154175 Z M2228.43029,860.780117 C2226.5165,860.780117 2224.96311,861.88365 2224.96311,863.241942 C2224.96311,864.59899 2226.5165,865.701282 2228.43029,865.701282 C2230.34656,865.701282 2231.89748,864.59899 2231.89748,863.241942 C2231.89748,861.88365 2230.34656,860.780117 2228.43029,860.780117 L2228.43029,860.780117 Z M2217.43472,857.536621 C2215.51845,857.536621 2213.96629,858.640155 2213.96629,859.997204 C2213.96629,861.356738 2215.51845,862.457786 2217.43472,862.457786 C2219.3485,862.457786 2220.90066,861.355495 2220.90066,859.997204 C2220.90066,858.640155 2219.3485,857.536621 2217.43472,857.536621 L2217.43472,857.536621 Z" id="github" fill="#000000" sketch:type="MSShapeGroup"></path>
        <path d="M2816,512 C2674.61468,512 2560,626.61468 2560,768 C2560,909.38532 2674.61468,1024 2816,1024 C2957.38532,1024 3072,909.38532 3072,768 C3072,626.61468 2957.38532,512 2816,512 L2816,512 Z M2900.42408,857.6 C2836.50361,857.6 2814.33476,828.781359 2802.51402,792.942602 L2790.6908,755.994097 C2781.82151,729.020893 2771.47464,707.960544 2738.96264,707.960544 C2716.42097,707.960544 2693.51394,724.217786 2693.51394,769.662757 C2693.51394,805.13367 2711.61786,827.303767 2737.11596,827.303767 C2765.93212,827.303767 2785.14703,805.871845 2785.14703,805.871845 L2796.97274,838.017243 C2796.97274,838.017243 2777.01592,857.597515 2735.26928,857.597515 C2683.54113,857.597515 2654.72124,827.303767 2654.72124,771.139107 C2654.72124,712.762408 2683.54113,678.401243 2737.85414,678.401243 C2786.99495,678.401243 2811.75487,696.136078 2827.26897,744.169631 L2839.46252,781.114408 C2848.33181,808.090097 2863.84839,827.670369 2901.1635,827.670369 C2926.29002,827.670369 2939.58835,822.129087 2939.58835,808.459184 C2939.58835,797.743223 2933.31138,789.984932 2914.4668,785.548427 L2889.34027,779.638058 C2858.67495,772.250097 2846.4814,756.361942 2846.4814,731.23666 C2846.4814,690.961398 2878.99588,678.4 2912.25103,678.4 C2949.93771,678.4 2972.84598,692.069903 2975.79992,725.322563 L2938.8539,729.757825 C2937.37383,713.86967 2927.76885,707.217398 2910.03402,707.217398 C2893.77429,707.217398 2883.79899,714.609087 2883.79899,727.171728 C2883.79899,738.254291 2888.60458,744.906563 2904.85934,748.601165 L2928.50454,753.773359 C2960.28085,761.163806 2977.28124,776.682874 2977.28124,806.610019 C2977.28,843.56101 2946.24435,857.6 2900.42408,857.6 L2900.42408,857.6 Z" id="lastfm" fill="#000000" sketch:type="MSShapeGroup"></path>
        <path d="M345.06066,1317.90913 C345.06066,1358.69887 312.410718,1385.43348 263.668816,1385.43348 C220.804971,1385.43348 177.719922,1365.99984 177.938641,1332.54338 C178.004505,1322.45126 185.542835,1313.18431 195.569087,1313.18431 C220.806214,1313.18431 220.573825,1350.69204 260.762097,1350.69204 C288.963107,1350.69204 298.584233,1335.30843 298.584233,1324.59247 C298.584233,1285.87557 176.718291,1309.6115 176.718291,1236.78819 C176.718291,1197.38035 209.09732,1170.19216 259.985398,1173.18089 C308.522252,1176.03169 336.956893,1197.37911 339.713243,1217.32101 C341.072777,1230.34346 332.406058,1240.47534 317.369165,1240.47534 C295.417786,1240.47534 293.169709,1211.20683 255.374913,1211.20683 C238.318602,1211.20683 223.917981,1218.29282 223.917981,1233.67643 C223.915495,1265.82555 345.06066,1247.15868 345.06066,1317.90913 L345.06066,1317.90913 Z M512,1280 C512,1421.38532 397.38532,1536 256,1536 C114.61468,1536 0,1421.38532 0,1280 C0,1138.61468 114.61468,1024 256,1024 C397.38532,1024 512,1138.61468 512,1280 L512,1280 Z M419.764194,1352.71394 C419.764194,1335.70361 414.913864,1319.83161 406.544155,1306.37918 C408.045359,1297.84544 408.875495,1289.08303 408.875495,1280.11806 C408.875495,1196.99511 341.486602,1129.60994 258.36365,1129.60994 C248.89165,1129.60994 239.637126,1130.52458 230.648544,1132.19977 C217.356427,1124.10594 201.746641,1119.4445 185.044505,1119.4445 C136.528777,1119.4445 97.2041942,1158.77033 97.2041942,1207.28482 C97.2041942,1224.19324 101.993631,1239.97701 110.26765,1253.37724 C108.709282,1262.0626 107.853049,1270.98532 107.853049,1280.1193 C107.853049,1363.24722 175.239456,1430.63363 258.36365,1430.63363 C268.012117,1430.63363 277.43068,1429.68917 286.569631,1427.95433 C299.810796,1435.95495 315.327379,1440.56047 331.925126,1440.56047 C380.437126,1440.55674 419.764194,1401.22843 419.764194,1352.71394 L419.764194,1352.71394 Z" id="skype" fill="#000000" sketch:type="MSShapeGroup"></path>
        <path d="M768,1024 C626.61468,1024 512,1138.61468 512,1280 C512,1421.38532 626.61468,1536 768,1536 C909.38532,1536 1024,1421.38532 1024,1280 C1024,1138.61468 909.38532,1024 768,1024 L768,1024 Z M867.163961,1419.03907 C854.071922,1425.20171 842.217631,1429.5127 831.613515,1431.99317 C821.004427,1434.46369 809.529165,1435.70144 797.19767,1435.70144 C783.199689,1435.70144 770.824699,1433.93181 760.068971,1430.40373 C749.303301,1426.86695 740.12334,1421.8327 732.534058,1415.28854 C724.936078,1408.74439 719.665709,1401.78641 716.735379,1394.41709 C713.797592,1387.0515 712.336155,1376.3753 712.336155,1362.38353 L712.336155,1254.99402 L678.779029,1254.99402 L678.779029,1211.33608 C690.77499,1207.43146 701.043573,1201.83052 709.595961,1194.54198 C718.152078,1187.24971 725.011883,1178.50097 730.182835,1168.27464 C735.357515,1158.05452 738.920388,1145.05942 740.873942,1129.26819 L784.293282,1129.26819 L784.293282,1206.88839 L857.059417,1206.88839 L857.059417,1254.99278 L784.293282,1254.99278 L784.293282,1333.5885 C784.293282,1351.35192 785.229049,1362.75883 787.11301,1367.80179 C788.996971,1372.84722 792.498951,1376.87736 797.615223,1379.87977 C804.386796,1383.95216 812.142602,1385.98151 820.872699,1385.98151 C836.37934,1385.98151 851.811417,1380.93483 867.165204,1370.84769 L867.165204,1419.03907 L867.163961,1419.03907 Z" id="tumblr" fill="#000000" sketch:type="MSShapeGroup"></path>
        <path d="M1280,1024 C1138.61468,1024 1024,1138.61468 1024,1280 C1024,1421.38532 1138.61468,1536 1280,1536 C1421.38532,1536 1536,1421.38532 1536,1280 C1536,1138.61468 1421.38532,1024 1280,1024 L1280,1024 Z M1429.33872,1224.92272 C1427.96676,1254.76163 1407.13631,1295.62097 1366.84241,1347.48085 C1325.17779,1401.64971 1289.92683,1428.736 1261.09452,1428.736 C1243.2379,1428.736 1228.11775,1412.24761 1215.77134,1379.25095 C1207.52466,1349.00816 1199.28171,1318.76536 1191.04,1288.52381 C1181.87122,1255.54454 1172.03635,1239.03751 1161.51798,1239.03751 C1159.22765,1239.03751 1151.20342,1243.86423 1137.47138,1253.47542 L1123.05336,1234.89553 C1138.17476,1221.60342 1153.09483,1208.3113 1167.77258,1195.00179 C1187.94066,1177.56893 1203.08318,1168.39891 1213.17654,1167.47184 C1237.02307,1165.18151 1251.70454,1181.48847 1257.21351,1216.39767 C1263.16365,1254.0595 1267.28699,1277.4835 1269.59969,1286.65103 C1276.47441,1317.90043 1284.03511,1333.50773 1292.29918,1333.50773 C1298.71285,1333.50773 1308.34641,1323.37212 1321.19487,1303.10338 C1334.02221,1282.83216 1340.90315,1267.41002 1341.82649,1256.81336 C1343.6595,1239.31837 1336.77856,1230.55099 1321.19487,1230.55099 C1313.85662,1230.55099 1306.29592,1232.24109 1298.51402,1235.57779 C1313.57452,1186.23317 1342.34718,1162.26361 1384.81709,1163.62936 C1416.30509,1164.55891 1431.14687,1184.98672 1429.33872,1224.92272 L1429.33872,1224.92272 Z" id="vimeo" fill="#000000" sketch:type="MSShapeGroup"></path>
        <path d="M1792,1024 C1650.61468,1024 1536,1138.61468 1536,1280 C1536,1421.38532 1650.61468,1536 1792,1536 C1933.38532,1536 2048,1421.38532 2048,1280 C2048,1138.61468 1933.38532,1024 1792,1024 L1792,1024 Z M1754.45996,1197.75317 L1859.86983,1259.92513 L1846.59014,1282.43573 L1741.17406,1220.2588 L1754.45996,1197.75317 L1754.45996,1197.75317 Z M1726.26019,1258.05483 L1844.44148,1289.82245 L1837.65996,1315.06454 L1719.47247,1283.2932 L1726.26019,1258.05483 L1726.26019,1258.05483 Z M1714.54012,1312.70214 L1836.40109,1323.9301 L1834.00637,1349.95014 L1712.14167,1338.7346 L1714.54012,1312.70214 L1714.54012,1312.70214 Z M1833.44342,1357.44249 L1833.46082,1383.5868 L1711.07666,1383.64272 L1711.06548,1357.50711 L1833.44342,1357.44249 L1833.44342,1357.44249 Z M1875.04342,1424.96559 L1672.81709,1424.96559 L1672.81709,1297.60683 L1693.72334,1297.60683 L1693.72334,1404.45825 L1854.2428,1404.45825 L1854.2428,1297.60683 L1875.04342,1297.60683 L1875.04342,1424.96559 L1875.04342,1424.96559 Z M1864.12241,1256.33864 L1795.16769,1155.23107 L1816.76614,1140.5061 L1885.71588,1241.61864 L1864.12241,1256.33864 L1864.12241,1256.33864 Z M1890.39845,1240.03045 L1869.46485,1119.45569 L1895.22019,1114.98563 L1916.15627,1235.56039 L1890.39845,1240.03045 L1890.39845,1240.03045 Z" id="stackoverflow" fill="#000000" sketch:type="MSShapeGroup"></path>
        <path d="M2304,1024 C2162.61468,1024 2048,1138.61468 2048,1280 C2048,1421.38532 2162.61468,1536 2304,1536 C2445.38408,1536 2560,1421.38532 2560,1280 C2560,1138.61468 2445.38408,1024 2304,1024 L2304,1024 Z M2450.15115,1380.85654 L2407.14066,1380.85654 C2382.86167,1380.85654 2378.72466,1367.00893 2358.71689,1347.00489 C2340.64404,1328.92707 2330.62773,1342.79083 2331.04528,1368.5586 C2331.1534,1375.39355 2327.79557,1380.85654 2319.616,1380.85654 C2294.14027,1380.85654 2257.52606,1384.44676 2220.48311,1344.46105 C2180.46012,1301.25918 2146.60971,1225.53538 2143.66447,1217.70128 C2140.72295,1209.86843 2144.85623,1206.00606 2153.29181,1206.00606 L2197.04047,1206.00606 C2208.60893,1206.00606 2209.59689,1211.94377 2212.82796,1219.3193 C2226.26423,1249.96598 2258.48917,1311.51907 2267.06392,1277.17406 C2271.98882,1257.44839 2274.01196,1215.43208 2252.90315,1211.49639 C2237.93336,1208.70773 2274.57491,1189.40458 2316.85965,1199.21833 C2332.34641,1202.81351 2332.3986,1209.77398 2332.19355,1219.90586 C2331.41934,1258.27231 2326.79518,1280.40761 2336.89476,1286.93685 C2346.55192,1293.1753 2371.97297,1252.31348 2385.33592,1220.7795 C2389.02307,1212.07052 2389.77243,1206.00606 2400.1541,1206.00606 L2453.66431,1206.00606 C2481.68016,1206.00606 2450.01817,1246.49755 2425.78641,1277.92217 C2406.26951,1303.24381 2407.33204,1303.74089 2429.99674,1324.77763 C2453.83581,1346.9005 2483.98788,1380.85654 2450.15115,1380.85654 L2450.15115,1380.85654 Z" id="vk" fill="#000000" sketch:type="MSShapeGroup"></path>
        <path d="M2855.30718,1318.44847 C2849.49996,1318.44847 2844.51915,1322.15052 2840.8494,1326.62058 L2840.8494,1288.45546 L2824.43309,1288.45546 L2824.43309,1407.00334 L2840.8494,1407.00334 L2840.8494,1400.28148 C2845.38159,1405.93336 2850.34128,1408.10936 2856.2939,1408.10936 C2867.11177,1408.10936 2871.1593,1399.70485 2871.1593,1388.88575 L2871.1593,1340.37126 C2871.1593,1328.50951 2867.21616,1318.44847 2855.30718,1318.44847 L2855.30718,1318.44847 Z M2854.4261,1386.50718 C2854.4261,1389.29336 2853.95511,1391.30283 2853.01685,1392.53437 C2851.2261,1394.88062 2847.34509,1394.77499 2844.69934,1393.43534 C2843.45662,1392.80901 2842.17414,1391.78252 2840.8494,1390.35961 L2840.8494,1335.86392 C2841.95417,1334.66346 2843.07014,1333.77367 2844.20225,1333.19829 C2847.04808,1331.75922 2850.72155,1332.03759 2852.68753,1334.63487 C2853.84699,1336.16342 2854.42485,1338.40404 2854.42485,1341.35301 L2854.42485,1386.50718 L2854.4261,1386.50718 Z M2799.66198,1214.54105 L2799.66198,1171.82882 C2799.66198,1166.80326 2801.97592,1163.07262 2806.77282,1163.07262 C2812.00715,1163.07262 2814.24901,1166.69142 2814.24901,1171.82882 L2814.24901,1214.54105 C2814.24901,1219.5405 2811.70019,1223.23511 2807.10835,1223.23511 C2802.39099,1223.23386 2799.66198,1219.37771 2799.66198,1214.54105 L2799.66198,1214.54105 Z M2792.3113,1319.55573 L2808.57103,1319.55573 L2808.57103,1407.00334 L2792.3113,1407.00334 L2792.3113,1397.34866 C2789.31511,1400.90656 2786.19961,1403.61817 2782.9586,1405.47728 C2774.19371,1410.49786 2762.16295,1410.38975 2762.16295,1392.64746 L2762.16295,1319.55573 L2778.42268,1319.55573 L2778.42268,1386.5892 C2778.42268,1390.10858 2779.27643,1392.48217 2782.75355,1392.48217 C2785.92249,1392.48217 2790.32917,1388.41724 2792.3113,1385.93305 L2792.3113,1319.55573 L2792.3113,1319.55573 Z M2762.38291,1305.66214 L2743.44016,1305.66214 L2743.44016,1407.00334 L2725.12994,1407.00334 L2725.12994,1305.66214 L2706.18843,1305.66214 L2706.18843,1288.45546 L2762.38416,1288.45546 L2762.38416,1305.66214 L2762.38291,1305.66214 Z M2908.11899,1317.34493 C2893.45118,1317.34493 2883.42369,1327.88318 2883.42369,1343.06548 L2883.42369,1382.31674 C2883.42369,1398.06074 2891.36342,1409.37196 2906.88746,1409.37196 C2924.02206,1409.37196 2931.25344,1399.168 2931.25344,1382.31674 L2931.25344,1375.74773 L2914.52023,1375.74773 L2914.52023,1381.82711 C2914.52023,1389.44124 2914.12008,1394.06043 2907.25654,1394.06043 C2900.7099,1394.06043 2900.15565,1388.38742 2900.15565,1381.82711 L2900.15565,1365.33126 L2931.25219,1365.33126 L2931.25219,1343.06672 C2931.25344,1327.25934 2923.71759,1317.34493 2908.11899,1317.34493 L2908.11899,1317.34493 Z M2914.52023,1351.75581 L2900.15689,1351.75581 L2900.15689,1342.90268 C2900.15689,1336.89289 2901.39464,1332.65398 2907.42058,1332.65398 C2913.26757,1332.65398 2914.52148,1336.99231 2914.52148,1342.90268 L2914.52148,1351.75581 L2914.52023,1351.75581 Z M2816,1024 C2674.61468,1024 2560,1138.61468 2560,1280 C2560,1421.38532 2674.61468,1536 2816,1536 C2957.38408,1536 3072,1421.38532 3072,1280 C3072,1138.61468 2957.38408,1024 2816,1024 L2816,1024 Z M2846.14338,1146.40155 L2863.2146,1146.40155 L2863.2146,1216.79037 C2863.2146,1220.48373 2864.10812,1222.97662 2867.76171,1222.97662 C2871.09095,1222.97662 2875.71883,1218.7054 2877.79915,1216.10066 L2877.79915,1146.4028 L2894.87037,1146.4028 L2894.87037,1238.22602 L2877.79915,1238.22602 L2877.79915,1228.08917 C2870.40249,1236.864 2863.232,1239.552 2858.06726,1239.552 C2848.91588,1239.552 2846.14214,1232.2212 2846.14214,1223.1506 L2846.14214,1146.40155 L2846.14338,1146.40155 Z M2807.10711,1145.64598 C2820.94602,1145.64598 2831.6508,1155.94315 2831.6508,1170.31518 L2831.6508,1215.32396 C2831.6508,1230.74734 2820.83666,1239.92854 2807.10711,1239.92854 C2790.54913,1239.92854 2782.09243,1231.5054 2782.09243,1215.32396 L2782.09243,1170.31518 C2782.09243,1155.58276 2792.07021,1145.64598 2807.10711,1145.64598 L2807.10711,1145.64598 Z M2737.85165,1113.74913 L2751.11021,1163.50384 L2763.42804,1113.74913 L2782.96357,1113.74913 L2760.58843,1187.7381 L2760.58843,1238.22478 L2741.35984,1238.22478 L2741.35984,1187.7381 L2718.48637,1113.74913 L2737.85165,1113.74913 L2737.85165,1113.74913 Z M2957.00505,1397.1635 C2957.00505,1418.78307 2939.47775,1436.30913 2917.85942,1436.30913 L2716.62602,1436.30913 C2695.00645,1436.30913 2677.48039,1418.78307 2677.48039,1397.1635 L2677.48039,1298.2692 C2677.48039,1276.64839 2695.00645,1259.12233 2716.62602,1259.12233 L2917.85942,1259.12233 C2939.47775,1259.12233 2957.00505,1276.64839 2957.00505,1298.2692 L2957.00505,1397.1635 L2957.00505,1397.1635 Z" id="youtube" fill="#000000" sketch:type="MSShapeGroup"></path>
        <path d="M277.066563,1884.78012 C277.066563,1909.94144 256.632544,1929.59876 214.332893,1929.59876 C181.245515,1929.59876 157.351767,1908.65398 157.351767,1883.4939 C157.351767,1858.83837 185.389981,1837.56676 218.476117,1837.93087 C255.186019,1837.93212 277.066563,1860.79441 277.066563,1884.78012 L277.066563,1884.78012 Z M512,1792 C512,1933.38532 397.38532,2048 256,2048 C114.61468,2048 0,1933.38532 0,1792 C0,1650.61468 114.61468,1536 256,1536 C397.38532,1536 512,1650.61468 512,1792 L512,1792 Z M305.567068,1881.85476 C305.567068,1858.62711 296.894136,1843.45103 270.65165,1823.78874 C244.03635,1804.37872 237.533204,1793.41297 262.936854,1773.77181 C277.251728,1762.70416 287.282951,1747.9506 287.282951,1729.73483 C287.282951,1709.88986 279.168,1691.88536 263.90866,1683.14283 L285.536932,1683.14283 L303.949049,1663.81732 L221.553087,1663.81732 C170.116971,1663.81732 144.896,1694.64792 144.896,1728.56047 C144.896,1763.21864 168.671689,1790.51495 215.09965,1790.51495 C207.901825,1805.04606 210.792388,1818.46866 222.569631,1828.06617 C143.275495,1828.06617 126.307417,1862.85981 126.307417,1889.66276 C126.307417,1924.39052 166.227262,1945.03705 214.096777,1945.03705 C279.549515,1945.03581 305.567068,1910.34905 305.567068,1881.85476 L305.567068,1881.85476 Z M413.02866,1705.63107 L375.015146,1705.63107 L375.015146,1667.6188 L356.010252,1667.6188 L356.010252,1705.63107 L317.996738,1705.63107 L317.996738,1724.6372 L356.010252,1724.6372 L356.010252,1762.64948 L375.015146,1762.64948 L375.015146,1724.6372 L413.02866,1724.6372 L413.02866,1705.63107 L413.02866,1705.63107 Z M254.175689,1730.97507 C250.344388,1701.81344 231.345709,1677.88738 209.147029,1677.22004 C186.940893,1676.55891 172.046913,1698.87689 175.883184,1728.04598 C179.716971,1757.20885 200.820816,1777.5795 223.03068,1778.24932 C245.229359,1778.91045 258.005748,1760.14043 254.175689,1730.97507 L254.175689,1730.97507 Z" id="gplus" fill="#000000" sketch:type="MSShapeGroup"></path>
        <path d="M768,1536 C626.61468,1536 512,1650.61468 512,1792 C512,1933.38532 626.61468,2048 768,2048 C909.38532,2048 1024,1933.38532 1024,1792 C1024,1650.61468 909.38532,1536 768,1536 L768,1536 Z M922.042408,1678.22167 L769.248932,1795.40629 L616.699029,1678.22167 L922.042408,1678.22167 L922.042408,1678.22167 Z M615.641476,1710.3186 L705.523573,1779.3628 L615.641476,1869.24489 L615.641476,1710.3186 L615.641476,1710.3186 Z M616.015534,1905.77709 L726.395029,1795.39759 L769.236505,1828.30478 L812.008388,1795.50198 L922.284738,1905.77584 L616.015534,1905.77584 L616.015534,1905.77709 Z M922.842718,1869.43006 L832.894757,1779.4821 L922.842718,1710.49755 L922.842718,1869.43006 L922.842718,1869.43006 Z" id="email" fill="#000000" sketch:type="MSShapeGroup"></path>
        <path d="M1280,2048 C1421.3849,2048 1536,1933.3849 1536,1792 C1536,1650.6151 1421.3849,1536 1280,1536 C1138.6151,1536 1024,1650.6151 1024,1792 C1024,1933.3849 1138.6151,2048 1280,2048 Z M1097.42738,1763.54094 C1097.42738,1742.11835 1105.23132,1723.80713 1120.83921,1708.60729 C1136.4471,1693.40745 1155.26838,1685.80753 1177.30305,1685.80753 C1194.64515,1685.80753 1210.20203,1690.70412 1223.9737,1700.49731 C1237.74537,1710.2905 1247.38553,1722.94003 1252.8942,1738.44591 L1273.09265,1718.85953 L1321.4465,1765.37717 L1455.1847,1628.88464 L1455.1847,1752.82965 L1373.4728,1815.87328 L1383.87806,1826.89062 L1272.78661,1934.9217 L1176.0789,1840.96832 C1154.24826,1840.56027 1135.68201,1832.80733 1120.38016,1817.7095 C1105.0783,1802.61168 1097.42738,1784.55549 1097.42738,1763.54094 L1097.42738,1763.54094 Z M1108.75075,1763.54094 C1108.75075,1781.90317 1115.38155,1797.51106 1128.64316,1810.36461 C1141.90476,1823.21817 1157.9207,1829.64495 1176.69097,1829.64495 C1183.42379,1829.64495 1190.05459,1828.72684 1196.58338,1826.89062 L1263.91154,1886.56784 L1442.94322,1745.79079 L1443.24925,1653.3676 L1266.35983,1835.76569 L1238.8165,1791.08428 C1242.89699,1782.31122 1244.93724,1773.13011 1244.93724,1763.54094 C1244.93724,1745.38275 1238.25543,1729.82586 1224.89181,1716.87029 C1211.52819,1703.91472 1195.46125,1697.43694 1176.69097,1697.43694 C1157.9207,1697.43694 1141.90476,1703.91472 1128.64316,1716.87029 C1115.38155,1729.82586 1108.75075,1745.38275 1108.75075,1763.54094 L1108.75075,1763.54094 Z M1123.44053,1764.15302 C1123.44053,1749.87129 1128.49014,1737.68081 1138.58936,1727.58159 C1148.68858,1717.48237 1160.87906,1712.43276 1175.16079,1712.43276 C1189.44252,1712.43276 1201.63299,1717.43136 1211.73222,1727.42857 C1221.83144,1737.42578 1226.88105,1749.66726 1226.88105,1764.15302 C1226.88105,1778.43475 1221.83144,1790.62522 1211.73222,1800.72445 C1201.63299,1810.82367 1189.44252,1815.87328 1175.16079,1815.87328 C1160.87906,1815.87328 1148.68858,1810.82367 1138.58936,1800.72445 C1128.49014,1790.62522 1123.44053,1778.43475 1123.44053,1764.15302 L1123.44053,1764.15302 Z" id="foursquare" fill="#000000" sketch:type="MSShapeGroup"></path>
        <path d="M1791.90625,2048.28125 C1933.29115,2048.28125 2047.90625,1933.66615 2047.90625,1792.28125 C2047.90625,1650.89635 1933.29115,1536.28125 1791.90625,1536.28125 C1650.52135,1536.28125 1535.90625,1650.89635 1535.90625,1792.28125 C1535.90625,1933.66615 1650.52135,2048.28125 1791.90625,2048.28125 Z M1967.12436,1765.79257 C1967.12436,1782.33668 1953.69726,1795.76379 1937.15313,1795.76379 C1920.60904,1795.76379 1907.18191,1782.33668 1907.18191,1765.79257 C1907.18191,1749.24846 1920.60904,1735.82135 1937.15313,1735.82135 C1953.69726,1735.82135 1967.12436,1749.24846 1967.12436,1765.79257 L1967.12436,1765.79257 Z M1937.00327,1710 C1906.27453,1710 1881.31688,1734.78193 1881.03779,1765.44675 L1846.16744,1815.41798 C1844.74686,1815.27098 1843.30302,1815.18743 1841.84467,1815.18743 C1834.0539,1815.18742 1826.77326,1817.32906 1820.51899,1821.0664 L1662.59375,1757.55048 C1658.46636,1738.81375 1641.7222,1724.69742 1621.78679,1724.69742 C1598.77006,1724.69742 1580,1743.52511 1580,1766.54185 C1580,1789.55857 1598.77005,1808.32864 1621.78679,1808.32864 C1629.5772,1808.32863 1636.85819,1806.18712 1643.11246,1802.44967 L1801.0377,1865.85031 C1805.12338,1884.63083 1821.8693,1898.76102 1841.84467,1898.76102 C1863.48169,1898.76102 1881.33343,1882.17532 1883.40091,1861.06645 L1937.00327,1821.87332 C1967.89891,1821.87332 1992.96877,1796.8522 1992.96875,1765.96548 C1992.96877,1735.06109 1967.90114,1710 1937.00327,1710 L1937.00327,1710 Z M1937.00327,1728.44382 C1957.70429,1728.44382 1974.52493,1745.26396 1974.52493,1765.96548 C1974.52491,1786.66699 1957.70429,1803.4295 1937.00327,1803.4295 C1916.30227,1803.42949 1899.48162,1786.667 1899.48162,1765.96548 C1899.4816,1745.26396 1916.30225,1728.44382 1937.00327,1728.44382 L1937.00327,1728.44382 Z M1621.78679,1735.76372 C1633.58604,1735.76371 1643.78352,1742.35592 1648.93379,1752.07497 L1633.66,1745.96546 L1633.66,1746.02309 C1621.35427,1741.60395 1607.68372,1747.61848 1602.7666,1759.85596 C1597.84947,1772.09343 1603.50619,1785.94521 1615.44672,1791.2681 L1615.44672,1791.32574 L1628.41504,1796.51306 C1626.28317,1796.97741 1624.0626,1797.26234 1621.78679,1797.26234 C1604.75762,1797.26235 1591.06629,1783.57102 1591.06629,1766.54185 C1591.06629,1749.51267 1604.75761,1735.76372 1621.78679,1735.76372 L1621.78679,1735.76372 Z M1841.84467,1826.25373 C1858.87479,1826.25371 1872.56516,1839.94403 1872.56516,1856.97422 C1872.56509,1874.00442 1858.87486,1887.69472 1841.84467,1887.69472 C1829.99886,1887.69472 1819.77065,1881.08999 1814.64003,1871.32582 C1819.69197,1873.36444 1824.75263,1875.38223 1829.79854,1877.43534 C1842.32,1882.46682 1856.58082,1876.41586 1861.61414,1863.89066 C1866.64739,1851.36914 1860.53518,1837.16417 1848.01182,1832.1327 L1835.21642,1827.00301 C1837.3483,1826.53868 1839.56872,1826.25373 1841.84467,1826.25373 L1841.84467,1826.25373 Z" id="steam" fill="#000000" sketch:type="MSShapeGroup"></path>
        <path d="M2258.10019,1752.704 L2258.10019,1809.53849 L2202.09833,1809.53849 C2208.13794,1780.36318 2226.76505,1761.0153 2258.10019,1752.704 L2258.10019,1752.704 Z M2560,1792 C2560,1933.38532 2445.38532,2048 2304,2048 C2162.61468,2048 2048,1933.38532 2048,1792 C2048,1650.61468 2162.61468,1536 2304,1536 C2445.38532,1536 2560,1650.61468 2560,1792 L2560,1792 Z M2492.04816,1843.36404 C2483.44606,1774.33724 2404.2153,1720.26656 2307.72816,1720.26656 C2306.05918,1720.26656 2304.39643,1720.28645 2302.73616,1720.31876 L2302.73616,1688.6605 C2287.57872,1687.66633 2272.6835,1690.04489 2258.10019,1696.42377 L2258.10019,1725.20388 C2185.2508,1740.01833 2130.4755,1786.63767 2123.40567,1843.36528 L2302.73616,1843.36528 L2302.73616,1746.32885 C2369.38687,1745.11845 2405.31014,1767.04124 2413.91223,1809.54097 L2359.43394,1809.54097 L2359.43394,1763.7965 C2345.01965,1758.78711 2329.84109,1756.74781 2314.1033,1756.86462 L2314.1033,1843.36528 L2492.04816,1843.36528 L2492.04816,1843.36404 Z" id="deviantart" fill="#000000" sketch:type="MSShapeGroup"></path>
        <path d="M2816,1536 C2674.61468,1536 2560,1650.61468 2560,1792 C2560,1933.38532 2674.61468,2048 2816,2048 C2957.38532,2048 3072,1933.38532 3072,1792 C3072,1650.61468 2957.38532,1536 2816,1536 L2816,1536 Z M2878.97351,1619.53553 C2883.1155,1657.24831 2849.4254,1696.59899 2814.33227,1693.87122 C2809.99767,1660.90936 2840.98485,1621.06656 2878.97351,1619.53553 L2878.97351,1619.53553 Z M2874.38788,1941.67052 C2852.77204,1942.08062 2845.83891,1928.86555 2821.13118,1928.86555 C2796.43588,1928.86555 2788.72109,1941.27285 2768.28334,1942.08062 C2733.71713,1943.39293 2683.42058,1863.75581 2683.42058,1794.30524 C2683.42058,1730.50159 2724.81678,1698.87317 2763.66043,1698.29033 C2784.48839,1697.91876 2804.16435,1712.33802 2816.87984,1712.33802 C2829.62765,1712.33802 2853.52761,1694.99837 2878.64668,1697.54843 C2889.15262,1697.98462 2918.68334,1701.7861 2937.63604,1729.49748 C2887.34819,1762.31146 2892.11899,1830.94928 2946.09398,1856.18144 C2935.52963,1886.82315 2906.97196,1941.08148 2874.38788,1941.67052 L2874.38788,1941.67052 Z" id="apple" fill="#000000" sketch:type="MSShapeGroup"></path>
        <path d="M256,2048 C114.61468,2048 0,2162.61468 0,2304 C0,2445.38532 114.61468,2560 256,2560 C397.38532,2560 512,2445.38532 512,2304 C512,2162.61468 397.38532,2048 256,2048 L256,2048 Z M187.698951,2427.76482 L131.492039,2427.76482 L131.492039,2246.17507 L187.698951,2246.17507 L187.698951,2427.76482 L187.698951,2427.76482 Z M159.327689,2222.39441 C140.971495,2222.39441 126.089942,2207.39231 126.089942,2188.88699 C126.089942,2170.38167 140.971495,2155.37957 159.327689,2155.37957 C177.682641,2155.37957 192.564194,2170.38167 192.564194,2188.88699 C192.564194,2207.39231 177.682641,2222.39441 159.327689,2222.39441 L159.327689,2222.39441 Z M398.336,2427.76482 L342.401243,2427.76482 L342.401243,2332.44458 C342.401243,2306.30151 332.47068,2291.70703 311.798058,2291.70703 C289.301126,2291.70703 277.546252,2306.90672 277.546252,2332.44458 L277.546252,2427.76482 L223.637126,2427.76482 L223.637126,2246.17507 L277.546252,2246.17507 L277.546252,2270.63052 C277.546252,2270.63052 293.76,2240.63503 332.265631,2240.63503 C370.772505,2240.63503 398.334757,2264.14478 398.334757,2312.78478 C398.336,2361.42478 398.336,2427.76482 398.336,2427.76482 L398.336,2427.76482 Z" id="linkedin2" fill="#000000" sketch:type="MSShapeGroup"></path>
        <path d="M768,2048 C626.61468,2048 512,2162.61468 512,2304 C512,2445.38532 626.61468,2560 768,2560 C909.38532,2560 1024,2445.38532 1024,2304 C1024,2162.61468 909.38532,2048 768,2048 L768,2048 Z M875.692738,2410.20396 L666.989359,2410.20396 C628.025165,2410.20396 596.442718,2378.62151 596.442718,2339.65608 C596.442718,2311.50975 612.931107,2287.21833 636.770175,2275.89965 C636.961553,2248.92645 658.868194,2227.11674 685.886136,2227.11674 C695.39666,2227.11674 704.246058,2229.86439 711.770718,2234.54447 C728.235495,2206.60816 758.612505,2187.85305 793.386252,2187.85305 C844.379961,2187.85305 885.940194,2228.16683 887.980738,2278.66221 C918.749204,2284.42718 942.041476,2311.41282 942.041476,2343.85647 C942.042718,2380.5005 912.335534,2410.20396 875.692738,2410.20396 L875.692738,2410.20396 Z" id="icloud" fill="#000000" sketch:type="MSShapeGroup"></path>
        <path d="M1282.63581,2376.02175 C1305.57639,2375.64769 1319.35068,2382.35216 1319.59052,2398.77841 C1319.82788,2414.97351 1307.04155,2422.29685 1285.00194,2422.26206 C1260.54649,2422.2285 1246.67278,2415.27425 1246.2254,2398.59697 C1245.81903,2383.41219 1258.08093,2376.42439 1282.63581,2376.02175 L1282.63581,2376.02175 Z M1278.81196,2196.70369 C1259.57219,2196.83666 1250.93779,2208.88482 1250.96016,2228.1979 C1250.98377,2249.41111 1259.84062,2260.352 1279.17732,2260.05623 C1296.01988,2259.79775 1306.92225,2250.72342 1306.66625,2229.29025 C1306.41522,2208.14664 1296.02983,2196.58563 1278.81196,2196.70369 L1278.81196,2196.70369 Z M1536,2304 C1536,2445.38532 1421.38532,2560 1280,2560 C1138.61468,2560 1024,2445.38532 1024,2304 C1024,2162.61468 1138.61468,2048 1280,2048 C1421.38532,2048 1536,2162.61468 1536,2304 L1536,2304 Z M1366.56155,2156.65336 C1351.19161,2163.49328 1334.6908,2167.27115 1317.04295,2167.94097 C1305.84357,2161.16816 1292.91557,2156.53406 1278.08373,2156.65336 C1241.67332,2156.65336 1205.50027,2181.89421 1203.98913,2225.28746 C1202.9353,2255.55014 1217.34462,2278.19371 1241.67332,2292.09849 C1230.5659,2297.34151 1226.20023,2309.39588 1226.20023,2321.22781 C1226.20023,2333.05849 1234.30027,2345.55526 1241.85476,2351.08163 C1215.8981,2362.23254 1200.89476,2378.20769 1200.89476,2402.78369 C1200.89476,2480.33678 1364.19293,2482.33755 1364.19293,2399.5054 C1364.19293,2369.10478 1343.80365,2347.07511 1293.55806,2338.70167 C1273.65095,2335.82726 1263.15619,2304.84008 1292.46571,2299.19689 C1334.5193,2292.09724 1362.73647,2251.31868 1347.99161,2206.53483 C1354.26485,2205.54936 1360.45981,2204.02082 1366.56031,2201.80132 L1366.56031,2156.65336 L1366.56155,2156.65336 Z" id="github4" fill="#000000" sketch:type="MSShapeGroup"></path>
        <path d="M1792.37485,2559.63733 C1933.75975,2559.63733 2048.37485,2445.02223 2048.37485,2303.63733 C2048.37485,2162.25243 1933.75975,2047.63733 1792.37485,2047.63733 C1650.98995,2047.63733 1536.37485,2162.25243 1536.37485,2303.63733 C1536.37485,2445.02223 1650.98995,2559.63733 1792.37485,2559.63733 Z M1971.1986,2276.34767 C1971.1986,2253.84189 1952.89643,2235.53511 1930.40169,2235.53511 C1920.2304,2235.53511 1910.9246,2239.28619 1903.77165,2245.46974 C1876.07077,2227.48371 1840.21386,2216.98446 1801.83945,2215.49465 L1822.11287,2149.3637 L1881.0939,2162.57214 C1881.0925,2162.73146 1881.07085,2162.8852 1881.07085,2163.04452 C1881.07085,2181.64129 1896.1968,2196.77209 1914.78607,2196.77209 C1933.37533,2196.77209 1948.50129,2181.64199 1948.50129,2163.04452 C1948.50129,2144.44705 1933.37673,2129.31765 1914.78607,2129.31765 C1900.81548,2129.31765 1888.80706,2137.86309 1883.69732,2150.00239 L1819.12456,2135.54173 C1815.85265,2134.8087 1812.57026,2136.71639 1811.58812,2139.92381 L1788.46261,2215.35349 C1748.00588,2216.00266 1710.01217,2226.61931 1680.97849,2245.47114 C1673.82695,2239.28829 1664.51904,2235.53651 1654.34846,2235.53651 C1631.85371,2235.53651 1613.55294,2253.84399 1613.55294,2276.34907 C1613.55294,2291.10881 1621.42607,2304.06219 1633.1907,2311.23103 C1632.58996,2315.06317 1632.27353,2318.93933 1632.27353,2322.85393 C1632.27353,2352.10159 1649.28621,2379.40942 1680.17658,2399.73638 C1710.23919,2419.52109 1750.08401,2430.42005 1792.37507,2430.42005 C1834.66265,2430.42005 1874.51026,2419.519 1904.57287,2399.73638 C1935.46393,2379.40732 1952.47522,2352.10159 1952.47522,2322.85393 C1952.47522,2318.93933 1952.16018,2315.06527 1951.55805,2311.23103 C1963.32408,2304.06149 1971.1986,2291.10671 1971.1986,2276.34767 L1971.1986,2276.34767 Z M1914.78467,2142.15294 C1926.29923,2142.15294 1935.6679,2151.52365 1935.6679,2163.04382 C1935.6679,2174.5612 1926.29923,2183.93471 1914.78467,2183.93471 C1903.27151,2183.93471 1893.90143,2174.5612 1893.90143,2163.04382 C1893.90074,2151.52435 1903.26941,2142.15294 1914.78467,2142.15294 L1914.78467,2142.15294 Z M1626.38213,2276.34767 C1626.38213,2260.92128 1638.92702,2248.3711 1654.34706,2248.3711 C1660.18607,2248.3711 1665.60875,2250.17606 1670.0975,2253.24722 C1653.67368,2266.22926 1642.27298,2281.46417 1636.54154,2297.9024 C1630.3421,2292.76772 1626.38213,2285.01261 1626.38213,2276.34767 L1626.38213,2276.34767 Z M1792.37507,2417.58266 C1711.16963,2417.58266 1645.10482,2375.08743 1645.10482,2322.85253 C1645.10482,2320.60733 1645.23544,2318.3831 1645.47504,2316.17564 C1645.94096,2311.90536 1646.84136,2307.70985 1648.16158,2303.61008 C1653.0946,2288.2969 1663.78978,2274.32468 1678.72294,2262.67733 C1682.03467,2260.09113 1685.56294,2257.62581 1689.27493,2255.28209 C1715.86165,2238.49726 1752.26691,2228.12659 1792.37507,2228.12659 C1832.48114,2228.12659 1868.88779,2238.49866 1895.47243,2255.28209 C1899.18441,2257.62581 1902.71408,2260.09182 1906.02511,2262.67733 C1920.95897,2274.32399 1931.65485,2288.2969 1936.58717,2303.61008 C1937.90809,2307.70985 1938.80849,2311.90536 1939.27371,2316.17564 C1939.5154,2318.381 1939.64324,2320.60733 1939.64324,2322.85253 C1939.64324,2375.08813 1873.57912,2417.58266 1792.37507,2417.58266 L1792.37507,2417.58266 Z M1948.2086,2297.9038 C1942.47857,2281.46627 1931.07577,2266.22926 1914.65195,2253.24792 C1919.1407,2250.17676 1924.56268,2248.3718 1930.40169,2248.3718 C1945.82243,2248.3718 1958.36732,2260.92128 1958.36732,2276.34837 C1958.36732,2285.01261 1954.40945,2292.76772 1948.2086,2297.9038 Z M1847.04338,2279.36293 C1833.6393,2279.36293 1822.77507,2290.22904 1822.77507,2303.63454 C1822.77507,2317.04353 1833.6393,2327.91173 1847.04338,2327.91173 C1860.44397,2327.91173 1871.3089,2317.04353 1871.3089,2303.63454 C1871.3089,2290.22904 1860.44397,2279.36293 1847.04338,2279.36293 Z M1763.11926,2303.63454 C1763.11926,2290.22904 1752.25643,2279.36293 1738.85585,2279.36293 C1725.45316,2279.36293 1714.58893,2290.22904 1714.58893,2303.63454 C1714.58893,2317.04353 1725.45386,2327.91173 1738.85585,2327.91173 C1752.25643,2327.91034 1763.11926,2317.04353 1763.11926,2303.63454 Z M1841.25467,2363.90197 C1829.09607,2373.87364 1814.0204,2378.32001 1792.37507,2378.32001 C1770.72835,2378.32001 1755.65338,2373.87364 1743.49268,2363.90197 C1740.61684,2361.54357 1736.37118,2361.96564 1734.01434,2364.84114 C1731.6554,2367.71944 1732.07592,2371.96526 1734.95316,2374.32506 C1749.48956,2386.24703 1767.73515,2391.79748 1792.37507,2391.79748 C1817.015,2391.79748 1835.25989,2386.24703 1849.79699,2374.32506 C1852.67283,2371.96526 1853.09474,2367.71944 1850.73581,2364.84114 C1848.37338,2361.96005 1844.13051,2361.54357 1841.25467,2363.90197 Z" id="reddit" fill="#000000" sketch:type="MSShapeGroup"></path>
        <path d="M2304,2560 C2445.3849,2560 2560,2445.3849 2560,2304 C2560,2162.6151 2445.3849,2048 2304,2048 C2162.6151,2048 2048,2162.6151 2048,2304 C2048,2445.3849 2162.6151,2560 2304,2560 Z M2205.00292,2199 C2184.01449,2199 2167,2216.0073 2167,2236.999 L2167,2371.001 C2167,2391.98727 2184.02083,2409 2205.00292,2409 L2403.99708,2409 C2424.98551,2409 2442,2391.9927 2442,2371.001 L2442,2236.999 C2442,2216.01273 2424.97917,2199 2403.99708,2199 L2205.00292,2199 Z M2261.32747,2266.91401 C2249.73273,2266.91401 2240.33333,2276.31986 2240.33333,2287.90541 L2240.33333,2320.04025 C2240.33333,2331.63348 2249.74398,2341.03165 2261.32747,2341.03165 L2347.67253,2341.03165 C2359.26727,2341.03165 2368.66667,2331.6258 2368.66667,2320.04025 L2368.66667,2287.90541 C2368.66667,2276.31218 2359.25602,2266.91401 2347.67253,2266.91401 L2261.32747,2266.91401 Z M2258.47059,2303.97283 L2295.52941,2285.6395 L2295.52941,2322.30616 L2258.47059,2303.97283 Z M2312.27913,2322.50224 L2312.27913,2285.44342 L2348.9458,2303.97283 L2312.27913,2322.50224 Z" id="sliderdeck" fill="#000000" sketch:type="MSShapeGroup"></path>
        <path d="M2816,2048 C2674.61468,2048 2560,2162.61468 2560,2304 C2560,2445.38532 2674.61468,2560 2816,2560 C2957.38532,2560 3072,2445.38532 3072,2304 C3072,2162.61468 2957.38532,2048 2816,2048 L2816,2048 Z M2900.42408,2393.6 C2836.50361,2393.6 2814.33476,2364.78136 2802.51402,2328.9426 L2790.6908,2291.9941 C2781.82151,2265.02089 2771.47464,2243.96054 2738.96264,2243.96054 C2716.42097,2243.96054 2693.51394,2260.21779 2693.51394,2305.66276 C2693.51394,2341.13367 2711.61786,2363.30377 2737.11596,2363.30377 C2765.93212,2363.30377 2785.14703,2341.87184 2785.14703,2341.87184 L2796.97274,2374.01724 C2796.97274,2374.01724 2777.01592,2393.59751 2735.26928,2393.59751 C2683.54113,2393.59751 2654.72124,2363.30377 2654.72124,2307.13911 C2654.72124,2248.76241 2683.54113,2214.40124 2737.85414,2214.40124 C2786.99495,2214.40124 2811.75487,2232.13608 2827.26897,2280.16963 L2839.46252,2317.11441 C2848.33181,2344.0901 2863.84839,2363.67037 2901.1635,2363.67037 C2926.29002,2363.67037 2939.58835,2358.12909 2939.58835,2344.45918 C2939.58835,2333.74322 2933.31138,2325.98493 2914.4668,2321.54843 L2889.34027,2315.63806 C2858.67495,2308.2501 2846.4814,2292.36194 2846.4814,2267.23666 C2846.4814,2226.9614 2878.99588,2214.4 2912.25103,2214.4 C2949.93771,2214.4 2972.84598,2228.0699 2975.79992,2261.32256 L2938.8539,2265.75783 C2937.37383,2249.86967 2927.76885,2243.2174 2910.03402,2243.2174 C2893.77429,2243.2174 2883.79899,2250.60909 2883.79899,2263.17173 C2883.79899,2274.25429 2888.60458,2280.90656 2904.85934,2284.60117 L2928.50454,2289.77336 C2960.28085,2297.16381 2977.28124,2312.68287 2977.28124,2342.61002 C2977.28,2379.56101 2946.24435,2393.6 2900.42408,2393.6 L2900.42408,2393.6 Z" id="lastfm2" fill="#000000" sketch:type="MSShapeGroup"></path>
        <path d="M256,3072 C397.384903,3072 512,2957.3849 512,2816 C512,2674.6151 397.384903,2560 256,2560 C114.615097,2560 0,2674.6151 0,2816 C0,2957.3849 114.615097,3072 256,3072 Z M251.796513,2675.308 C272.593231,2675.308 292.646564,2679.6328 311.551179,2687.9952 L311.551179,2782.3216 L201.089641,2684.5832 C217.445744,2678.5504 234.494359,2675.308 251.796513,2675.308 L251.796513,2675.308 Z M106.776615,2816.8 C106.776615,2763.4344 137.026462,2715.416 185.750154,2691.0112 L240.675282,2739.5968 L112.045949,2853.5544 C108.65559,2841.3224 106.776615,2828.976 106.776615,2816.8 L106.776615,2816.8 Z M177.119179,2937.6408 C150.232615,2921.6576 128.786051,2897.5304 117.169231,2869.1424 L177.119179,2816.004 L177.119179,2937.6408 L177.119179,2937.6408 Z M251.777641,2958.2608 C231.173744,2958.2608 211.147487,2954.0808 192.242872,2945.7768 L192.242872,2878.24 L382.197333,2878.24 C358.039795,2926.9832 307.117949,2958.2608 251.777641,2958.2608 L251.777641,2958.2608 Z M388.731897,2863.4944 L327.096615,2863.4944 L327.096615,2696.1312 C370.366359,2721.7328 397.068308,2767.6928 397.068308,2816.8496 C397.068308,2832.7232 394.15959,2848.3392 388.731897,2863.4944 L388.731897,2863.4944 Z" id="picasa2" fill="#000000" sketch:type="MSShapeGroup"></path>
        <path d="M768.000006,3072.00097 C909.384909,3072.00097 1024.00001,2957.38588 1024.00001,2816.00097 C1024.00001,2674.61607 909.384909,2560.00097 768.000006,2560.00097 C626.615103,2560.00097 512.000006,2674.61607 512.000006,2816.00097 C512.000006,2957.38588 626.615103,3072.00097 768.000006,3072.00097 Z M831.90959,2682.24967 C819.279989,2682.27187 805.634146,2684.50097 791.767078,2691.8918 C776.164721,2686.28709 759.689502,2681.55603 736.784591,2683.25387 C684.98057,2688.07775 665.207044,2714.25422 662.165807,2751.58661 C651.241803,2752.83103 640.91861,2755.71177 640.169335,2784.57289 C639.452428,2817.25957 649.681728,2822.58689 660.592089,2826.2054 L661.379082,2922.02537 C662.9207,2933.33993 660.805824,2945.94893 686.51443,2948.73417 L725.000031,2949.52116 C739.086718,2951.35676 748.860194,2942.40559 754.060712,2922.02563 C755.88829,2938.59261 763.169444,2947.67004 776.84391,2947.94744 L821.615019,2947.94744 C831.735178,2945.25021 842.836537,2944.35408 844.389657,2925.95097 L845.17665,2826.2054 L856.953452,2826.98383 C866.571508,2825.59094 876.152382,2824.00224 882.875258,2808.13453 L882.875258,2778.28685 C880.931584,2766.10237 877.635149,2767.54689 874.237331,2764.9366 C883.38378,2762.91267 892.8301,2761.95421 896.225511,2739.80125 L895.447078,2715.45289 C895.766744,2700.17609 887.255078,2691.49697 865.926025,2685.83955 C856.152817,2684.41269 844.539726,2682.2264 831.910392,2682.24887 L831.90959,2682.24967 Z M742.743747,2705.62699 C748.901389,2705.55824 757.388177,2706.5595 775.185929,2712.26426 L775.738589,2741.1492 C766.477648,2737.90305 758.368039,2734.15775 751.858898,2735.0389 C731.715684,2734.09301 729.826046,2744.3734 728.5316,2755.02643 L728.5316,2775.5832 L780.183145,2776.13586 C781.426229,2748.90169 774.102275,2714.17557 819.220871,2708.17121 C838.917088,2705.55155 857.01257,2708.06822 870.713251,2713.92974 L870.160591,2744.48041 C863.076854,2738.81443 853.513903,2736.86514 843.502083,2735.59129 C815.652921,2731.67586 822.067634,2756.61459 820.727446,2775.02252 L857.940804,2775.02252 L857.940804,2802.24171 L820.727446,2802.24171 L821.280106,2925.54062 L780.183145,2924.42754 L780.183145,2802.24198 L726.865862,2803.34676 L726.865862,2924.42754 L685.7689,2924.42754 L686.873686,2803.34676 L666.877866,2803.34676 L666.325205,2772.80465 L687.986764,2773.91773 L687.434104,2765.58128 C688.404604,2745.67748 686.665034,2711.36626 729.317791,2706.02022 C734.573682,2706.38188 737.954112,2705.68022 742.743212,2705.62672 L742.743747,2705.62699 Z" id="friendfeed" fill="#000000" sketch:type="MSShapeGroup"></path>
        <path d="M1279.16032,2680.38144 C1255.56224,2681.0624 1238.05184,2690.5856 1226.62912,2708.95104 C1214.82752,2727.31648 1208.92928,2748.47232 1208.92928,2772.41344 C1208.92928,2797.98784 1214.9504,2819.54816 1226.99776,2837.09952 C1238.91712,2855.1936 1256.30976,2864.44544 1279.16032,2864.84992 C1303.37792,2864.44544 1321.3184,2854.92736 1333.00224,2836.28544 C1344.67072,2818.73408 1350.51264,2797.45024 1350.51264,2772.41344 C1350.51264,2747.38176 1344.67072,2725.95968 1333.00224,2708.13184 C1321.3184,2690.31424 1303.37792,2681.06752 1279.16032,2680.38144 L1279.16032,2680.38144 Z M1280,2560 C1138.61632,2560 1024,2674.61632 1024,2816 C1024,2957.38368 1138.61632,3072 1280,3072 C1421.38368,3072 1536,2957.38368 1536,2816 C1536,2674.61632 1421.38368,2560 1280,2560 L1280,2560 Z M1365.41696,2875.25888 L1365.41696,2875.25888 C1365.41184,2879.616 1365.0432,2886.81984 1364.29056,2896.89088 C1363.3024,2906.9568 1360.26112,2917.57056 1355.17184,2928.72192 C1350.07232,2939.88352 1341.69088,2949.20192 1330.0224,2956.68224 C1318.2208,2964.43904 1301.76,2968.30976 1280.65024,2968.30976 C1259.2896,2968.30976 1241.6512,2963.33824 1227.74016,2953.41568 C1213.46048,2943.07328 1205.5808,2925.7984 1204.09088,2901.58592 L1218.62144,2901.58592 C1220.60288,2920.22272 1227.43296,2933.69344 1239.11168,2941.99296 C1250.53952,2950.42048 1264.50176,2954.64448 1281.024,2954.64448 C1298.16576,2954.368 1311.5136,2950.90688 1321.08288,2944.23552 C1330.7648,2938.11712 1337.78432,2930.69824 1342.1312,2921.99424 C1346.47296,2912.7424 1349.14048,2904.10496 1350.13888,2896.0768 C1350.6304,2888.32512 1350.88128,2882.61632 1350.88128,2878.93504 L1350.88128,2829.55264 L1350.13888,2829.55264 C1336.09984,2861.93152 1312.44032,2878.2592 1279.16032,2878.52544 C1250.71872,2878.25408 1229.4912,2867.98336 1215.45216,2847.70816 C1201.54112,2827.84768 1194.59328,2802.74944 1194.59328,2772.41344 C1194.59328,2742.89152 1201.91488,2718.06464 1216.57344,2697.9328 C1230.85312,2677.66272 1251.712,2667.25888 1279.16544,2666.71104 C1294.93504,2666.71104 1309.34784,2670.86336 1322.38336,2679.16288 C1335.30112,2687.59552 1344.55296,2700.04736 1350.144,2716.50304 L1350.8864,2716.50304 L1350.8864,2671.61088 L1365.41696,2671.61088 L1365.41696,2875.25888 L1365.41696,2875.25888 Z" id="goodreads" fill="#231F20" sketch:type="MSShapeGroup"></path>
        <path d="M1792,3072 C1933.3849,3072 2048,2957.3849 2048,2816 C2048,2674.6151 1933.3849,2560 1792,2560 C1650.6151,2560 1536,2674.6151 1536,2816 C1536,2957.3849 1650.6151,3072 1792,3072 Z M1681.48331,2746.96663 C1697.7665,2746.96663 1710.96663,2733.7665 1710.96663,2717.48331 C1710.96663,2701.20013 1697.7665,2688 1681.48331,2688 C1665.20013,2688 1652,2701.20013 1652,2717.48331 C1652,2733.7665 1665.20013,2746.96663 1681.48331,2746.96663 Z M1821.43751,2717.8456 C1821.43751,2734.26365 1808.12953,2747.57162 1791.71328,2747.57162 C1775.29343,2747.57162 1761.98545,2734.26425 1761.98545,2717.8456 C1761.98545,2701.42754 1775.29343,2688.12017 1791.71328,2688.12017 C1808.12953,2688.12017 1821.43751,2701.42815 1821.43751,2717.8456 Z M1930.66166,2717.8456 C1930.66166,2734.26365 1917.35369,2747.57162 1900.93744,2747.57162 C1884.51819,2747.57162 1871.20961,2734.26425 1871.20961,2717.8456 C1871.20961,2701.42754 1884.51758,2688.12017 1900.93744,2688.12017 C1917.35309,2688.12017 1930.66166,2701.42815 1930.66166,2717.8456 Z M1821.43751,2816.37615 C1821.43751,2832.7942 1808.12953,2846.10218 1791.71328,2846.10218 C1775.29343,2846.10218 1761.98545,2832.7948 1761.98545,2816.37615 C1761.98545,2799.9581 1775.29343,2786.65012 1791.71328,2786.65012 C1808.12953,2786.65012 1821.43751,2799.9587 1821.43751,2816.37615 Z M1930.66166,2815.70919 C1930.66166,2832.12844 1917.35369,2845.43702 1900.93744,2845.43702 C1884.51819,2845.43702 1871.20961,2832.12904 1871.20961,2815.70919 C1871.20961,2799.29114 1884.51758,2785.98316 1900.93744,2785.98316 C1917.35309,2785.98316 1930.66166,2799.29114 1930.66166,2815.70919 Z M1930.66166,2916.24423 C1930.66166,2932.66288 1917.35369,2945.97146 1900.93744,2945.97146 C1884.51819,2945.97146 1871.20961,2932.66348 1871.20961,2916.24423 C1871.20961,2899.82798 1884.51758,2886.5194 1900.93744,2886.5194 C1917.35309,2886.52001 1930.66166,2899.82798 1930.66166,2916.24423 Z" id="coderwall" fill="#000000" sketch:type="MSShapeGroup"></path>
    </g>
</svg>