<?xml version="1.0" encoding="UTF-8" standalone="no"?>
<svg width="3072px" height="512px" viewBox="0 0 3072 512" version="1.1" xmlns="http://www.w3.org/2000/svg" xmlns:xlink="http://www.w3.org/1999/xlink" xmlns:sketch="http://www.bohemiancoding.com/sketch/ns">
    <title>icons</title>
    <description>Created with Sketch (http://www.bohemiancoding.com/sketch)</description>
    <defs></defs>
    <g id="Page-1" stroke="none" stroke-width="1" fill="none" fill-rule="evenodd" sketch:type="MSPage">
        <path d="M494.07245,38.66976 L377.08045,155.56576 C364.74445,167.90176 354.74445,178.15776 346.84045,186.57376 C354.45645,202.90976 351.59245,222.90976 338.12045,236.31776 C320.80845,253.56576 292.80845,253.56576 275.52845,236.31776 C258.21645,219.03776 258.21645,191.05376 275.52845,173.77376 C289.19245,160.10976 309.49645,157.43776 325.92845,165.43776 C333.24045,158.18976 342.92045,148.44576 356.26445,134.94176 L473.25645,18.15776 C490.24845,1.16576001 486.08845,-5.02623999 464.02445,4.42976001 L235.03245,106.09376 C213.30445,115.83776 191.78445,143.21376 187.44845,166.95776 L185.22445,178.86176 C180.88845,202.49376 170.56845,228.58976 162.13645,237.19776 C153.68845,245.66176 160.47245,266.50976 177.62445,283.53376 L228.28045,334.18976 C245.27245,351.18176 266.04045,357.99776 274.61645,349.59776 C282.98445,341.13376 309.41645,330.58976 332.95245,326.47776 L344.79245,324.31776 C368.45645,319.99776 395.80045,298.65376 405.72045,276.79776 L507.44845,47.99776 C517.04845,25.85376 511.01645,21.70976 494.07245,38.66976 L494.07245,38.66976 Z M132.52045,265.53376 L4.18444975,393.66176 C-22.9515502,420.81376 89.6884498,535.99776 118.12045,507.50176 L246.34445,379.34176 C246.34445,379.34176 214.80845,357.34176 184.68045,327.05376 C154.52045,296.97376 132.52045,265.53376 132.52045,265.53376 L132.52045,265.53376 Z" id="write_m" fill="#1D1D1B" sketch:type="MSShapeGroup"></path>
        <path d="M947.71525,191.04 C947.71525,165.328 942.99625,140.256 933.528,116.704 C924.3925,93.952 911.430375,73.52 894.792875,56 C878.155375,38.368 858.96175,24.704 837.36325,15.008 C814.993375,5.024 791.489125,9.09494702e-13 767.0925,9.09494702e-13 C742.832,9.09494702e-13 719.08575,4.992 696.82175,15.008 C675.298875,24.672 656.1355,38.4 639.4375,56 C622.8,73.52 609.88325,93.952 600.68725,116.704 C591.294625,140.304 586.5,165.296 586.5,191.04 C586.5,216.784 591.219,241.824 600.68725,265.376 C605.7995,278.128 612.12175,290.128 619.548125,301.312 L619.548125,301.312 L738.793625,493.328 C754.342125,518.24 779.721875,518.24 795.25525,493.328 L914.455375,301.312 C921.927125,290.128 928.279625,278.128 933.361625,265.376 C943.011375,241.824 947.71525,216.848 947.71525,191.04 L947.71525,191.04 Z M814.721125,241.424 C802.016125,254.864 785.15175,262.272 767.137875,262.272 C749.169375,262.272 732.168875,254.864 719.554625,241.424 C706.879875,227.92 699.877,210.128 699.877,191.088 C699.877,172.08 706.879875,154.208 719.554625,140.768 C732.380625,127.328 749.15425,119.808 767.137875,119.808 C785.106375,119.808 802.076625,127.328 814.721125,140.768 C827.486625,154.208 834.51975,172.064 834.51975,191.088 C834.51975,210.128 827.486625,227.936 814.721125,241.424 L814.721125,241.424 Z" id="location_m" fill="#1D1D1B" sketch:type="MSShapeGroup"></path>
        <path d="M1528.42679,148.068407 C1522.19451,140.395296 1512.74899,136.015667 1502.47368,136.015667 L1426.46817,136.015667 L1442.71093,59.8977037 C1444.88251,49.5617778 1442.51672,39.2608889 1436.26679,31.6052963 C1430.08748,23.9672222 1420.64196,19.6051111 1410.34899,19.6051111 C1391.4403,19.6051111 1374.12058,33.7600741 1370.13051,52.3297037 L1352.28113,135.910556 L1258.26734,135.910556 L1274.5101,59.8276296 C1276.68168,49.4741852 1274.33355,39.1908148 1268.26017,31.5352222 C1262.01024,23.8621111 1252.44113,19.5 1242.14817,19.5 C1223.38072,19.5 1205.93741,33.654963 1202.05327,52.1895556 L1184.02734,135.770407 L1100.46541,135.770407 C1081.64499,135.770407 1064.09575,149.855296 1060.37051,168.442444 C1058.18127,178.743333 1060.51175,189.114296 1066.76168,196.717333 C1072.9763,204.390444 1082.42182,208.752556 1092.73244,208.752556 L1168.7203,208.752556 L1148.5581,303.142333 L1064.87258,303.142333 C1045.91093,303.142333 1028.60886,317.36737 1024.74237,335.866926 C1022.64141,346.132778 1025.07782,356.451185 1031.06293,364.106778 C1037.31286,371.76237 1046.77603,376.124481 1057.06899,376.124481 L1133.1981,376.124481 L1116.92003,452.347556 C1114.7661,462.648444 1117.11424,472.98437 1123.16996,480.482296 C1129.41989,488.155407 1138.98899,492.535037 1149.28196,492.535037 C1168.03175,492.535037 1185.54568,478.31 1189.37686,459.845481 L1207.38513,376.26463 L1301.29299,376.26463 L1285.06789,452.435148 C1282.86099,462.788593 1285.31506,473.089481 1291.44141,480.622444 C1297.65603,488.295556 1307.08389,492.675185 1317.39451,492.675185 C1336.3032,492.675185 1353.76417,478.485185 1357.61299,459.98563 L1375.44472,376.404778 L1459.16555,376.404778 C1478.07424,376.404778 1495.3763,362.214778 1499.36637,343.697704 C1501.44968,333.361778 1498.99562,322.990815 1492.93989,315.440333 C1486.68996,307.767222 1477.29741,303.42263 1467.0221,303.42263 L1390.89299,303.42263 L1411.12582,208.927741 L1494.61713,208.927741 C1513.52582,208.927741 1531.0221,194.825333 1534.81796,176.168111 C1537.06017,166.00737 1534.72968,155.688963 1528.42679,148.068407 L1528.42679,148.068407 Z M1222.55093,303.42263 L1242.7661,208.945259 L1336.79755,208.945259 L1316.56472,303.42263 L1222.55093,303.42263 L1222.55093,303.42263 Z" id="hash_m" fill="#1D1D1B" sketch:type="MSShapeGroup"></path>
        <g id="dload_m" sketch:type="MSLayerGroup" transform="translate(1536.000000, 0.000000)" fill="#1D1D1B">
            <path d="M464.496,314.048 C440.24,314.048 420.704,333.712 420.704,357.92 L420.704,397.44 C420.704,410.128 410.368,420.448 397.696,420.448 L107.2,420.448 C94.528,420.448 84.192,410.112 84.192,397.44 L84.192,357.92 C84.192,333.6 64.528,314.048 40.32,314.048 C16.112,314.048 -3.568,333.712 -3.568,357.92 L-3.568,397.44 C-3.568,458.48 46.112,508.24 107.2,508.24 L397.664,508.24 C458.736,508.24 508.432,458.576 508.432,397.44 L508.432,357.92 C508.432,333.68 488.8,314.048 464.496,314.048 L464.496,314.048 Z" id="Shape" sketch:type="MSShapeGroup"></path>
            <path d="M226.288,365.184 C234.864,373.68 246.08,378.048 257.296,378.048 C268.528,378.048 279.712,373.712 288.304,365.2 L423.472,230.048 C440.464,212.96 440.464,185.056 423.472,167.984 C406.32,150.88 378.48,150.88 361.408,167.968 L301.072,228.256 L301.072,40.128 C301.072,15.792 281.408,-3.728 257.216,-3.728 C232.96,-3.728 213.36,15.936 213.36,40.128 L213.36,228.24 L155.792,170.672 C138.704,153.584 110.832,153.6 93.696,170.672 C76.608,187.712 76.608,215.648 93.696,232.736 L226.288,365.184 L226.288,365.184 Z" id="Shape" sketch:type="MSShapeGroup"></path>
        </g>
        <path d="M2540.19291,434.010438 C2520.38583,413.857188 2441.75726,393.912625 2402.36251,373.684844 C2376.20663,360.328844 2363.04091,331.768469 2363.04091,306.576906 C2363.04091,293.787344 2371.39383,283.054844 2379.02994,274.319781 C2399.48069,250.410156 2415.54286,206.913719 2415.54286,146.558313 C2415.54286,57.5978125 2363.05554,17.5 2304,17.5 C2244.92983,17.5 2192.44251,57.5978125 2192.44251,146.558313 C2192.44251,206.913719 2208.43154,250.499594 2228.91154,274.319781 C2236.45989,283.054844 2244.94446,293.787344 2244.94446,306.576906 C2244.94446,331.738656 2231.73486,360.299031 2205.62286,373.684844 C2166.30126,393.867906 2087.57029,413.857188 2067.69006,434.010438 C2048,454.1935 2048,494.529813 2048,494.529813 L2304,494.529813 L2560,494.529813 C2559.95611,494.395656 2559.95611,454.118969 2540.19291,434.010438 L2540.19291,434.010438 Z" id="profile_m" fill="#1D1D1B" sketch:type="MSShapeGroup"></path>
        <path d="M3060.20285,240.514643 L2847.77085,44.6168929 C2830.20285,28.4610357 2801.77085,28.4610357 2784.17085,44.6168929 L2571.73885,240.514643 C2554.17085,256.606643 2556.69885,269.761214 2576.79485,269.761214 L2628.10685,269.761214 L2628.10685,312.832857 L2628.10685,439.669107 C2628.10685,463.312214 2647.54685,482.708821 2671.29085,482.708821 L2960.50685,482.708821 C2984.17085,482.708821 3003.61085,463.312214 3003.61085,439.669107 L3003.61085,312.832857 L3003.61085,269.761214 L3054.76285,269.761214 C3075.33885,269.761214 3077.62685,256.574714 3060.20285,240.514643 L3060.20285,240.514643 Z" id="home_m" fill="#1D1D1B" sketch:type="MSShapeGroup"></path>
    </g>
</svg>