<?xml version="1.0" encoding="UTF-8" standalone="no"?>
<!-- Created with Inkscape (http://www.inkscape.org/) -->
<svg
   xmlns:dc="http://purl.org/dc/elements/1.1/"
   xmlns:cc="http://creativecommons.org/ns#"
   xmlns:rdf="http://www.w3.org/1999/02/22-rdf-syntax-ns#"
   xmlns:svg="http://www.w3.org/2000/svg"
   xmlns="http://www.w3.org/2000/svg"
   xmlns:sodipodi="http://sodipodi.sourceforge.net/DTD/sodipodi-0.dtd"
   xmlns:inkscape="http://www.inkscape.org/namespaces/inkscape"
   width="744.09448819"
   height="1052.3622047"
   id="svg2"
   sodipodi:version="0.32"
   inkscape:version="0.46"
   sodipodi:docname="diliago-portrait.svg"
   inkscape:output_extension="org.inkscape.output.svg.inkscape">
  <defs
     id="defs4">
    <inkscape:perspective
       sodipodi:type="inkscape:persp3d"
       inkscape:vp_x="0 : 526.18109 : 1"
       inkscape:vp_y="0 : 1000 : 0"
       inkscape:vp_z="744.09448 : 526.18109 : 1"
       inkscape:persp3d-origin="372.04724 : 350.78739 : 1"
       id="perspective10" />
  </defs>
  <sodipodi:namedview
     id="base"
     pagecolor="#ffffff"
     bordercolor="#666666"
     borderopacity="1.0"
     gridtolerance="10000"
     guidetolerance="10"
     objecttolerance="10"
     inkscape:pageopacity="0.0"
     inkscape:pageshadow="2"
     inkscape:zoom="0.49497475"
     inkscape:cx="317.53671"
     inkscape:cy="360.96047"
     inkscape:document-units="px"
     inkscape:current-layer="layer2"
     showgrid="false"
     inkscape:window-width="1280"
     inkscape:window-height="751"
     inkscape:window-x="-4"
     inkscape:window-y="-4"
     showguides="true"
     inkscape:guide-bbox="true">
    <inkscape:grid
       type="xygrid"
       id="grid3211" />
  </sodipodi:namedview>
  <metadata
     id="metadata7">
    <rdf:RDF>
      <cc:Work
         rdf:about="">
        <dc:format>image/svg+xml</dc:format>
        <dc:type
           rdf:resource="http://purl.org/dc/dcmitype/StillImage" />
      </cc:Work>
    </rdf:RDF>
  </metadata>
  <g
     inkscape:label="drawing"
     inkscape:groupmode="layer"
     id="layer1"
     sodipodi:insensitive="true">
    <path
       sodipodi:type="arc"
       style="opacity:1;fill:#f5deb3;fill-opacity:1;fill-rule:evenodd;stroke:#000000;stroke-width:2;stroke-miterlimit:4;stroke-dasharray:none;stroke-dashoffset:0;stroke-opacity:1"
       id="path2385"
       sodipodi:cx="364.28571"
       sodipodi:cy="530.93359"
       sodipodi:rx="261.42856"
       sodipodi:ry="458.57144"
       d="M 625.71426,530.93359 A 261.42856,458.57144 0 1 1 102.85715,530.93359 A 261.42856,458.57144 0 1 1 625.71426,530.93359 z"
       transform="matrix(0.9398617,0,0,0.9460166,12.094373,79.432856)" />
    <path
       sodipodi:type="arc"
       style="opacity:1;fill:#f5deb3;fill-opacity:1;fill-rule:evenodd;stroke:#000000;stroke-width:2;stroke-miterlimit:4;stroke-dasharray:none;stroke-dashoffset:0;stroke-opacity:1"
       id="path2397"
       sodipodi:cx="242.85715"
       sodipodi:cy="425.21933"
       sodipodi:rx="65.714287"
       sodipodi:ry="32.857143"
       d="M 308.57143,425.21933 A 65.714287,32.857143 0 1 1 177.14286,425.21933 A 65.714287,32.857143 0 1 1 308.57143,425.21933 z"
       transform="matrix(0.9398617,0,0,0.9460166,12.094373,78.0814)" />
    <path
       sodipodi:type="arc"
       style="opacity:1;fill:#f5deb3;fill-opacity:1;fill-rule:evenodd;stroke:#000000;stroke-width:2;stroke-miterlimit:4;stroke-dasharray:none;stroke-dashoffset:0;stroke-opacity:1"
       id="path2401"
       sodipodi:cx="242.85715"
       sodipodi:cy="425.21933"
       sodipodi:rx="65.714287"
       sodipodi:ry="32.857143"
       d="M 308.57143,425.21933 A 65.714287,32.857143 0 1 1 177.14286,425.21933 A 65.714287,32.857143 0 1 1 308.57143,425.21933 z"
       transform="matrix(0.9398617,0,0,0.9460166,218.86395,78.0814)" />
    <path
       style="fill:#dcdcdc;fill-rule:evenodd;stroke:#000000;stroke-width:1px;stroke-linecap:butt;stroke-linejoin:miter;stroke-opacity:1"
       d="M 308.57143,765.21933 L 241.42857,763.79075 L 197.14286,792.36218 L 208.57142,880.93361 L 242.85714,952.36218 L 285.71428,1015.2193 L 354.28571,1028.0765 L 421.42857,1012.3622 L 471.42857,952.36218 L 497.14286,876.6479 L 504.28571,776.6479 L 450,755.21933 L 375.71429,756.6479 L 308.57143,765.21933 z"
       id="path3205"
       sodipodi:nodetypes="cccccccccccccc" />
    <path
       style="fill:#f5deb3;fill-rule:evenodd;stroke:#000000;stroke-width:0.94293416px;stroke-linecap:butt;stroke-linejoin:miter;stroke-opacity:1"
       d="M 302.10885,483.04884 L 315.53544,685.76668 C 315.53544,685.76668 264.43963,695.12089 273.913,739.14904 C 276.77141,752.43374 298.94887,746.76867 307.47948,756.71791 C 318.84163,769.96956 326.58633,784.51587 343.05997,782.39552 C 353.07252,781.10678 370.22876,769.88054 374.62541,758.84593 C 379.47973,746.66267 407.26475,743.54513 407.94859,733.76312 C 411.39378,683.80542 364.54252,684.41523 364.54252,684.41523 L 385.35375,480.34593"
       id="path2403"
       sodipodi:nodetypes="ccssssscc" />
    <path
       sodipodi:type="arc"
       style="opacity:1;fill:none;fill-opacity:1;fill-rule:evenodd;stroke:#000000;stroke-width:2;stroke-miterlimit:4;stroke-dasharray:none;stroke-dashoffset:0;stroke-opacity:1"
       id="path2391"
       sodipodi:cx="241.42857"
       sodipodi:cy="423.79074"
       sodipodi:rx="87.14286"
       sodipodi:ry="91.428574"
       d="M 328.57143,423.79074 A 87.14286,91.428574 0 1 1 154.28571,423.79074 A 87.14286,91.428574 0 1 1 328.57143,423.79074 z"
       transform="matrix(0.9398617,0,0,0.9460166,12.094373,79.432856)" />
    <path
       sodipodi:type="arc"
       style="opacity:1;fill:none;fill-opacity:1;fill-rule:evenodd;stroke:#000000;stroke-width:2;stroke-miterlimit:4;stroke-dasharray:none;stroke-dashoffset:0;stroke-opacity:1"
       id="path2393"
       sodipodi:cx="460"
       sodipodi:cy="422.36218"
       sodipodi:rx="88.571426"
       sodipodi:ry="92.85714"
       d="M 548.57143,422.36218 A 88.571426,92.85714 0 1 1 371.42857,422.36218 A 88.571426,92.85714 0 1 1 548.57143,422.36218 z"
       transform="matrix(0.9398617,0,0,0.9460166,12.094373,79.432856)" />
    <path
       style="fill:#f5deb3;fill-opacity:1;fill-rule:evenodd;stroke:#000000;stroke-width:0.94539154px;stroke-linecap:butt;stroke-linejoin:miter;stroke-opacity:1"
       d="M 339.99873,792.39529 L 239.97892,782.18286 L 208.54413,800.05462 L 224.26152,866.43547 L 295.70424,964.73016 L 357.14498,972.38949 L 418.58572,960.90049 L 477.16875,862.60579 L 484.31301,792.39529 L 434.30311,780.90631 L 339.99873,792.39529 z"
       id="path3207" />
    <path
       style="fill:#f5f5f5;fill-rule:evenodd;stroke:#000000;stroke-width:0.94293416px;stroke-linecap:butt;stroke-linejoin:miter;stroke-opacity:1"
       d="M 219.06437,809.32227 C 219.06437,809.32227 279.23672,827.36753 310.20714,836.07967 C 342.06961,845.04275 352.26935,840.74276 384.26062,832.25719 C 406.4314,826.37647 465.90935,809.32227 465.90935,809.32227 C 465.90935,809.32227 432.79928,848.76595 403.2487,866.65954 C 373.92476,884.41591 336.91222,889.20975 304.51071,878.12699 C 271.22351,866.74128 219.06437,809.32227 219.06437,809.32227 z"
       id="path2405"
       sodipodi:nodetypes="csscssc" />
    <path
       style="fill:#c0c0c0;fill-rule:evenodd;stroke:#000000;stroke-width:0.94293416px;stroke-linecap:butt;stroke-linejoin:miter;stroke-opacity:1"
       d="M 323.49879,96.428968 C 293.47323,106.50804 256.03085,42.530357 226.65962,54.381641 C 201.89728,64.373239 215.63858,123.27085 192.48108,136.56505 C 159.08034,155.73966 93.045723,92.693979 65.260982,119.36387 C 43.241476,140.49986 84.325713,191.67712 74.755019,220.65971 C 67.266481,243.33698 21.798191,256.02742 21.58841,279.90822 C 21.328549,309.49003 87.593341,324.89903 86.147863,354.44665 C 84.804812,381.90052 18.329304,390.06462 19.689603,417.51764 C 20.938821,442.72886 84.528083,443.93105 86.147863,469.12118 C 88.170572,500.57749 16.075228,512.39074 12.094373,543.65963 C 9.2427705,566.05845 46.04376,586.4242 50.070522,608.64185 C 55.465717,638.40983 12.638735,685.63398 32.981255,708.02645 C 43.351925,719.44219 72.808999,693.86013 84.249056,704.20397 C 100.41598,718.82173 66.89114,766.622 86.147863,776.83116 C 99.296813,783.80222 121.77806,763.6291 127.92163,750.07377 C 138.9331,725.77776 114.62997,662.15662 114.62997,662.15662 L 78.552634,652.60043 L 61.463367,581.88447 L 74.755019,518.81348 L 120.32641,499.70105 C 120.32641,499.70105 130.48971,402.6477 146.90971,371.64783 C 162.99831,341.27362 176.10315,296.81061 200.07631,272.26325 C 214.04718,257.95775 255.94599,240.33701 274.1298,232.12715 C 291.55497,224.2598 323.44117,222.07983 342.48688,220.6597 C 360.88619,219.28777 392.8865,225.95469 410.84394,230.21591 C 423.64424,233.25337 444.83475,239.23245 456.41531,245.50585 C 473.17989,254.58751 495.21353,273.0726 507.68312,287.55317 C 525.91928,308.7303 542.04131,341.19134 555.15329,365.91411 C 573.27245,400.07796 584.75722,455.2719 595.02825,490.14485 C 597.34644,498.01571 619.71275,501.6123 619.71275,501.6123 L 642.49844,581.88447 L 612.11753,669.8016 L 596.92707,664.06788 C 596.92707,664.06788 584.00717,697.0457 589.33184,709.93769 C 594.95619,723.55525 616.34225,745.78788 629.20679,738.60632 C 643.26011,730.76113 618.74866,699.74352 625.40917,685.09154 C 636.04231,661.70048 688.64993,658.66793 693.76625,633.48801 C 697.85222,613.37893 657.18117,594.61789 659.58771,574.2395 C 663.57057,540.51298 738.91234,525.98499 737.43881,492.05609 C 735.48944,447.17052 625.70189,437.59843 625.40917,392.6715 C 625.19834,360.31282 712.15635,351.63807 705.15909,320.04429 C 697.67436,286.2495 611.69316,315.97987 595.02825,285.64194 C 575.01431,249.20722 658.49492,183.12594 631.1056,151.85499 C 608.01225,125.48885 544.97664,185.75911 515.27835,167.14493 C 483.03631,146.93638 512.80816,53.723656 475.40339,46.736672 C 445.46224,41.143846 441.07744,128.79725 410.84394,125.0976 C 378.04673,121.08423 396.39661,26.833443 363.37375,25.713009 C 339.03271,24.88714 346.58769,88.678413 323.49879,96.428968 z"
       id="path2407"
       sodipodi:nodetypes="csssssssssssssscccccsssssssssccccsssssssssssssss" />
    <path
       style="fill:#ffdab9;fill-rule:evenodd;stroke:#000000;stroke-width:1px;stroke-linecap:butt;stroke-linejoin:miter;stroke-opacity:1"
       d="M 157.8289,478.29096 L 119.198,494.4534 L 127.27922,502.53462 L 158.17553,494.6985 L 157.8289,478.29096 z"
       id="path3179"
       sodipodi:nodetypes="ccccc" />
    <path
       sodipodi:type="arc"
       style="opacity:1;fill:#f5deb3;fill-opacity:1;fill-rule:evenodd;stroke:#000000;stroke-width:2;stroke-miterlimit:4;stroke-dasharray:none;stroke-dashoffset:0;stroke-opacity:1"
       id="path2387"
       sodipodi:cx="102.85714"
       sodipodi:cy="535.2193"
       sodipodi:rx="51.42857"
       sodipodi:ry="97.14286"
       d="M 154.28571,535.2193 A 51.42857,97.14286 0 1 1 51.42857,535.2193 A 51.42857,97.14286 0 1 1 154.28571,535.2193 z"
       transform="matrix(0.9398617,0,0,0.9460166,12.094373,79.432856)" />
    <path
       sodipodi:type="arc"
       style="opacity:1;fill:#f5deb3;fill-opacity:1;fill-rule:evenodd;stroke:#000000;stroke-width:2;stroke-miterlimit:4;stroke-dasharray:none;stroke-dashoffset:0;stroke-opacity:1"
       id="path2389"
       sodipodi:cx="102.85714"
       sodipodi:cy="535.2193"
       sodipodi:rx="51.42857"
       sodipodi:ry="97.14286"
       d="M 154.28571,535.2193 A 51.42857,97.14286 0 1 1 51.42857,535.2193 A 51.42857,97.14286 0 1 1 154.28571,535.2193 z"
       transform="matrix(-0.9398617,0,0,0.9460166,691.48014,76.729951)" />
    <path
       style="fill:#ffdab9;fill-rule:evenodd;stroke:#000000;stroke-width:1.26223481px;stroke-linecap:butt;stroke-linejoin:miter;stroke-opacity:1"
       d="M 527.49145,478.22861 L 574.35765,499.45432 L 564.55368,510.06718 L 527.07093,499.7762 L 527.49145,478.22861 z"
       id="path3181"
       sodipodi:nodetypes="ccccc" />
    <path
       style="fill:none;fill-rule:evenodd;stroke:#000000;stroke-width:1px;stroke-linecap:butt;stroke-linejoin:miter;stroke-opacity:1"
       d="M 220,808.07647 C 220,808.07647 266.89305,847.65543 291.42857,855.21933 C 319.28108,863.8058 360.43706,864.2602 388.57143,856.6479 C 414.18386,849.71796 464.28571,810.93361 464.28571,810.93361 L 472.85714,806.6479"
       id="path3203"
       sodipodi:nodetypes="csscc" />
  </g>
  <g
     inkscape:groupmode="layer"
     id="layer2"
     inkscape:label="pieces">
    <path
       style="fill:none;fill-rule:evenodd;stroke:#000000;stroke-width:3;stroke-linecap:butt;stroke-linejoin:miter;stroke-opacity:1;opacity:1;stroke-miterlimit:4;stroke-dasharray:3,9;stroke-dashoffset:0"
       d="M -40.406102,417.98638 L 771.75654,417.98638"
       id="path3218" />
    <path
       style="fill:none;fill-rule:evenodd;stroke:#000000;stroke-width:3;stroke-linecap:butt;stroke-linejoin:miter;stroke-opacity:1;opacity:1;stroke-miterlimit:4;stroke-dasharray:3,9;stroke-dashoffset:0"
       d="M -42.426407,533.14377 L 769.73624,533.14377"
       id="path3220" />
    <path
       style="fill:none;fill-rule:evenodd;stroke:#000000;stroke-width:3;stroke-linecap:butt;stroke-linejoin:miter;stroke-opacity:1;stroke-miterlimit:4;stroke-dasharray:3,9;stroke-dashoffset:0"
       d="M 208.09142,-36.582261 L 208.09142,1064.484"
       id="path3222" />
    <path
       style="fill:none;fill-rule:evenodd;stroke:#000000;stroke-width:3;stroke-linecap:butt;stroke-linejoin:miter;stroke-opacity:1;stroke-miterlimit:4;stroke-dasharray:3,9;stroke-dashoffset:0"
       d="M 474.77169,-20.41982 L 474.77169,1066.5043"
       id="path3226" />
    <path
       style="fill:none;fill-rule:evenodd;stroke:#000000;stroke-width:3;stroke-linecap:butt;stroke-linejoin:miter;stroke-opacity:1;opacity:1;stroke-miterlimit:4;stroke-dasharray:3,9;stroke-dashoffset:0"
       d="M -36.365492,636.17933 L 775.79715,636.17933"
       id="path3228" />
    <path
       style="fill:none;fill-rule:evenodd;stroke:#000000;stroke-width:3;stroke-linecap:butt;stroke-linejoin:miter;stroke-opacity:1;opacity:1;stroke-miterlimit:4;stroke-dasharray:3,9;stroke-dashoffset:0"
       d="M -32.324881,741.2352 L 769.73624,741.2352"
       id="path3230" />
    <path
       style="fill:none;fill-rule:evenodd;stroke:#000000;stroke-width:3;stroke-linecap:butt;stroke-linejoin:miter;stroke-opacity:1;stroke-miterlimit:4;stroke-dasharray:3,9;stroke-dashoffset:0"
       d="M 258.59905,-14.358905 L 258.59905,1084.6871"
       id="path3232" />
    <path
       style="fill:none;fill-rule:evenodd;stroke:#000000;stroke-width:3;stroke-linecap:butt;stroke-linejoin:miter;stroke-opacity:1;stroke-miterlimit:4;stroke-dasharray:3,9;stroke-dashoffset:0"
       d="M 416.18285,-16.37921 L 416.18285,1098.8292"
       id="path3234" />
    <path
       style="fill:none;fill-rule:evenodd;stroke:#000000;stroke-width:3;stroke-linecap:butt;stroke-linejoin:miter;stroke-opacity:1;opacity:1;stroke-miterlimit:4;stroke-dasharray:3,9;stroke-dashoffset:0"
       d="M 341.43156,-12.3386 L 341.43156,1098.8292"
       id="path3236" />
    <path
       style="fill:none;fill-rule:evenodd;stroke:#000000;stroke-width:3;stroke-linecap:butt;stroke-linejoin:miter;stroke-opacity:1;opacity:1;stroke-miterlimit:4;stroke-dasharray:3,9;stroke-dashoffset:0"
       d="M -40.406102,809.92557 L 771.75654,809.92557"
       id="path3238" />
    <path
       style="fill:none;fill-rule:evenodd;stroke:#000000;stroke-width:3;stroke-linecap:butt;stroke-linejoin:miter;stroke-opacity:1;opacity:1;stroke-miterlimit:4;stroke-dasharray:3,9;stroke-dashoffset:0"
       d="M -44.446712,868.51442 L 769.73624,868.51442"
       id="path3242" />
  </g>
</svg>
