<?xml version="1.0" encoding="UTF-8" standalone="no"?>
<svg width="512px" height="512px" viewBox="0 0 512 512" version="1.1" xmlns="http://www.w3.org/2000/svg" xmlns:xlink="http://www.w3.org/1999/xlink" xmlns:sketch="http://www.bohemiancoding.com/sketch/ns">
    <title>apple</title>
    <description>Created with Sketch (http://www.bohemiancoding.com/sketch)</description>
    <defs></defs>
    <g id="Page-1" stroke="none" stroke-width="1" fill="none" fill-rule="evenodd" sketch:type="MSPage">
        <path d="M256,0 C114.61468,0 0,114.61468 0,256 C0,397.38532 114.61468,512 256,512 C397.38532,512 512,397.38532 512,256 C512,114.61468 397.38532,0 256,0 L256,0 Z M318.973515,83.535534 C323.115495,121.248311 289.425398,160.59899 254.332272,157.871223 C249.99767,124.909359 280.984854,85.0665631 318.973515,83.535534 L318.973515,83.535534 Z M314.387883,405.670524 C292.772039,406.080621 285.838913,392.865553 261.131184,392.865553 C236.435883,392.865553 228.721087,405.272854 208.28334,406.080621 C173.717126,407.392932 123.420583,327.755806 123.420583,258.305243 C123.420583,194.501592 164.816777,162.873165 203.660427,162.29033 C224.488388,161.918757 244.16435,176.338019 256.879845,176.338019 C269.62765,176.338019 293.527612,158.998369 318.64668,161.548427 C329.152621,161.984621 358.68334,165.786097 377.636039,193.497476 C327.348194,226.311456 332.11899,294.949282 386.093981,320.181437 C375.529631,350.823146 346.971961,405.081476 314.387883,405.670524 L314.387883,405.670524 Z" id="apple" fill="#000000" sketch:type="MSShapeGroup"></path>
    </g>
</svg>
