<?xml version="1.0" encoding="UTF-8" standalone="no"?>
<svg width="512px" height="512px" viewBox="0 0 512 512" version="1.1" xmlns="http://www.w3.org/2000/svg" xmlns:xlink="http://www.w3.org/1999/xlink" xmlns:sketch="http://www.bohemiancoding.com/sketch/ns">
    <title>download</title>
    <description>Created with Sketch (http://www.bohemiancoding.com/sketch)</description>
    <defs></defs>
    <g id="Page-1" stroke="none" stroke-width="1" fill="none" fill-rule="evenodd" sketch:type="MSPage">
        <rect id="Path" fill="#E8E7E7" sketch:type="MSShapeGroup" x="0" y="0" width="512" height="512" rx="100"></rect>
        <path d="M482.534765,0 C501.524962,3.00906574e-06 512,16.1826923 512,60.552838 L512,153 C512,153 496.893058,100.509522 482.534764,60.5528378 C468.176471,20.5961538 467.754301,25.4035935 433.117647,16.1826923 C398.480993,6.96179068 363,0 363,0 L482.534765,0 Z" id="Path" fill="#000000" sketch:type="MSShapeGroup"></path>
        <path d="M236.896639,342.194711 C243.437197,348.670592 251.991175,352 260.545152,352 C269.111331,352 277.640903,348.694983 284.193665,342.206907 L387.280681,239.190394 C400.239773,226.165458 400.239773,204.896274 387.280681,191.883534 C374.199563,178.846402 352.967152,178.846402 339.947047,191.871338 L293.931288,237.824483 L293.931288,94.4282302 C293.931288,75.8786723 278.934372,61 260.484139,61 C241.985096,61 227.03699,75.988433 227.03699,94.4282302 L227.03699,237.812288 L183.132269,193.9324 C170.099962,180.907464 148.843146,180.91966 135.774231,193.9324 C122.741923,206.920749 122.741923,228.214325 135.774231,241.239261 L236.896639,342.194711 L236.896639,342.194711 Z M417.533125,303 C399.056875,303 384.175938,317.98657 384.175938,336.436269 L384.175938,366.555739 C384.175938,376.225674 376.302813,384.090879 366.650312,384.090879 L145.374063,384.090879 C135.721563,384.090879 127.848437,376.213479 127.848437,366.555739 L127.848437,336.436269 C127.848437,317.901211 112.87,303 94.4303125,303 C75.990625,303 61,317.98657 61,336.436269 L61,366.555739 C61,413.076296 98.8421875,451 145.374063,451 L366.625937,451 C413.145625,451 451,413.14946 451,366.555739 L451,336.436269 C451,317.962182 436.045938,303 417.533125,303 L417.533125,303 Z" id="Shape" fill="#000000" sketch:type="MSShapeGroup"></path>
    </g>
</svg>