<?xml version="1.0" encoding="UTF-8" standalone="no"?>
<svg width="512px" height="512px" viewBox="0 0 512 512" version="1.1" xmlns="http://www.w3.org/2000/svg" xmlns:xlink="http://www.w3.org/1999/xlink" xmlns:sketch="http://www.bohemiancoding.com/sketch/ns">
    <title>friendfeed</title>
    <description>Created with Sketch (http://www.bohemiancoding.com/sketch)</description>
    <defs></defs>
    <g id="Page-1" stroke="none" stroke-width="1" fill="none" fill-rule="evenodd" sketch:type="MSPage">
        <path d="M256.000006,512.000974 C397.384909,512.000974 512.000006,397.385877 512.000006,256.000974 C512.000006,114.616071 397.384909,0.00097434579 256.000006,0.00097434579 C114.615103,0.00097434579 5.8324286e-06,114.616071 5.8324286e-06,256.000974 C5.8324286e-06,397.385877 114.615103,512.000974 256.000006,512.000974 Z M319.90959,122.249668 C307.279989,122.271871 293.634146,124.50097 279.767078,131.8918 C264.164721,126.287085 247.689502,121.556034 224.784591,123.253873 C172.98057,128.077748 153.207044,154.254216 150.165807,191.586613 C139.241803,192.831035 128.91861,195.711771 128.169335,224.572895 C127.452428,257.259574 137.681728,262.586889 148.592089,266.205396 L149.379082,362.025367 C150.9207,373.339925 148.805824,385.948928 174.51443,388.734166 L213.000031,389.521158 C227.086718,391.356761 236.860194,382.405589 242.060712,362.025635 C243.88829,378.592607 251.169444,387.67004 264.84391,387.94744 L309.615019,387.94744 C319.735178,385.250212 330.836537,384.354078 332.389657,365.950968 L333.17665,266.205396 L344.953452,266.983829 C354.571508,265.590943 364.152382,264.002245 370.875258,248.134525 L370.875258,218.286851 C368.931584,206.102375 365.635149,207.546889 362.237331,204.936598 C371.38378,202.912673 380.8301,201.954212 384.225511,179.80125 L383.447078,155.452895 C383.766744,140.176088 375.255078,131.496966 353.926025,125.839553 C344.152817,124.412694 332.539726,122.226395 319.910392,122.248866 L319.90959,122.249668 Z M230.743747,145.626989 C236.901389,145.558241 245.388177,146.559503 263.185929,152.264264 L263.738589,181.149196 C254.477648,177.903052 246.368039,174.157748 239.858898,175.038901 C219.715684,174.093012 217.826046,184.373405 216.5316,195.026429 L216.5316,215.583202 L268.183145,216.135863 C269.426229,188.901689 262.102275,154.17557 307.220871,148.171206 C326.917088,145.551553 345.01257,148.068218 358.713251,153.929735 L358.160591,184.480406 C351.076854,178.814433 341.513903,176.865142 331.502083,175.591294 C303.652921,171.675858 310.067634,196.614592 308.727446,215.022517 L345.940804,215.022517 L345.940804,242.24171 L308.727446,242.24171 L309.280106,365.540619 L268.183145,364.427541 L268.183145,242.241977 L214.865862,243.346763 L214.865862,364.427541 L173.7689,364.427541 L174.873686,243.346763 L154.877866,243.346763 L154.325205,212.804653 L175.986764,213.917731 L175.434104,205.581279 C176.404604,185.67748 174.665034,151.366258 217.317791,146.020218 C222.573682,146.381881 225.954112,145.680222 230.743212,145.626721 L230.743747,145.626989 Z" id="friendfeed" fill="#000000" sketch:type="MSShapeGroup"></path>
    </g>
</svg>