<?xml version="1.0" encoding="UTF-8" standalone="no"?>
<svg width="512px" height="512px" viewBox="0 0 512 512" version="1.1" xmlns="http://www.w3.org/2000/svg" xmlns:xlink="http://www.w3.org/1999/xlink" xmlns:sketch="http://www.bohemiancoding.com/sketch/ns">
    <title>_hash</title>
    <description>Created with Sketch (http://www.bohemiancoding.com/sketch)</description>
    <defs></defs>
    <g id="Page-1" stroke="none" stroke-width="1" fill="none" fill-rule="evenodd" sketch:type="MSPage">
        <path d="M256,512 C397.384903,512 512,397.384903 512,256 C512,114.615097 397.384903,0 256,0 C114.615097,0 0,114.615097 0,256 C0,397.384903 114.615097,512 256,512 Z M400.792057,192.721399 C397.162208,188.26194 391.660878,185.716586 385.676255,185.716586 L341.408548,185.716586 L350.868778,141.478341 C352.133569,135.471307 350.755666,129.484635 347.115534,125.035357 C343.516534,120.596261 338.015204,118.061088 332.020298,118.061088 C321.007356,118.061088 310.919871,126.287671 308.595945,137.07997 L298.199975,185.655498 L243.443752,185.655498 L252.903982,141.437616 C254.168774,135.4204 252.801153,129.44391 249.26385,124.994632 C245.623718,120.535172 240.050409,118 234.055502,118 C223.124823,118 212.965359,126.226583 210.70313,136.998519 L200.204331,185.574047 L151.53556,185.574047 C140.574033,185.574047 130.352871,193.759904 128.183188,204.562384 C126.908113,210.549056 128.265451,216.576453 131.905583,220.995187 C135.525149,225.454646 141.026478,227.989819 147.031668,227.989819 L191.289092,227.989819 L179.546067,282.847279 L130.805317,282.847279 C119.761527,282.847279 109.684325,291.114587 107.432379,301.866161 C106.208719,307.832469 107.627753,313.829322 111.113642,318.278601 C114.753774,322.727879 120.265387,325.263051 126.260293,325.263051 L170.59998,325.263051 L161.119185,369.562384 C159.864676,375.549056 161.232296,381.55609 164.759317,385.913736 C168.399449,390.373195 173.972758,392.918549 179.967665,392.918549 C190.888061,392.918549 201.088657,384.65124 203.320037,373.92003 L213.808553,325.344502 L268.503079,325.344502 L259.053132,369.613291 C257.767774,375.630507 259.197092,381.617179 262.765244,385.995187 C266.38481,390.454646 271.875856,393 277.881046,393 C288.893988,393 299.063735,384.753054 301.305398,374.001481 L311.691086,325.425953 L360.452402,325.425953 C371.465344,325.425953 381.542545,317.179008 383.866471,306.417253 C385.079849,300.410218 383.650531,294.382821 380.123511,289.994632 C376.483379,285.535172 371.012898,283.010181 365.028274,283.010181 L320.688587,283.010181 L332.472743,228.091633 L381.100382,228.091633 C392.113324,228.091633 402.303637,219.895594 404.514452,209.052388 C405.820375,203.147168 404.463038,197.150315 400.792057,192.721399 L400.792057,192.721399 Z M223,283 L234.678257,228 L289,228 L277.311544,283 L223,283 L223,283 Z" id="hash" fill="#000000" sketch:type="MSShapeGroup"></path>
    </g>
</svg>
