<?xml version="1.0" encoding="UTF-8" standalone="no"?>
<svg width="512px" height="512px" viewBox="0 0 512 512" version="1.1" xmlns="http://www.w3.org/2000/svg" xmlns:xlink="http://www.w3.org/1999/xlink" xmlns:sketch="http://www.bohemiancoding.com/sketch/ns">
    <title>instagram-1</title>
    <description>Created with Sketch (http://www.bohemiancoding.com/sketch)</description>
    <defs></defs>
    <g id="Page-1" stroke="none" stroke-width="1" fill="none" fill-rule="evenodd" sketch:type="MSPage">
        <path d="M158,129.259622 C140.747728,133.698246 128,149.354067 128,168 L128,344 C128,366.09139 145.899674,384 168,384 L344,384 C366.09139,384 384,366.100326 384,344 L384,168 C384,145.90861 366.100326,128 344,128 L179,128 L179,158.999968 C179,161.754469 176.759927,164 173.996657,164 L163.003343,164 C160.247368,164 158,161.761409 158,158.999968 L158,129.259622 Z M165.744449,226.374194 L128,226.374194 L128,193.341935 L184.634232,193.341935 C202.039047,173.534061 227.559546,161.032258 256,161.032258 C284.440454,161.032258 309.960953,173.534061 327.365768,193.341935 L384,193.341935 L384,226.374194 L346.255551,226.374194 C349.313663,235.696433 350.967742,245.655051 350.967742,256 C350.967742,308.449238 308.449238,350.967742 256,350.967742 C203.550762,350.967742 161.032258,308.449238 161.032258,256 C161.032258,245.655051 162.686337,235.696433 165.744449,226.374194 L165.744449,226.374194 Z M345.963017,148.032258 C341.547349,148.032258 337.967742,151.620149 337.967742,156.027533 L337.967742,166.036983 C337.967742,170.452651 341.555633,174.032258 345.963017,174.032258 L355.972467,174.032258 C360.388135,174.032258 363.967742,170.444367 363.967742,166.036983 L363.967742,156.027533 C363.967742,151.611865 360.379851,148.032258 355.972467,148.032258 L345.963017,148.032258 Z M256,317.212903 C290.206025,317.212903 317.935484,289.483444 317.935484,255.277419 C317.935484,221.071394 290.206025,193.341935 256,193.341935 C221.793975,193.341935 194.064516,221.071394 194.064516,255.277419 C194.064516,289.483444 221.793975,317.212903 256,317.212903 Z M272.516129,242.890323 C281.637736,242.890323 289.032258,235.4958 289.032258,226.374194 C289.032258,217.252587 281.637736,209.858065 272.516129,209.858065 C263.394522,209.858065 256,217.252587 256,226.374194 C256,235.4958 263.394522,242.890323 272.516129,242.890323 Z M0,256 C0,397.456 114.611582,512 255.992,512 C397.45242,512 512,397.456 512,256 C512,114.656 397.340417,0 255.992,0 C114.611582,0 0,114.624 0,256 Z" id="instagram-1" fill="#000000" sketch:type="MSShapeGroup"></path>
    </g>
</svg>
