<?xml version="1.0" encoding="UTF-8" standalone="no"?>
<svg width="512px" height="512px" viewBox="0 0 512 512" version="1.1" xmlns="http://www.w3.org/2000/svg" xmlns:xlink="http://www.w3.org/1999/xlink" xmlns:sketch="http://www.bohemiancoding.com/sketch/ns">
    <title>lanyrd</title>
    <description>Created with Sketch (http://www.bohemiancoding.com/sketch)</description>
    <defs></defs>
    <g id="Page-1" stroke="none" stroke-width="1" fill="none" fill-rule="evenodd" sketch:type="MSPage">
        <path d="M256,512 C397.384903,512 512,397.384903 512,256 C512,114.615097 397.384903,0 256,0 C114.615097,0 0,114.615097 0,256 C0,397.384903 114.615097,512 256,512 Z M360.592251,354.740191 C323.722201,366.885979 251.716098,390.526249 238.268999,393.888187 C224.821899,397.250124 210.941464,402.889356 203.133596,380.333079 C203.133596,380.333079 136.766726,184.269076 130.694157,166.918043 C124.621588,149.56701 118.706478,139.107071 132.428805,133.625948 C164.107924,120.972648 197.060377,104.834438 203.133596,123.215458 C208.567221,139.659477 266.463858,321.01476 266.463858,321.01476 C266.463858,321.01476 334.565376,297.048511 353.21772,291.843267 C371.870064,286.638022 378.268612,283.167425 383.147878,308.760312 C388.027144,334.353199 397.462301,342.594403 360.592251,354.740191 L360.592251,354.740191 Z" id="lanyrd" fill="#000000" sketch:type="MSShapeGroup"></path>
    </g>
</svg>