<?xml version="1.0" encoding="UTF-8" standalone="no"?>
<svg width="512px" height="512px" viewBox="0 0 512 512" version="1.1" xmlns="http://www.w3.org/2000/svg" xmlns:xlink="http://www.w3.org/1999/xlink" xmlns:sketch="http://www.bohemiancoding.com/sketch/ns">
    <title>lastfm</title>
    <description>Created with Sketch (http://www.bohemiancoding.com/sketch)</description>
    <defs></defs>
    <g id="Page-1" stroke="none" stroke-width="1" fill="none" fill-rule="evenodd" sketch:type="MSPage">
        <path d="M256,0 C114.61468,0 0,114.61468 0,256 C0,397.38532 114.61468,512 256,512 C397.38532,512 512,397.38532 512,256 C512,114.61468 397.38532,0 256,0 L256,0 Z M340.424078,345.6 C276.503612,345.6 254.334757,316.781359 242.514019,280.942602 L230.690796,243.994097 C221.821515,217.020893 211.474641,195.960544 178.962641,195.960544 C156.420971,195.960544 133.513942,212.217786 133.513942,257.662757 C133.513942,293.13367 151.617864,315.303767 177.115961,315.303767 C205.932117,315.303767 225.147029,293.871845 225.147029,293.871845 L236.972738,326.017243 C236.972738,326.017243 217.015922,345.597515 175.269282,345.597515 C123.541126,345.597515 94.7212427,315.303767 94.7212427,259.139107 C94.7212427,200.762408 123.541126,166.401243 177.854136,166.401243 C226.994951,166.401243 251.754874,184.136078 267.268971,232.169631 L279.462524,269.114408 C288.331806,296.090097 303.848388,315.670369 341.163495,315.670369 C366.290019,315.670369 379.58835,310.129087 379.58835,296.459184 C379.58835,285.743223 373.311379,277.984932 354.466796,273.548427 L329.340272,267.638058 C298.674951,260.250097 286.481398,244.361942 286.481398,219.23666 C286.481398,178.961398 318.995883,166.4 352.251029,166.4 C389.937709,166.4 412.845981,180.069903 415.799922,213.322563 L378.853903,217.757825 C377.373825,201.86967 367.768854,195.217398 350.034019,195.217398 C333.774291,195.217398 323.79899,202.609087 323.79899,215.171728 C323.79899,226.254291 328.604583,232.906563 344.85934,236.601165 L368.504544,241.773359 C400.280854,249.163806 417.281243,264.682874 417.281243,294.610019 C417.28,331.56101 386.24435,345.6 340.424078,345.6 L340.424078,345.6 Z" id="lastfm" fill="#000000" sketch:type="MSShapeGroup"></path>
    </g>
</svg>