<?xml version="1.0" encoding="UTF-8" standalone="no"?>
<svg width="512px" height="512px" viewBox="0 0 512 512" version="1.1" xmlns="http://www.w3.org/2000/svg" xmlns:xlink="http://www.w3.org/1999/xlink" xmlns:sketch="http://www.bohemiancoding.com/sketch/ns">
    <title>listen</title>
    <description>Created with Sketch (http://www.bohemiancoding.com/sketch)</description>
    <defs></defs>
    <g id="Page-1" stroke="none" stroke-width="1" fill="none" fill-rule="evenodd" sketch:type="MSPage">
        <rect id="Path" fill="#E8E7E7" sketch:type="MSShapeGroup" x="0" y="0" width="512" height="512" rx="100"></rect>
        <path d="M482.534765,0 C501.524962,3.00906574e-06 512,16.1826923 512,60.552838 L512,153 C512,153 496.893058,100.509522 482.534764,60.5528378 C468.176471,20.5961538 467.754301,25.4035935 433.117647,16.1826923 C398.480993,6.96179068 363,0 363,0 L482.534765,0 Z" id="Path" fill="#000000" sketch:type="MSShapeGroup"></path>
        <path d="M408.059287,238.839076 C398.622619,238.839076 389.6169,240.746886 381.428878,244.152105 C375.959147,181.848804 323.924875,133 260.531243,133 C251.149825,133 242.133056,134.153559 233.403586,136.205564 C231.646642,136.893263 227.038808,139.644059 227.038808,148.994545 L227.038808,370.599964 C227.038808,370.599964 226.35371,375.336212 230.740545,376.833621 C273.945897,376.866897 407.13109,377 408.158736,377 C446.181656,377 477,346.042458 477,307.908446 C476.9116,269.774434 446.082206,238.839076 408.059287,238.839076 L408.059287,238.839076 Z M193.950604,378 C185.695939,378 179,375.2239 179,366.873392 L179,161.730726 C179,147.561513 190.723381,140.41028 198.769484,142.298028 C206.815587,144.174671 209,153.380218 209,161.730726 L209,366.873392 C208.901207,375.2239 202.205269,378 193.950604,378 L193.950604,378 Z M146.955817,377 C138.649485,377 132,373.545876 132,365.242692 L132,239.067511 C132,230.742185 138.671576,224 146.955817,224 C155.240059,224 162,230.742185 162,239.067511 L162,365.242692 C162,373.545876 155.26215,377 146.955817,377 L146.955817,377 Z M100.955579,371 C92.6493785,371 86,367.346373 86,358.99839 L86,221.035228 C86,212.709387 92.6714694,206 100.955579,206 C109.294916,206 115.999521,212.709387 115.999521,221.035228 L115.999521,358.99839 C116.065794,367.346373 109.239688,371 100.955579,371 L100.955579,371 Z M57.5992306,348.719668 C49.4593061,350.274794 39,345.376147 39,333.612729 L39,274.118047 C39,265.764799 45.7151617,259 54.0428457,259 C62.3484404,259 68.997334,265.764799 68.997334,274.118047 L68.997334,333.612729 C69.1077807,343.998749 65.7943786,347.186758 57.5992306,348.719668 L57.5992306,348.719668 Z" id="Shape" fill="#000000" sketch:type="MSShapeGroup"></path>
    </g>
</svg>