<?xml version="1.0" encoding="UTF-8" standalone="no"?>
<svg width="512px" height="512px" viewBox="0 0 512 512" version="1.1" xmlns="http://www.w3.org/2000/svg" xmlns:xlink="http://www.w3.org/1999/xlink" xmlns:sketch="http://www.bohemiancoding.com/sketch/ns">
    <title>location</title>
    <description>Created with Sketch (http://www.bohemiancoding.com/sketch)</description>
    <defs></defs>
    <g id="Page-1" stroke="none" stroke-width="1" fill="none" fill-rule="evenodd" sketch:type="MSPage">
        <path d="M256,512 C397.384903,512 512,397.384903 512,256 C512,114.615097 397.384903,0 256,0 C114.615097,0 0,114.615097 0,256 C0,397.384903 114.615097,512 256,512 Z M372,218.024085 C372,202.00468 369.047483,186.384014 363.123524,171.710358 C357.407755,157.535128 349.297798,144.805333 338.888284,133.889807 C328.478771,122.904502 316.469977,114.391389 302.956536,108.350468 C288.960472,102.130114 274.254669,99 258.990537,99 C243.811574,99 228.954359,102.110177 215.024537,108.350468 C201.558412,114.371452 189.568545,122.924439 179.121179,133.889807 C168.711666,144.805333 160.630098,157.535128 154.876476,171.710358 C148.999833,186.41392 146,201.984743 146,218.024085 C146,234.063428 148.952517,249.664156 154.876476,264.337812 C158.075036,272.28272 162.030651,279.759107 166.677079,286.7271 L166.677079,286.7271 L241.284901,406.359265 C251.013064,421.880245 266.892304,421.880245 276.611004,406.359265 L351.190436,286.7271 C355.865254,279.759107 359.839796,272.28272 363.019429,264.337812 C369.056947,249.664156 372,234.103302 372,218.024085 L372,218.024085 Z M287.648169,248.975854 C279.72186,257.37208 269.200629,262 257.962256,262 C246.752191,262 236.146035,257.37208 228.276342,248.975854 C220.368906,240.539645 216,229.424641 216,217.529987 C216,205.655323 220.368906,194.490341 228.276342,186.094115 C236.27814,177.697889 246.742754,173 257.962256,173 C269.172321,173 279.759605,177.697889 287.648169,186.094115 C295.612222,194.490341 300,205.645328 300,217.529987 C300,229.424641 295.612222,240.549641 287.648169,248.975854 L287.648169,248.975854 Z" id="location" fill="#000000" sketch:type="MSShapeGroup"></path>
    </g>
</svg>
