<?xml version="1.0" encoding="UTF-8" standalone="no"?>
<svg width="512px" height="512px" viewBox="0 0 512 512" version="1.1" xmlns="http://www.w3.org/2000/svg" xmlns:xlink="http://www.w3.org/1999/xlink" xmlns:sketch="http://www.bohemiancoding.com/sketch/ns">
    <title>mail-alt-0</title>
    <description>Created with Sketch (http://www.bohemiancoding.com/sketch)</description>
    <defs></defs>
    <g id="Page-1" stroke="none" stroke-width="1" fill="none" fill-rule="evenodd" sketch:type="MSPage">
        <path d="M256,0 C114.61468,0 0,114.61468 0,256 C0,397.38532 114.61468,512 256,512 C397.38532,512 512,397.38532 512,256 C512,114.61468 397.38532,0 256,0 L256,0 Z M410.042408,142.22167 L257.248932,259.406291 L104.699029,142.22167 L410.042408,142.22167 L410.042408,142.22167 Z M103.641476,174.318602 L193.523573,243.362796 L103.641476,333.244893 L103.641476,174.318602 L103.641476,174.318602 Z M104.015534,369.777087 L214.395029,259.397592 L257.236505,292.304777 L300.008388,259.501981 L410.284738,369.775845 L104.015534,369.775845 L104.015534,369.777087 Z M410.842718,333.430058 L320.894757,243.482097 L410.842718,174.497553 L410.842718,333.430058 L410.842718,333.430058 Z" id="mail" fill="#000000" sketch:type="MSShapeGroup"></path>
    </g>
</svg>
