<?xml version="1.0" encoding="UTF-8" standalone="no"?>
<svg width="512px" height="512px" viewBox="0 0 512 512" version="1.1" xmlns="http://www.w3.org/2000/svg" xmlns:xlink="http://www.w3.org/1999/xlink" xmlns:sketch="http://www.bohemiancoding.com/sketch/ns">
    <title>phone</title>
    <description>Created with Sketch (http://www.bohemiancoding.com/sketch)</description>
    <defs></defs>
    <g id="Page-1" stroke="none" stroke-width="1" fill="none" fill-rule="evenodd" sketch:type="MSPage">
        <g id="phone" sketch:type="MSLayerGroup" fill="#000000">
            <path d="M256,0 C114.6151,0 0,114.6151 0,256 C0,397.3849 114.6151,512 256,512 C397.3849,512 512,397.3849 512,256 C512,114.6151 397.3849,0 256,0 L256,0 Z M164,101.687501 C169.274598,101.376401 174.042001,104.529199 177.656201,110.125001 L212.656201,176.499998 C216.341099,184.364702 214.247799,192.786799 208.749999,198.406199 L192.718801,214.4375 C191.7289,215.793502 191.0784,217.320401 191.062498,219 C197.210598,242.798101 215.859298,264.748399 232.312499,279.843802 C248.7657,294.939102 266.449502,315.377199 289.406199,320.218799 C292.243802,321.0103 295.719701,321.293299 297.749999,319.406199 L316.375002,300.4375 C322.804301,295.564399 332.104499,293.202999 338.968798,297.187499 L339.281199,297.187499 L402.4375,334.4688 C411.707601,340.279701 412.668599,351.511501 406.031198,358.343799 L362.5312,401.500002 C356.107699,408.088 347.573402,410.302498 339.281199,410.312499 C302.609801,409.213598 267.960401,391.2153 239.499998,372.718801 C192.784499,338.733201 149.933201,296.5815 123.031198,245.656201 C112.713502,224.3015 100.593301,197.054601 101.749999,173.218799 C101.853099,164.252399 104.2791,155.4672 110.593801,149.687501 L154.093798,106.187499 C157.482398,103.305101 160.8352,101.874202 164,101.687501 L164,101.687501 Z" id="path16180" sketch:type="MSShapeGroup"></path>
        </g>
    </g>
</svg>