<?xml version="1.0" encoding="UTF-8" standalone="no"?>
<svg width="512px" height="512px" viewBox="0 0 512 512" version="1.1" xmlns="http://www.w3.org/2000/svg" xmlns:xlink="http://www.w3.org/1999/xlink" xmlns:sketch="http://www.bohemiancoding.com/sketch/ns">
    <title>picasa</title>
    <description>Created with Sketch (http://www.bohemiancoding.com/sketch)</description>
    <defs></defs>
    <g id="Page-1" stroke="none" stroke-width="1" fill="none" fill-rule="evenodd" sketch:type="MSPage">
        <path d="M256,512 C397.384903,512 512,397.384903 512,256 C512,114.615097 397.384903,0 256,0 C114.615097,0 0,114.615097 0,256 C0,397.384903 114.615097,512 256,512 Z M251.796513,115.308 C272.593231,115.308 292.646564,119.6328 311.551179,127.9952 L311.551179,222.3216 L201.089641,124.5832 C217.445744,118.5504 234.494359,115.308 251.796513,115.308 L251.796513,115.308 Z M106.776615,256.8 C106.776615,203.4344 137.026462,155.416 185.750154,131.0112 L240.675282,179.5968 L112.045949,293.5544 C108.65559,281.3224 106.776615,268.976 106.776615,256.8 L106.776615,256.8 Z M177.119179,377.6408 C150.232615,361.6576 128.786051,337.5304 117.169231,309.1424 L177.119179,256.004 L177.119179,377.6408 L177.119179,377.6408 Z M251.777641,398.2608 C231.173744,398.2608 211.147487,394.0808 192.242872,385.7768 L192.242872,318.24 L382.197333,318.24 C358.039795,366.9832 307.117949,398.2608 251.777641,398.2608 L251.777641,398.2608 Z M388.731897,303.4944 L327.096615,303.4944 L327.096615,136.1312 C370.366359,161.7328 397.068308,207.6928 397.068308,256.8496 C397.068308,272.7232 394.15959,288.3392 388.731897,303.4944 L388.731897,303.4944 Z" id="picasa" fill="#000000" sketch:type="MSShapeGroup"></path>
    </g>
</svg>
