<?xml version="1.0" encoding="UTF-8" standalone="no"?>
<svg width="512px" height="512px" viewBox="0 0 512 512" version="1.1" xmlns="http://www.w3.org/2000/svg" xmlns:xlink="http://www.w3.org/1999/xlink" xmlns:sketch="http://www.bohemiancoding.com/sketch/ns">
    <title>post</title>
    <description>Created with Sketch (http://www.bohemiancoding.com/sketch)</description>
    <defs></defs>
    <g id="Page-1" stroke="none" stroke-width="1" fill="none" fill-rule="evenodd" sketch:type="MSPage">
        <rect id="back" sketch:type="MSShapeGroup" x="0" y="0" width="512" height="512" rx="100"></rect>
        <path d="M482.534765,0 C501.524962,3.00906574e-06 512,16.1826923 512,60.552838 L512,153 C512,153 496.893058,100.509522 482.534764,60.5528378 C468.176471,20.5961538 467.754301,25.4035935 433.117647,16.1826923 C398.480993,6.96179068 363,0 363,0 L482.534765,0 Z" id="corner" sketch:type="MSShapeGroup"></path>
        <path d="M435.350959,153.420222 L391.458216,153.420222 L391.458216,123.632835 C391.458216,98.9593408 371.51947,79 346.905432,79 L84.5252828,79 C59.9112445,79 40,98.9593408 40,123.632835 L40,392.325812 C40,416.999307 59.9112445,437 84.5252828,437 L435.447215,437 C460.061254,437 480,416.999307 480,392.325812 L480,198.025489 C479.972498,173.407131 459.964998,153.420222 435.350959,153.420222 L435.350959,153.420222 Z M103.421249,394.944934 C91.0490086,394.242841 81.0687347,384.138216 81,371.54185 L81,143.526982 C81.0687347,130.531388 91.5988859,120 104.630979,120 L326.300286,120 C339.346126,120 350,130.613987 350,143.664648 L349.931265,391.682269 C349.931265,393.513216 348.501584,395 346.632001,395 L103.421249,394.944934 L103.421249,394.944934 Z M438,372.345639 C438,385.09003 428.08797,395.282783 415.670551,396 L413.274687,396 C401.021555,395.296576 391.314885,385.365882 391,372.897344 L391,195 L434.700553,195 C436.589863,195 437.958928,196.434434 437.958928,198.296439 L438,372.345639 L438,372.345639 Z M294.389942,237 L135.610058,237 C124.233306,237 115,246.184 115,257.5 C115,268.816 124.233306,278 135.610058,278 L294.389942,278 C305.766694,278 315,268.816 315,257.5 C315,246.184 305.766694,237 294.389942,237 L294.389942,237 Z M198.321315,318 L135.678685,318 C124.264051,318 115,327.184 115,338.5 C115,349.816 124.264051,359 135.678685,359 L198.321315,359 C209.735949,359 219,349.816 219,338.5 C219,327.184 209.735949,318 198.321315,318 L198.321315,318 Z M294.389942,155 L135.610058,155 C124.233306,155 115,164.184 115,175.5 C115,186.775 124.233306,196 135.610058,196 L294.389942,196 C305.766694,196 315,186.775 315,175.5 C315,164.184 305.766694,155 294.389942,155 L294.389942,155 Z" id="post" fill="#000000" sketch:type="MSShapeGroup"></path>
    </g>
</svg>
