<?xml version="1.0" encoding="UTF-8" standalone="no"?>
<svg width="512px" height="512px" viewBox="0 0 512 512" version="1.1" xmlns="http://www.w3.org/2000/svg" xmlns:xlink="http://www.w3.org/1999/xlink" xmlns:sketch="http://www.bohemiancoding.com/sketch/ns">
    <title>print</title>
    <description>Created with Sketch (http://www.bohemiancoding.com/sketch)</description>
    <defs></defs>
    <g id="Page-1" stroke="none" stroke-width="1" fill="none" fill-rule="evenodd" sketch:type="MSPage">
        <rect id="back" sketch:type="MSShapeGroup" x="0" y="0" width="512" height="512" rx="100"></rect>
        <path d="M482.534765,0 C501.524962,3.00906574e-06 512,16.1826923 512,60.552838 L512,153 C512,153 496.893058,100.509522 482.534764,60.5528378 C468.176471,20.5961538 467.754301,25.4035935 433.117647,16.1826923 C398.480993,6.96179068 363,0 363,0 L482.534765,0 Z" id="corner" sketch:type="MSShapeGroup"></path>
        <path d="M423.375003,116.375531 L398.513836,116.375531 C398.513836,117.241587 398.300274,118.107643 398.250024,118.888313 L398.250024,110.508305 C398.224899,90.9061591 381.265538,75 360.512306,75 L159.638102,75 C138.78437,75 121.875259,90.9183571 121.875259,110.508305 L121.875259,116.351135 L96.7628429,116.351135 C75.9091106,116.351135 59,132.354878 59,151.896033 L59,365.104435 C59,384.669986 75.9091106,400.649333 96.7628429,400.649333 L121.875259,400.649333 L121.875259,404.455101 C121.875259,424.045049 138.78437,440 159.638102,440 L360.462056,440 C381.252976,440 398.250024,424.045049 398.250024,404.455101 L398.250024,400.649333 L423.148878,400.649333 C443.964923,400.649333 460.999658,384.64559 460.999658,365.104435 L460.999658,151.896033 C461.087595,132.330482 444.20361,116.375531 423.375003,116.375531 L423.375003,116.375531 Z M373,404.85539 C373,411.025163 367.337444,416 360.369111,416 L159.630889,416 C152.662556,416 147,411.025163 147,404.85539 L147,263.889484 C152.562111,260.841177 158.940333,259 165.845889,259 L354.053667,259 C360.984333,259 367.387667,260.865564 373,263.962644 L373,404.85539 L373,404.85539 Z M372.924667,149.857342 C369.007333,151.138011 364.901667,152 360.544889,152 L159.819222,152 C155.362,152 151.055444,151.174954 147,149.684944 L147,110.205855 C147,103.999535 152.662556,99 159.630889,99 L360.394222,99 C367.35,99 373,103.999535 373,110.205855 L372.924667,149.857342 L372.924667,149.857342 Z" id="print" fill="#000000" sketch:type="MSShapeGroup"></path>
    </g>
</svg>
