<?xml version="1.0" encoding="UTF-8" standalone="no"?>
<svg width="512px" height="512px" viewBox="0 0 512 512" version="1.1" xmlns="http://www.w3.org/2000/svg" xmlns:xlink="http://www.w3.org/1999/xlink" xmlns:sketch="http://www.bohemiancoding.com/sketch/ns">
    <title>qrcode</title>
    <description>Created with Sketch (http://www.bohemiancoding.com/sketch)</description>
    <defs></defs>
    <g id="Page-1" stroke="none" stroke-width="1" fill="none" fill-rule="evenodd" sketch:type="MSPage">
        <path d="M99.9912956,1 C44.7676279,1 0,45.7641815 0,100.991296 L0,413.008704 C0,468.232372 44.7641815,513 99.9912956,513 L412.008704,513 C467.232372,513 512,468.235819 512,413.008704 L512,100.991296 C512,45.7676279 467.235819,1 412.008704,1 L99.9912956,1 Z M72,74 L72,440 L438,440 L438,74 L72,74 Z M89,91 L89,178 L176,178 L176,91 L89,91 Z M107,109 L107,161 L159,161 L159,109 L107,109 Z M334,91 L334,178 L421,178 L421,91 L334,91 Z M351,109 L351,161 L403,161 L403,109 L351,109 Z M89,336 L89,423 L176,423 L176,336 L89,336 Z M107,353 L107,405 L159,405 L159,353 L107,353 Z M72,196 L194,196 L194,74 L211.428571,74 L211.428571,143.714286 L228.857143,143.714286 L228.857143,161.142857 L211.428571,161.142857 L211.428571,196 L228.857143,196 L228.857143,161.142857 L246.285714,161.142857 L246.285714,196 L263.714286,196 L263.714286,161.142857 L281.142857,161.142857 L281.142857,196 L298.571429,196 L298.571429,108.857143 L281.142857,108.857143 L281.142857,91.4285714 L298.571429,91.4285714 L298.571429,74 L316,74 L316,196 L438,196 L438,213.428571 L368.285714,213.428571 L368.285714,230.857143 L350.857143,230.857143 L350.857143,213.428571 L333.428571,213.428571 L333.428571,230.857143 L316,230.857143 L316,248.285714 L298.571429,248.285714 L298.571429,213.428571 L281.142857,213.428571 L281.142857,265.714286 L263.714286,265.714286 L263.714286,300.571429 L246.285714,300.571429 L246.285714,283.142857 L211.428571,283.142857 L211.428571,318 L246.285714,318 L246.285714,335.428571 L281.142857,335.428571 L281.142857,352.857143 L228.857143,352.857143 L228.857143,335.428571 L211.428571,335.428571 L211.428571,370.285714 L228.857143,370.285714 L228.857143,387.714286 L246.285714,387.714286 L246.285714,405.142857 L211.428571,405.142857 L211.428571,440 L194,440 L194,318 L72,318 L72,283.142857 L124.285714,283.142857 L124.285714,300.571429 L159.142857,300.571429 L159.142857,283.142857 L176.571429,283.142857 L176.571429,300.571429 L194,300.571429 L194,283.142857 L176.571429,283.142857 L176.571429,265.714286 L194,265.714286 L211.428571,265.714286 L211.428571,248.285714 L228.857143,248.285714 L228.857143,265.714286 L246.285714,265.714286 L246.285714,230.857143 L211.428571,230.857143 L211.428571,248.285714 L176.571429,248.285714 L176.571429,230.857143 L194,230.857143 L194,213.428571 L141.714286,213.428571 L141.714286,248.285714 L176.571429,248.285714 L176.571429,265.714286 L159.142857,265.714286 L159.142857,283.142857 L141.714286,283.142857 L141.714286,265.714286 L124.285714,265.714286 L124.285714,248.285714 L106.857143,248.285714 L106.857143,213.428571 L72,213.428571 M315.818182,440 L315.818182,405 L263.454545,405 L263.454545,387.5 L246,387.5 L246,370 L298.363636,370 L298.363636,387.5 L333.272727,387.5 L333.272727,370 L350.727273,370 L350.727273,405 L403.090909,405 L403.090909,387.5 L438,387.5 L438,422.5 L420.545455,422.5 L420.545455,440 L315.818182,440 Z M438,231 L420.6,231 L420.6,248.444444 L403.2,248.444444 L403.2,265.888889 L385.8,265.888889 L385.8,248.444444 L368.4,248.444444 L368.4,283.333333 L385.8,283.333333 L385.8,300.777778 L420.6,300.777778 L420.6,318.222222 L385.8,318.222222 L385.8,300.777778 L368.4,300.777778 L368.4,335.666667 L351,335.666667 L351,300.777778 L333.6,300.777778 L333.6,265.888889 L351,265.888889 L351,231 L333.6,231 L333.6,248.444444 L316.2,248.444444 L316.2,265.888889 L298.8,265.888889 L298.8,283.333333 L281.4,283.333333 L281.4,300.777778 L264,300.777778 L264,318.222222 L281.4,318.222222 L281.4,300.777778 L298.8,300.777778 L298.8,283.333333 L316.2,283.333333 L316.2,300.777778 L298.8,300.777778 L298.8,318.222222 L281.4,318.222222 L281.4,335.666667 L316.2,335.666667 L316.2,318.222222 L333.6,318.222222 L333.6,335.666667 L316.2,335.666667 L316.2,353.111111 L298.8,353.111111 L298.8,370.555556 L333.6,370.555556 L333.6,353.111111 L385.8,353.111111 L385.8,370.555556 L368.4,370.555556 L368.4,388 L385.8,388 L385.8,370.555556 L438,370.555556 L438,283.333333 L420.6,283.333333 L420.6,265.888889 L438,265.888889 M386,231 L403,231 L403,248 L386,248 L386,231 Z M351,283 L368,283 L368,300 L351,300 L351,283 Z M246,405 L263,405 L263,440 L246,440 L246,405 Z M281,423 L298,423 L298,440 L281,440 L281,423 Z M229,74 L281,74 L281,91.5 L263.666667,91.5 L263.666667,109 L246.333333,109 L246.333333,91.5 L229,91.5 L229,74 Z M229,126 L229,143 L246,143 L246,126 L229,126 Z M264,126 L281,126 L281,143 L264,143 L264,126 Z M72,231 L89,231 L89,266 L72,266 L72,231 Z" id="qrcode" fill="#000000" sketch:type="MSShapeGroup"></path>
    </g>
</svg>