<?xml version="1.0" encoding="UTF-8" standalone="no"?>
<svg width="512px" height="512px" viewBox="0 0 512 512" version="1.1" xmlns="http://www.w3.org/2000/svg" xmlns:xlink="http://www.w3.org/1999/xlink" xmlns:sketch="http://www.bohemiancoding.com/sketch/ns">
    <title>reddit</title>
    <description>Created with Sketch (http://www.bohemiancoding.com/sketch)</description>
    <defs></defs>
    <g id="Page-1" stroke="none" stroke-width="1" fill="none" fill-rule="evenodd" sketch:type="MSPage">
        <path d="M256.374849,511.63733 C397.759752,511.63733 512.374849,397.022233 512.374849,255.63733 C512.374849,114.252427 397.759752,-0.362669578 256.374849,-0.362669578 C114.989946,-0.362669578 0.374849285,114.252427 0.374849285,255.63733 C0.374849285,397.022233 114.989946,511.63733 256.374849,511.63733 Z M435.198603,228.347668 C435.198603,205.841889 416.896434,187.535111 394.401691,187.535111 C384.230404,187.535111 374.924596,191.286191 367.771654,197.469742 C340.070772,179.483707 304.21386,168.984457 265.839449,167.494647 L286.112868,101.363701 L345.093897,114.572141 C345.0925,114.731464 345.070846,114.885197 345.070846,115.04452 C345.070846,133.641294 360.196801,148.772092 378.786066,148.772092 C397.375331,148.772092 412.501287,133.641993 412.501287,115.04452 C412.501287,96.4470479 397.376728,81.3176471 378.786066,81.3176471 C364.815478,81.3176471 352.807059,89.8630927 347.697316,102.002391 L283.124559,87.5417279 C279.852647,86.8087021 276.570257,88.716386 275.588125,91.9238106 L252.46261,167.353493 C212.005882,168.002664 174.012169,178.619309 144.978493,197.47114 C137.826949,191.288287 128.519044,187.536509 118.348456,187.536509 C95.8537132,187.536509 77.5529412,205.843985 77.5529412,228.349065 C77.5529412,243.108809 85.4260662,256.062192 97.1906985,263.23103 C96.5899632,267.063169 96.2735294,270.939331 96.2735294,274.853927 C96.2735294,304.101586 113.286213,331.409417 144.176581,351.736383 C174.239191,371.521092 214.084007,382.420046 256.375074,382.420046 C298.662647,382.420046 338.510257,371.518995 368.572868,351.736383 C399.463934,331.407321 416.475221,304.101586 416.475221,274.853927 C416.475221,270.939331 416.160184,267.065265 415.558051,263.23103 C427.324081,256.061493 435.198603,243.106712 435.198603,228.347668 L435.198603,228.347668 Z M378.784669,94.1529357 C390.299228,94.1529357 399.667904,103.523647 399.667904,115.043821 C399.667904,126.561201 390.299228,135.934707 378.784669,135.934707 C367.271507,135.934707 357.901434,126.561201 357.901434,115.043821 C357.900735,103.524346 367.269412,94.1529357 378.784669,94.1529357 L378.784669,94.1529357 Z M90.3821324,228.347668 C90.3821324,212.921283 102.927022,200.371099 118.347059,200.371099 C124.186066,200.371099 129.60875,202.176061 134.0975,205.247223 C117.673676,218.229256 106.272978,233.464174 100.541544,249.902399 C94.3420956,244.767725 90.3821324,237.012605 90.3821324,228.347668 L90.3821324,228.347668 Z M256.375074,369.582661 C175.169632,369.582661 109.104816,327.08743 109.104816,274.852529 C109.104816,272.607332 109.235441,270.383098 109.475037,268.175635 C109.940956,263.905358 110.84136,259.709851 112.161581,255.610078 C117.094596,240.296896 127.789779,226.324684 142.722941,214.67733 C146.034669,212.091126 149.562941,209.625811 153.274926,207.282085 C179.861654,190.497262 216.266912,180.126589 256.375074,180.126589 C296.48114,180.126589 332.887794,190.49866 359.472426,207.282085 C363.184412,209.625811 366.714081,212.091825 370.02511,214.67733 C384.958971,226.323985 395.654853,240.296896 400.587169,255.610078 C401.908088,259.709851 402.808493,263.905358 403.273713,268.175635 C403.515404,270.381002 403.643235,272.607332 403.643235,274.852529 C403.643235,327.088129 337.579118,369.582661 256.375074,369.582661 L256.375074,369.582661 Z M412.208603,249.903797 C406.478566,233.46627 395.075772,218.229256 378.651949,205.247921 C383.140699,202.17676 388.562684,200.371797 394.401691,200.371797 C409.822426,200.371797 422.367316,212.921283 422.367316,228.348366 C422.367316,237.012605 418.409449,244.767725 412.208603,249.903797 Z M311.043382,231.362926 C297.639301,231.362926 286.775074,242.229038 286.775074,255.634535 C286.775074,269.043527 297.639301,279.911735 311.043382,279.911735 C324.443971,279.911735 335.308897,269.043527 335.308897,255.634535 C335.308897,242.229038 324.443971,231.362926 311.043382,231.362926 Z M227.119265,255.634535 C227.119265,242.229038 216.256434,231.362926 202.855846,231.362926 C189.453162,231.362926 178.588934,242.229038 178.588934,255.634535 C178.588934,269.043527 189.45386,279.911735 202.855846,279.911735 C216.256434,279.910337 227.119265,269.043527 227.119265,255.634535 Z M305.254669,315.901974 C293.096066,325.87364 278.020404,330.320011 256.375074,330.320011 C234.728346,330.320011 219.653382,325.87364 207.492684,315.901974 C204.616838,313.543573 200.371176,313.965639 198.014338,316.841141 C195.655404,319.719438 196.075919,323.965257 198.953162,326.325055 C213.489559,338.247032 231.735147,343.797483 256.375074,343.797483 C281.015,343.797483 299.25989,338.247032 313.796985,326.325055 C316.672831,323.965257 317.094743,319.719438 314.735809,316.841141 C312.373382,313.960049 308.130515,313.543573 305.254669,315.901974 Z" id="reddit" fill="#000000" sketch:type="MSShapeGroup"></path>
    </g>
</svg>