<?xml version="1.0" encoding="UTF-8" standalone="no"?>
<svg width="512px" height="512px" viewBox="0 0 512 512" version="1.1" xmlns="http://www.w3.org/2000/svg" xmlns:xlink="http://www.w3.org/1999/xlink" xmlns:sketch="http://www.bohemiancoding.com/sketch/ns">
    <title>rss_ru</title>
    <description>Created with Sketch (http://www.bohemiancoding.com/sketch)</description>
    <defs></defs>
    <g id="Page-1" stroke="none" stroke-width="1" fill="none" fill-rule="evenodd" sketch:type="MSPage">
        <rect id="Path" fill="#E8E7E7" sketch:type="MSShapeGroup" x="0" y="0" width="512" height="512" rx="100"></rect>
        <path d="M482.534765,0 C501.524962,3.00906574e-06 512,16.1826923 512,60.552838 L512,153 C512,153 496.893058,100.509522 482.534764,60.5528378 C468.176471,20.5961538 467.754301,25.4035935 433.117647,16.1826923 C398.480993,6.96179068 363,0 363,0 L482.534765,0 Z" id="Path" fill="#000000" sketch:type="MSShapeGroup"></path>
        <path d="M166.626976,392.742866 C166.626976,379.68452 162.006993,368.53565 152.767026,359.296254 C143.527059,350.056859 132.377499,345.437161 119.318346,345.437161 C106.259192,345.437161 95.1096321,350.056859 85.8696651,359.296254 C76.6296981,368.53565 72.0097147,379.68452 72.0097147,392.742866 C72.0097147,405.801211 76.6296981,416.950082 85.8696651,426.189477 C95.1096321,435.428873 106.259192,440.04857 119.318346,440.04857 C132.377499,440.04857 143.527059,435.428873 152.767026,426.189477 C162.006993,416.950082 166.626976,405.801211 166.626976,392.742866 L166.626976,392.742866 Z M296.356113,427.482993 C293.152924,370.321933 271.346602,321.537925 230.937147,281.130969 C190.527691,240.724013 141.740665,218.91904 84.5760697,215.71605 C81.1264821,215.469666 78.1696926,216.578393 75.7057015,219.042232 C73.2417103,221.506071 72.0097147,224.339486 72.0097147,227.542476 L72.0097147,274.84818 C72.0097147,278.051171 73.0569109,280.761393 75.1513034,282.978848 C77.2456959,285.196303 79.8944865,286.428223 83.097675,286.674607 C121.043139,289.384829 153.567823,304.291054 180.671726,331.39328 C207.775629,358.495507 222.682776,391.018179 225.393166,428.961296 C225.639566,432.164286 226.871561,434.812913 229.089153,436.907176 C231.306745,439.001439 234.017136,440.04857 237.220324,440.04857 L284.528955,440.04857 C287.732144,440.04857 290.565734,438.816651 293.029725,436.352812 C295.493716,433.888973 296.602512,430.932367 296.356113,427.482993 L296.356113,427.482993 Z M438.282006,427.852568 C437.05001,389.909451 430.150835,353.259849 417.58448,317.903763 C405.018124,282.547677 387.831786,250.517773 366.025464,221.814051 C344.219142,193.110329 318.963232,167.855982 290.257735,146.051008 C261.552237,124.246035 229.520352,107.06076 194.162078,94.4951821 C158.803804,81.9296043 122.151935,75.0308557 84.2064711,73.7989363 C80.7568834,73.5525525 77.9232935,74.6612799 75.7057015,77.1251187 C73.2417103,79.5889575 72.0097147,82.4223721 72.0097147,85.6253625 L72.0097147,132.931067 C72.0097147,136.134057 73.1185107,138.84428 75.3361028,141.061735 C77.5536948,143.27919 80.2640852,144.511109 83.4672737,144.757493 C133.732694,146.48218 180.302128,160.218081 223.175574,185.965197 C266.049021,211.712312 300.360099,246.021267 326.108806,288.892061 C351.857514,331.762856 365.594265,378.329409 367.319059,428.59172 C367.565458,431.79471 368.797454,434.504933 371.015046,436.722388 C373.232638,438.939843 375.943028,440.04857 379.146217,440.04857 L426.454848,440.04857 C429.658036,440.04857 432.491626,438.816651 434.955617,436.352812 C437.666008,434.135357 438.774804,431.301943 438.282006,427.852568 L438.282006,427.852568 Z M280.492188,166.155904 L280.492188,70.6205475 L304.428797,70.6205475 C314.094676,70.6205475 321.765713,73.0140365 327.442137,77.8010861 C333.118561,82.5881358 335.956731,89.0619535 335.956731,97.2227334 C335.956731,102.784829 334.566142,107.594602 331.784922,111.652197 C329.003702,115.709791 325.014307,118.741544 319.816617,120.747546 C322.8714,122.753547 325.857747,125.488963 328.775748,128.953875 C331.693749,132.418788 335.797127,138.459498 341.086004,147.076187 C344.41435,152.50151 347.081545,156.581839 349.087671,159.317296 L354.148554,166.155904 L337.87166,166.155904 L333.699851,159.864384 C333.563069,159.63643 333.289511,159.248912 332.879167,158.701821 L330.211945,154.940587 L325.971745,147.965206 L321.389594,140.511123 C318.562781,136.590302 315.975373,133.467368 313.627294,131.14223 C311.279215,128.817092 309.159136,127.141649 307.266995,126.115853 C305.374853,125.090057 302.194736,124.577166 297.726546,124.577166 L294.17025,124.577166 L294.17025,166.155904 L280.492188,166.155904 Z M298.273669,82.2461815 L294.17025,82.2461815 L294.17025,112.404444 L299.367914,112.404444 C306.298167,112.404444 311.051246,111.81177 313.627294,110.626405 C316.203342,109.441041 318.209438,107.651623 319.645641,105.258098 C321.081845,102.864573 321.799936,100.140555 321.799936,97.0859613 C321.799936,94.0769586 321.002057,91.3529402 319.406275,88.9138245 C317.810493,86.4747087 315.565034,84.7536762 312.66983,83.7506753 C309.774625,82.7476744 304.975953,82.2461815 298.273669,82.2461815 L298.273669,82.2461815 Z M426.984237,70.6205475 L440.73069,70.6205475 L440.73069,124.850711 C440.73069,132.190853 440.194971,137.730071 439.123517,141.468528 C438.052064,145.206986 436.729864,148.318522 435.156879,150.803229 C433.583894,153.287935 431.657586,155.510461 429.377898,157.470872 C421.809332,163.990377 411.915632,167.250081 399.696502,167.250081 C387.249403,167.250081 377.264517,164.013173 369.741545,157.539258 C367.461857,155.533256 365.535549,153.287935 363.962564,150.803229 C362.389579,148.318522 361.090176,145.275372 360.064316,141.673687 C359.038456,138.072002 358.525534,132.418809 358.525534,124.713938 L358.525534,70.6205475 L372.271987,70.6205475 L372.271987,124.850711 C372.271987,133.832128 373.297831,140.077994 375.349551,143.588497 C377.401271,147.099 380.524397,149.914199 384.719024,152.034178 C388.91365,154.154157 393.8605,155.214131 399.559721,155.214131 C407.675412,155.214131 414.28641,153.094184 419.392912,148.854225 C422.082945,146.574678 424.020651,143.884852 425.206089,140.784668 C426.391527,137.684483 426.984237,132.373217 426.984237,124.850711 L426.984237,70.6205475 Z" id="Shape" fill="#000000" sketch:type="MSShapeGroup"></path>
    </g>
</svg>