<?xml version="1.0" encoding="UTF-8" standalone="no"?>
<svg width="512px" height="512px" viewBox="0 0 512 512" version="1.1" xmlns="http://www.w3.org/2000/svg" xmlns:xlink="http://www.w3.org/1999/xlink" xmlns:sketch="http://www.bohemiancoding.com/sketch/ns">
    <title>rss_en</title>
    <description>Created with Sketch (http://www.bohemiancoding.com/sketch)</description>
    <defs></defs>
    <g id="Page-1" stroke="none" stroke-width="1" fill="none" fill-rule="evenodd" sketch:type="MSPage">
        <rect id="Path" fill="#E8E7E7" sketch:type="MSShapeGroup" x="0" y="0" width="512" height="512" rx="100"></rect>
        <path d="M482.534765,0 C501.524962,3.00906574e-06 512,16.1826923 512,60.552838 L512,153 C512,153 496.893058,100.509522 482.534764,60.5528378 C468.176471,20.5961538 467.754301,25.4035935 433.117647,16.1826923 C398.480993,6.96179068 363,0 363,0 L482.534765,0 Z" id="Path" fill="#000000" sketch:type="MSShapeGroup"></path>
        <path d="M166.626976,392.742866 C166.626976,379.68452 162.006993,368.53565 152.767026,359.296254 C143.527059,350.056859 132.377499,345.437161 119.318346,345.437161 C106.259192,345.437161 95.1096321,350.056859 85.8696651,359.296254 C76.6296981,368.53565 72.0097147,379.68452 72.0097147,392.742866 C72.0097147,405.801211 76.6296981,416.950082 85.8696651,426.189477 C95.1096321,435.428873 106.259192,440.04857 119.318346,440.04857 C132.377499,440.04857 143.527059,435.428873 152.767026,426.189477 C162.006993,416.950082 166.626976,405.801211 166.626976,392.742866 L166.626976,392.742866 Z M296.356113,427.482993 C293.152924,370.321933 271.346602,321.537925 230.937147,281.130969 C190.527691,240.724013 141.740665,218.91904 84.5760697,215.71605 C81.1264821,215.469666 78.1696926,216.578393 75.7057015,219.042232 C73.2417103,221.506071 72.0097147,224.339486 72.0097147,227.542476 L72.0097147,274.84818 C72.0097147,278.051171 73.0569109,280.761393 75.1513034,282.978848 C77.2456959,285.196303 79.8944865,286.428223 83.097675,286.674607 C121.043139,289.384829 153.567823,304.291054 180.671726,331.39328 C207.775629,358.495507 222.682776,391.018179 225.393166,428.961296 C225.639566,432.164286 226.871561,434.812913 229.089153,436.907176 C231.306745,439.001439 234.017136,440.04857 237.220324,440.04857 L284.528955,440.04857 C287.732144,440.04857 290.565734,438.816651 293.029725,436.352812 C295.493716,433.888973 296.602512,430.932367 296.356113,427.482993 L296.356113,427.482993 Z M438.282006,427.852568 C437.05001,389.909451 430.150835,353.259849 417.58448,317.903763 C405.018124,282.547677 387.831786,250.517773 366.025464,221.814051 C344.219142,193.110329 318.963232,167.855982 290.257735,146.051008 C261.552237,124.246035 229.520352,107.06076 194.162078,94.4951821 C158.803804,81.9296043 122.151935,75.0308557 84.2064711,73.7989363 C80.7568834,73.5525525 77.9232935,74.6612799 75.7057015,77.1251187 C73.2417103,79.5889575 72.0097147,82.4223721 72.0097147,85.6253625 L72.0097147,132.931067 C72.0097147,136.134057 73.1185107,138.84428 75.3361028,141.061735 C77.5536948,143.27919 80.2640852,144.511109 83.4672737,144.757493 C133.732694,146.48218 180.302128,160.218081 223.175574,185.965197 C266.049021,211.712312 300.360099,246.021267 326.108806,288.892061 C351.857514,331.762856 365.594265,378.329409 367.319059,428.59172 C367.565458,431.79471 368.797454,434.504933 371.015046,436.722388 C373.232638,438.939843 375.943028,440.04857 379.146217,440.04857 L426.454848,440.04857 C429.658036,440.04857 432.491626,438.816651 434.955617,436.352812 C437.666008,434.135357 438.774804,431.301943 438.282006,427.852568 L438.282006,427.852568 Z M429.232283,70 L442.556594,70 L442.556594,167.96875 L430.494587,167.96875 L364.995079,92.5812008 L364.995079,167.96875 L351.811024,167.96875 L351.811024,70 L363.171752,70 L429.232283,146.018701 L429.232283,70 Z M280,70 L335.541339,70 L335.541339,82.4827756 L294.025591,82.4827756 L294.025591,112.357283 L334.13878,112.357283 L334.13878,124.910187 L294.025591,124.910187 L294.025591,155.345719 L336.87377,155.345719 L336.87377,167.828494 L280,167.828494 L280,70 Z" id="Shape" fill="#000000" sketch:type="MSShapeGroup"></path>
    </g>
</svg>