<?xml version="1.0" encoding="UTF-8" standalone="no"?>
<svg width="512px" height="512px" viewBox="0 0 512 512" version="1.1" xmlns="http://www.w3.org/2000/svg" xmlns:xlink="http://www.w3.org/1999/xlink" xmlns:sketch="http://www.bohemiancoding.com/sketch/ns">
    <title>share</title>
    <description>Created with Sketch (http://www.bohemiancoding.com/sketch)</description>
    <defs></defs>
    <g id="Page-1" stroke="none" stroke-width="1" fill="none" fill-rule="evenodd" sketch:type="MSPage">
        <rect id="back" sketch:type="MSShapeGroup" x="0" y="0" width="512" height="512" rx="100"></rect>
        <path d="M482.534765,0 C501.524962,3.00906574e-06 512,16.1826923 512,60.552838 L512,153 C512,153 496.893058,100.509522 482.534764,60.5528378 C468.176471,20.5961538 467.754301,25.4035935 433.117647,16.1826923 C398.480993,6.96179068 363,0 363,0 L482.534765,0 Z" id="corner" sketch:type="MSShapeGroup"></path>
        <path d="M308.804086,142.281513 C311.917946,142.06717 314.964696,141.839431 318.03829,141.785846 L318.03829,103.190763 C318.03829,89.3522626 325.809517,83.9802987 335.285313,91.2277612 L465.288945,185.739496 C465.288945,185.739496 470,189.503889 470,194.84906 C470,200.154042 465.288945,203.998814 465.288945,203.998814 L335.285313,298.456963 C325.809517,305.704426 318.03829,300.372651 318.03829,286.453772 L318.03829,239.325171 C307.099516,237.891754 295.878885,237.704204 284.456926,238.641953 C227.54846,243.51825 179.404435,277.598739 152.023947,326 C150.534126,231.05958 218.730333,150.024643 308.804086,142.281513 L308.804086,142.281513 Z M434.290723,309.693608 C417.346285,309.693608 403.715606,323.381097 403.715606,340.272612 L403.715606,367.795055 C403.715606,376.669803 396.497785,383.841994 387.670042,383.841994 L118.22263,383.841994 C109.488799,383.841994 102.270978,376.669803 102.270978,367.795055 L102.270978,222.032012 L102.270978,143.111103 C102.270978,134.289979 109.475383,127.090977 118.22263,127.090977 L177.762941,127.090977 C194.680547,127.090977 208.364891,113.443706 208.364891,96.5521913 C208.364891,79.6874889 194.667131,66 177.762941,66 L118.22263,66 C75.586508,66 41,100.64101 41,143.164727 L41,173.086838 L41,173.140462 L41,367.808461 C41,410.332178 75.6133401,445 118.22263,445 L387.670042,445 C430.38666,445 465,410.35899 465,367.808461 L465,340.286017 C464.852424,323.381097 451.16808,309.693608 434.290723,309.693608 L434.290723,309.693608 Z" id="sjare" fill="#000000" sketch:type="MSShapeGroup"></path>
    </g>
</svg>
