<?xml version="1.0" encoding="UTF-8" standalone="no"?>
<svg width="512px" height="512px" viewBox="0 0 512 512" version="1.1" xmlns="http://www.w3.org/2000/svg" xmlns:xlink="http://www.w3.org/1999/xlink" xmlns:sketch="http://www.bohemiancoding.com/sketch/ns">
    <title>soundcloud</title>
    <description>Created with Sketch (http://www.bohemiancoding.com/sketch)</description>
    <defs></defs>
    <g id="Page-1" stroke="none" stroke-width="1" fill="none" fill-rule="evenodd" sketch:type="MSPage">
        <path d="M256,0 C114.608,0 0,114.608 0,256 C0,397.44 114.608,512 256,512 C397.392,512 512,397.44 512,256 C512,114.656 397.392,0 256,0 L256,0 Z M112.848,302.896 C112.848,310.736 110.336,313.232 104.144,314.32 C97.952,315.456 90.048,311.888 90.048,302.896 L90.048,258.048 C90.048,251.712 95.152,246.64 101.456,246.64 C107.792,246.64 112.848,251.68 112.848,258.048 L112.848,302.896 L112.848,302.896 L112.848,302.896 Z M148.32,322 C148.32,328.32 143.216,331.04 136.8,331.04 C130.496,331.04 125.408,328.176 125.408,322 L125.408,217.728 C125.408,211.392 130.496,206.24 136.8,206.24 C143.136,206.24 148.32,211.328 148.32,217.728 L148.32,322 L148.32,322 Z M183.824,326.96 C183.824,333.296 178.736,335.952 172.432,335.952 C166.096,335.952 161.04,333.328 161.04,326.96 L161.04,231.552 C161.04,225.216 166.032,220.144 172.432,220.144 C178.736,220.144 183.824,225.184 183.824,231.552 L183.824,326.96 L183.824,326.96 Z M219.344,327.488 C219.344,333.824 214.24,335.824 207.952,335.824 C201.616,335.824 196.528,333.728 196.528,327.488 L196.528,172.928 C196.528,162.208 205.488,156.864 211.536,158.32 C217.744,159.792 219.264,166.656 219.264,172.928 L219.344,327.488 L219.344,327.488 Z M369.792,335.856 C369.008,335.856 268.128,335.792 235.44,335.76 C232.112,334.656 232.624,331.072 232.624,331.072 L232.624,163.856 C232.624,156.784 236.128,154.752 237.472,154.192 C244.064,152.72 250.976,151.856 258,151.856 C306.08,151.856 345.488,188.784 349.648,235.712 C355.968,233.056 362.656,231.584 369.936,231.584 C398.736,231.584 422.08,254.928 422.08,283.792 C421.936,312.512 398.592,335.856 369.792,335.856 L369.792,335.856 Z" id="soundcloud" fill="#1D1D1B" sketch:type="MSShapeGroup"></path>
    </g>
</svg>