<?xml version="1.0" encoding="UTF-8" standalone="no"?>
<svg width="512px" height="512px" viewBox="0 0 512 512" version="1.1" xmlns="http://www.w3.org/2000/svg" xmlns:xlink="http://www.w3.org/1999/xlink" xmlns:sketch="http://www.bohemiancoding.com/sketch/ns">
    <title>stackoverflow</title>
    <description>Created with Sketch (http://www.bohemiancoding.com/sketch)</description>
    <defs></defs>
    <g id="Page-1" stroke="none" stroke-width="1" fill="none" fill-rule="evenodd" sketch:type="MSPage">
        <path d="M256,0 C114.61468,0 0,114.61468 0,256 C0,397.38532 114.61468,512 256,512 C397.38532,512 512,397.38532 512,256 C512,114.61468 397.38532,0 256,0 L256,0 Z M218.459961,173.753165 L323.869825,235.925126 L310.590136,258.435728 L205.174058,196.258796 L218.459961,173.753165 L218.459961,173.753165 Z M190.260194,234.054835 L308.441476,265.822447 L301.659961,291.064544 L183.472466,259.293204 L190.260194,234.054835 L190.260194,234.054835 Z M178.540117,288.702136 L300.401087,299.930097 L298.006369,325.950136 L176.14167,314.734602 L178.540117,288.702136 L178.540117,288.702136 Z M297.443417,333.442485 L297.460816,359.586796 L175.07666,359.642718 L175.065476,333.507107 L297.443417,333.442485 L297.443417,333.442485 Z M339.043417,400.965592 L136.817087,400.965592 L136.817087,273.606835 L157.72334,273.606835 L157.72334,380.458252 L318.242796,380.458252 L318.242796,273.606835 L339.043417,273.606835 L339.043417,400.965592 L339.043417,400.965592 Z M328.122408,232.338641 L259.167689,131.231068 L280.766136,116.506097 L349.715883,217.618641 L328.122408,232.338641 L328.122408,232.338641 Z M354.398447,216.030447 L333.464854,95.4556893 L359.220194,90.9856311 L380.156272,211.560388 L354.398447,216.030447 L354.398447,216.030447 Z" id="stackoverflow" fill="#000000" sketch:type="MSShapeGroup"></path>
    </g>
</svg>