<?xml version="1.0" encoding="UTF-8" standalone="no"?>
<svg width="512px" height="512px" viewBox="0 0 512 512" version="1.1" xmlns="http://www.w3.org/2000/svg" xmlns:xlink="http://www.w3.org/1999/xlink" xmlns:sketch="http://www.bohemiancoding.com/sketch/ns">
    <title>vcard</title>
    <description>Created with Sketch (http://www.bohemiancoding.com/sketch)</description>
    <defs></defs>
    <g id="Page-1" stroke="none" stroke-width="1" fill="none" fill-rule="evenodd" sketch:type="MSPage">
        <rect id="Path" fill="#E8E7E7" sketch:type="MSShapeGroup" x="0" y="0" width="512" height="512" rx="100"></rect>
        <path d="M482.534765,0 C501.524962,3.00906574e-06 512,16.1826923 512,60.552838 L512,153 C512,153 496.893058,100.509522 482.534764,60.5528378 C468.176471,20.5961538 467.754301,25.4035935 433.117647,16.1826923 C398.480993,6.96179068 363,0 363,0 L482.534765,0 Z" id="Path" fill="#000000" sketch:type="MSShapeGroup"></path>
        <path d="M365.722294,94.4041812 C361.843589,94.9142883 358.141244,95.9344871 354.615149,97.4648084 C351.089053,98.9951296 347.445476,101.375594 343.684307,104.606272 C338.630237,108.857164 334.722206,113.405551 331.960098,118.251568 C329.19799,123.097585 326.465306,129.771386 323.761966,138.273171 C320.118334,150.005634 315.005572,167.136473 308.423527,189.666202 C301.841482,212.195931 294.319258,237.828428 285.856628,266.56446 C278.334291,292.409885 270.195009,320.720404 261.438538,351.496864 C252.682068,382.273325 244.307716,411.774075 236.315233,440 L200.878149,440 C184.423037,381.677757 167.674334,322.421207 150.631539,262.228571 C133.588743,202.035936 121.600198,160.207783 114.665543,136.742857 C111.962203,128.241072 109.347055,121.822321 106.82002,117.486411 C104.292985,113.150501 100.267419,108.687131 94.7432029,104.096167 C90.7469612,100.865489 87.2209185,98.6125499 84.164969,97.3372822 C81.1090195,96.0620145 77.0540703,94.9142908 72,93.8940767 L72,74 L207.577698,74 L207.577698,93.3839721 C194.883753,95.5944361 186.274333,97.9323919 181.749177,100.397909 C177.224021,102.863427 174.961476,105.966532 174.961476,109.707317 C174.961476,111.57771 175.167162,113.575599 175.57854,115.701045 C175.989918,117.826491 176.606975,120.674547 177.429731,124.245296 C181.1909,139.208437 188.007916,163.650701 197.880983,197.572822 C207.754051,231.494943 222.387128,283.227527 241.780654,352.772125 C253.651842,310.433238 263.524762,274.641261 271.399709,245.395122 C279.274656,216.148983 286.209206,190.303945 292.203569,167.859233 C295.141982,156.976949 297.580828,146.817469 299.52018,137.380488 C301.459533,127.943507 302.429195,120.844623 302.429195,116.083624 C302.429195,110.642482 299.725895,106.094095 294.319215,102.438328 C288.912536,98.7825601 278.922081,96.1045381 264.347553,94.4041812 L264.347553,74 L365.722294,74 L365.722294,94.4041812 Z M280,371 L437,371 L436.999994,339 L289,339 L280,371 Z M298,307 L437,307 L436.999994,275 L307,275 L298,307 Z M359,185 L359,243 L417,243 L417,185 L359,185 Z" id="vcard" fill="#000000" sketch:type="MSShapeGroup"></path>
    </g>
</svg>