<?xml version="1.0" encoding="UTF-8" standalone="no"?>
<svg width="512px" height="512px" viewBox="0 0 512 512" version="1.1" xmlns="http://www.w3.org/2000/svg" xmlns:xlink="http://www.w3.org/1999/xlink" xmlns:sketch="http://www.bohemiancoding.com/sketch/ns">
    <title>vcard</title>
    <description>Created with Sketch (http://www.bohemiancoding.com/sketch)</description>
    <defs></defs>
    <g id="Page-1" stroke="none" stroke-width="1" fill="none" fill-rule="evenodd" sketch:type="MSPage">
        <path d="M99.9912956,1 C44.7676279,1 0,45.7641815 0,100.991296 L0,413.008704 C0,468.232372 44.7641815,513 99.9912956,513 L412.008704,513 C467.232372,513 512,468.235819 512,413.008704 L512,100.991296 C512,45.7676279 467.235819,1 412.008704,1 L99.9912956,1 Z M360.173813,152.233218 C356.295108,152.585828 352.592763,153.291036 349.066668,154.348865 C345.540572,155.406694 341.896995,157.05218 338.135826,159.285374 C333.081756,162.223787 329.173725,165.367842 326.411617,168.717633 C323.649509,172.067423 320.916826,176.680663 318.213486,182.557489 C314.569854,190.667508 309.457092,202.509135 302.875046,218.082724 C296.293001,233.656313 288.770777,251.374677 280.308148,271.238349 C272.78581,289.1039 264.646528,308.673437 255.890058,329.947547 C247.133587,351.221657 238.759236,371.613938 230.766752,391.125 L195.329669,391.125 C178.874556,350.809974 162.125853,309.849111 145.083058,268.241183 C128.040262,226.633255 116.051717,197.719705 109.117063,181.499665 C106.413723,175.622839 103.798574,171.185902 101.271539,168.188721 C98.7445039,165.19154 94.7189384,162.106252 89.194722,158.932766 C85.1984803,156.699572 81.6724376,155.142237 78.6164881,154.260713 C75.5605386,153.379189 71.5055895,152.585829 66.4515192,151.88061 L66.4515192,138.128906 L202.029217,138.128906 L202.029217,151.528003 C189.335273,153.055977 180.725852,154.67208 176.200696,156.37636 C171.67554,158.080639 169.412996,160.225649 169.412996,162.811452 C169.412996,164.104354 169.618681,165.485387 170.030059,166.954594 C170.441437,168.4238 171.058495,170.392507 171.88125,172.860774 C175.642419,183.203988 182.459435,200.099609 192.332502,223.548145 C202.20557,246.996681 216.838647,282.75663 236.232173,330.829067 C248.103362,301.562473 257.976281,276.821407 265.851228,256.605126 C273.726175,236.388844 280.660725,218.523561 286.655088,203.008741 C289.593501,195.486403 292.032347,188.463702 293.9717,181.940425 C295.911052,175.417148 296.880714,170.510072 296.880714,167.219049 C296.880714,163.457881 294.177415,160.313826 288.770735,157.786791 C283.364055,155.259756 273.3736,153.408583 258.799072,152.233218 L258.799072,138.128906 L360.173813,138.128906 L360.173813,152.233218 Z M275,371 L437,371 L436.999994,339 L288.575419,339 L275,371 Z M302.501283,307.063301 L437,307.052254 L436.999994,275.469643 L316.041422,275.469643 L302.501283,307.063301 Z M357,186 L357,244 L415,244 L415,186 L357,186 Z" id="vcard" fill="#000000" sketch:type="MSShapeGroup"></path>
    </g>
</svg>
