<?xml version="1.0" encoding="UTF-8" standalone="no"?>
<svg width="512px" height="512px" viewBox="0 0 512 512" version="1.1" xmlns="http://www.w3.org/2000/svg" xmlns:xlink="http://www.w3.org/1999/xlink" xmlns:sketch="http://www.bohemiancoding.com/sketch/ns">
    <title>vkontakte</title>
    <description>Created with Sketch (http://www.bohemiancoding.com/sketch)</description>
    <defs></defs>
    <g id="Page-1" stroke="none" stroke-width="1" fill="none" fill-rule="evenodd" sketch:type="MSPage">
        <path d="M256,0 C114.61468,0 0,114.61468 0,256 C0,397.38532 114.61468,512 256,512 C397.384078,512 512,397.38532 512,256 C512,114.61468 397.384078,0 256,0 L256,0 Z M402.151146,356.856544 L359.14066,356.856544 C334.86167,356.856544 330.72466,343.008932 310.716893,323.004893 C292.644039,304.927068 282.627728,318.790835 283.045282,344.558602 C283.153398,351.393553 279.795573,356.856544 271.616,356.856544 C246.140272,356.856544 209.526058,360.446757 172.483107,320.461049 C132.460117,277.259184 98.6097087,201.535379 95.664466,193.701282 C92.7229515,185.868427 96.856233,182.006058 105.291806,182.006058 L149.040466,182.006058 C160.608932,182.006058 161.596893,187.943767 164.827961,195.319301 C178.264233,225.965981 210.489165,287.519068 219.063922,253.174058 C223.988816,233.448388 226.011961,191.432078 204.903146,187.496388 C189.933359,184.707728 226.574913,165.404583 268.85965,175.21833 C284.346408,178.813515 284.398602,185.773981 284.193553,195.905864 C283.41934,234.272311 278.795184,256.407612 288.894757,262.936854 C298.551922,269.175301 323.972971,228.313476 337.335922,196.779495 C341.023068,188.070524 341.772427,182.006058 352.154097,182.006058 L405.664311,182.006058 C433.680155,182.006058 402.018175,222.497553 377.786408,253.922175 C358.269515,279.243806 359.332039,279.740893 381.996738,300.777631 C405.835806,322.900505 435.987883,356.856544 402.151146,356.856544 L402.151146,356.856544 Z" id="vk" fill="#000000" sketch:type="MSShapeGroup"></path>
    </g>
</svg>