<?xml version="1.0" encoding="UTF-8" standalone="no"?>
<svg width="169px" height="101px" viewBox="0 0 169 101" version="1.1" xmlns="http://www.w3.org/2000/svg" xmlns:xlink="http://www.w3.org/1999/xlink" xmlns:sketch="http://www.bohemiancoding.com/sketch/ns">
    <title>fleuron-right</title>
    <description>Created with Sketch (http://www.bohemiancoding.com/sketch)</description>
    <defs></defs>
    <g id="Page-1" stroke="none" stroke-width="1" fill="none" fill-rule="evenodd" sketch:type="MSPage">
        <g id="Aldine_typographique_(Zapf)" sketch:type="MSLayerGroup" transform="translate(0.000000, 1.000000)" fill="#000000">
            <path d="M124.984,34.925 C125.873,38.477 126.539,43.139 126.982,48.911 L127.205,52.019 L128.537,61.787 C129.127,65.488 130.719,68.707 133.309,71.444 C135.896,74.184 138.97,75.551 142.523,75.551 C146.664,75.551 149.882,74.368 152.179,71.999 C154.472,69.633 155.62,66.449 155.62,62.453 C155.62,61.27 155.175,59.421 154.288,56.903 L154.065,56.015 C155.84,53.205 158.133,51.797 160.948,51.797 C163.018,51.797 164.757,52.39 166.165,53.573 C167.569,54.76 168.274,56.386 168.274,58.457 C168.274,61.121 167.53,63.417 166.053,65.339 C164.573,67.264 162.424,69.411 159.615,71.777 L159.17,72.221 C154.877,75.922 150.252,79.363 145.295,82.544 C140.336,85.729 135.084,88.576 129.533,91.091 C123.983,93.61 118.395,95.608 112.772,97.085 C107.146,98.566 101.671,99.305 96.344,99.305 C91.755,99.305 87.054,98.715 82.247,97.529 C77.436,96.346 72.958,94.497 68.816,91.979 C64.671,89.464 61.341,86.318 58.826,82.544 C56.307,78.77 55.052,74.368 55.052,69.335 C55.052,64.895 56.345,61.27 58.937,58.457 C61.525,55.647 65.042,53.129 69.482,50.909 C67.557,47.062 64.56,44.138 60.491,42.14 C56.419,40.142 52.017,39.07 47.282,38.921 C47.282,42.772 46.394,46.469 44.618,50.021 C42.842,53.573 40.473,56.792 37.514,59.678 C34.552,62.564 31.26,65.117 27.635,67.337 C24.007,69.557 20.343,71.409 16.646,72.887 C17.829,79.252 21.603,82.433 27.968,82.433 C31.666,82.433 34.85,81.177 37.514,78.659 L37.514,80.435 C37.514,81.177 37.587,82.287 37.736,83.765 C37.882,85.395 37.958,86.578 37.958,87.317 C37.958,90.574 36.588,93.238 33.851,95.309 C31.111,97.383 28.041,98.417 24.638,98.417 C19.161,98.417 14.61,96.495 10.985,92.645 C7.357,88.798 5.397,84.136 5.102,78.659 C3.77,78.513 2.067,77.993 -0.004,77.105 C1.03,73.109 2.733,69.928 5.102,67.559 C5.397,63.417 6.58,59.456 8.654,55.682 C10.725,51.908 13.427,48.543 16.757,45.581 C20.087,42.622 23.75,40.142 27.746,38.144 C31.742,36.146 35.811,34.852 39.956,34.259 C38.919,32.039 37.292,30.45 35.072,29.486 C32.852,28.526 29.744,27.675 25.748,26.933 C20.271,25.899 16.202,24.529 13.538,22.826 C10.874,21.126 9.542,17.907 9.542,13.169 C9.542,8.878 11.02,5.586 13.982,3.29 C16.941,0.997 20.566,-0.151 24.86,-0.151 L27.08,-0.151 C24.86,1.625 23.75,3.921 23.75,6.731 C23.75,9.25 24.638,11.542 26.414,13.613 C28.19,15.688 30.483,17.536 33.296,19.163 L33.518,19.385 C37.514,21.904 40.511,24.158 42.509,26.156 C44.507,28.154 46.095,30.856 47.282,34.259 L49.946,34.037 C53.793,34.037 57.827,35.036 62.045,37.034 C66.263,39.032 69.926,41.439 73.034,44.249 L73.478,43.805 C70.96,38.775 69.704,34.186 69.704,30.041 C69.704,24.269 71.959,19.496 76.475,15.722 C80.988,11.948 86.132,10.061 91.904,10.061 C97.084,10.061 102.227,11.358 107.334,13.946 C112.439,16.537 116.547,19.905 119.654,24.047 C122.32,27.749 124.097,31.374 124.984,34.925 L124.984,34.925 Z M24.197,61.232 C27.155,59.827 30.004,58.124 32.744,56.126 C35.481,54.128 37.701,51.908 39.404,49.466 C41.104,47.024 41.957,44.471 41.957,41.807 C41.957,41.068 41.808,40.107 41.513,38.921 C38.405,38.921 35.331,39.625 32.3,41.03 C29.265,42.439 26.49,44.325 23.975,46.691 C21.456,49.06 19.497,51.797 18.092,54.905 C16.684,58.013 15.983,61.197 15.983,64.451 C18.498,63.712 21.234,62.641 24.197,61.232 L24.197,61.232 Z" id="Shape" sketch:type="MSShapeGroup"></path>
        </g>
    </g>
</svg>