<?xml version="1.0" encoding="UTF-8" standalone="no"?>
<svg width="512px" height="512px" viewBox="0 0 512 512" version="1.1" xmlns="http://www.w3.org/2000/svg" xmlns:xlink="http://www.w3.org/1999/xlink" xmlns:sketch="http://www.bohemiancoding.com/sketch/ns">
    <title>github-1</title>
    <description>Created with Sketch (http://www.bohemiancoding.com/sketch)</description>
    <defs></defs>
    <g id="Page-1" stroke="none" stroke-width="1" fill="none" fill-rule="evenodd" sketch:type="MSPage">
        <path d="M256,0 C114.608,0 0,114.624 0,256 C0,397.456 114.608,512 256,512 C397.392,512 512,397.456 512,256 C512,114.656 397.392,0 256,0 L256,0 Z M237.072,198.768 C233.184,199.904 228.384,201.12 222.384,202.624 C224.496,208.288 225.392,213.488 225.392,218.272 C225.392,249.92 206.384,273.344 175.36,279.312 C165.584,280.896 160.672,286.32 160.672,294.976 C160.672,304.752 172.352,310.16 187.04,313.936 C194.528,315.6 201.728,317.808 209.216,320.272 C223.888,325.312 235.552,337.312 235.552,356.608 C235.552,394.08 213.168,412.64 168.512,412.64 C156.848,412.64 146.048,411.456 136.464,408.768 C117.296,403.776 100.512,388.08 100.512,364.112 C100.512,343.776 111.888,329.952 134.336,322.448 L134.336,321.456 C126.144,316.464 122,308.912 122,298.448 C122,284.816 125.904,276.128 133.392,272.816 L133.392,271.824 C115.728,265.856 102.528,241.296 102.528,221.2 C102.528,186.816 129.184,161.296 163.552,161.296 C175.552,161.296 186.56,164.304 196.544,169.984 C207.92,169.984 221.408,166.976 236.976,161.296 L237.072,198.768 L237.072,198.768 Z M295.808,324.288 L254.816,324.288 C255.296,318.88 255.808,310.784 255.808,299.84 L255.808,186.848 C255.808,176.464 255.472,168.288 254.816,163.184 L295.808,163.184 C295.472,166.32 295.2,174.192 295.2,185.968 L295.2,297.44 C295.2,311.424 295.424,320.448 295.808,324.288 L295.808,324.288 Z M275.408,134.624 C261.328,134.624 249.936,122.288 249.936,107.968 C249.936,93.28 261.008,80.688 275.408,80.688 C289.808,80.688 300.576,93.648 300.576,107.968 C300.608,122 289.424,134.624 275.408,134.624 L275.408,134.624 Z M407.264,319.52 C398.576,324.512 387.792,326.656 374.928,326.656 C367.264,326.656 360.752,325.52 355.152,322.992 C344.064,318.144 338.368,311.04 334.816,299.04 C331.152,287.376 330.512,277.824 330.512,263.168 L330.512,198.176 L331.104,198.176 L331.104,197.584 C330.112,197.584 329.296,197.584 327.808,197.248 L324.144,197.248 C323.808,197.248 320.352,197.584 313.136,198.24 L313.136,163.232 L331.12,163.232 L331.12,149.008 C331.12,142.672 330.784,137.344 329.92,132.672 L371.872,132.672 C371.28,136.576 370.96,146.8 370.96,163.232 L402.432,163.232 L402.432,198.24 C400.64,198.24 397.936,198.24 394.64,197.904 C391.04,197.568 388.336,197.568 386.56,197.568 L370.96,197.568 L370.96,265.008 C370.96,281.424 376.368,289.568 386.752,289.568 C394.336,289.568 401.088,287.424 407.088,283.232 L407.264,319.52 Z M165.168,194.56 C149.888,194.56 142.16,203.552 142.16,221.568 C142.16,238.416 149.84,246.672 165.168,246.672 C179.856,246.672 187.344,238.336 187.344,221.168 C187.312,206.544 179.456,194.56 165.168,194.56 Z M138.112,361.792 C138.112,374.368 148.976,380.72 170.176,380.72 C188.752,380.72 197.872,374.16 197.872,360.976 C197.872,348.64 187.68,342.64 167.472,342.64 C148.048,342.592 138.112,348.88 138.112,361.792 Z" id="github-1" fill="#000000" sketch:type="MSShapeGroup"></path>
    </g>
</svg>
