<?xml version="1.0" encoding="UTF-8" standalone="no"?>
<svg width="512px" height="512px" viewBox="0 0 512 512" version="1.1" xmlns="http://www.w3.org/2000/svg" xmlns:xlink="http://www.w3.org/1999/xlink" xmlns:sketch="http://www.bohemiancoding.com/sketch/ns">
    <title>skype</title>
    <description>Created with Sketch (http://www.bohemiancoding.com/sketch)</description>
    <defs></defs>
    <g id="Page-1" stroke="none" stroke-width="1" fill="none" fill-rule="evenodd" sketch:type="MSPage">
        <path d="M345.06066,293.909126 C345.06066,334.698874 312.410718,361.433476 263.668816,361.433476 C220.804971,361.433476 177.719922,341.999845 177.938641,308.543379 C178.004505,298.451262 185.542835,289.184311 195.569087,289.184311 C220.806214,289.184311 220.573825,326.692039 260.762097,326.692039 C288.963107,326.692039 298.584233,311.308427 298.584233,300.592466 C298.584233,261.875573 176.718291,285.611495 176.718291,212.788194 C176.718291,173.38035 209.09732,146.192155 259.985398,149.180893 C308.522252,152.031689 336.956893,173.379107 339.713243,193.32101 C341.072777,206.343456 332.406058,216.47534 317.369165,216.47534 C295.417786,216.47534 293.169709,187.206835 255.374913,187.206835 C238.318602,187.206835 223.917981,194.292816 223.917981,209.676427 C223.915495,241.825553 345.06066,223.15868 345.06066,293.909126 L345.06066,293.909126 Z M512,256 C512,397.38532 397.38532,512 256,512 C114.61468,512 0,397.38532 0,256 C0,114.61468 114.61468,0 256,0 C397.38532,0 512,114.61468 512,256 L512,256 Z M419.764194,328.713942 C419.764194,311.703612 414.913864,295.831612 406.544155,282.379184 C408.045359,273.845437 408.875495,265.083029 408.875495,256.118058 C408.875495,172.995107 341.486602,105.609942 258.36365,105.609942 C248.89165,105.609942 239.637126,106.524583 230.648544,108.199767 C217.356427,100.105942 201.746641,95.4445049 185.044505,95.4445049 C136.528777,95.4445049 97.2041942,134.77033 97.2041942,183.284816 C97.2041942,200.193243 101.993631,215.97701 110.26765,229.377243 C108.709282,238.062602 107.853049,246.98532 107.853049,256.119301 C107.853049,339.247223 175.239456,406.633631 258.36365,406.633631 C268.012117,406.633631 277.43068,405.689165 286.569631,403.95433 C299.810796,411.954951 315.327379,416.560466 331.925126,416.560466 C380.437126,416.556738 419.764194,377.228427 419.764194,328.713942 L419.764194,328.713942 Z" id="skype" fill="#000000" sketch:type="MSShapeGroup"></path>
    </g>
</svg>